<?xml version="1.0" encoding="UTF-8"?>
<svg xmlns="http://www.w3.org/2000/svg" xmlns:xlink="http://www.w3.org/1999/xlink" viewBox="0 0 144 144" width="144px" height="144px">
<g id="surface68427289">
<path style=" stroke:none;fill-rule:nonzero;fill:rgb(6.666667%,6.666667%,6.666667%);fill-opacity:1;" d="M 14.011719 29.0625 L 14.167969 29.0625 C 22.539062 29.0625 27.75 23.0625 27.75 15.5625 C 27.59375 7.898438 22.539062 2.0625 14.328125 2.0625 C 6.117188 2.0625 0.75 7.898438 0.75 15.5625 C 0.75 23.0625 5.957031 29.0625 14.011719 29.0625 Z M 0.75 38.0625 L 27.75 38.0625 L 27.75 116.0625 L 0.75 116.0625 Z M 120.75 66.5625 C 120.75 50.820312 107.992188 38.0625 92.25 38.0625 C 83.089844 38.0625 74.964844 42.402344 69.75 49.113281 L 69.75 38.0625 L 42.75 38.0625 L 42.75 116.0625 L 69.75 116.0625 L 69.75 71.0625 C 69.75 64.433594 75.121094 59.0625 81.75 59.0625 C 88.375 59.0625 93.75 64.433594 93.75 71.0625 L 93.75 116.0625 L 120.75 116.0625 C 120.75 116.0625 120.75 70.925781 120.75 66.5625 Z M 120.75 66.5625 "/>
</g>
</svg>
