<?xml version="1.0" encoding="UTF-8"?>
<svg xmlns="http://www.w3.org/2000/svg" xmlns:xlink="http://www.w3.org/1999/xlink" viewBox="0 0 144 144" width="144px" height="144px">
<g id="surface68447329">
<path style=" stroke:none;fill-rule:nonzero;fill:rgb(6.666667%,6.666667%,6.666667%);fill-opacity:1;" d="M 14.011719 27.9375 L 14.167969 27.9375 C 22.539062 27.9375 27.75 21.9375 27.75 14.4375 C 27.59375 6.773438 22.539062 0.9375 14.328125 0.9375 C 6.117188 0.9375 0.75 6.773438 0.75 14.4375 C 0.75 21.9375 5.957031 27.9375 14.011719 27.9375 Z M 0.75 36.9375 L 27.75 36.9375 L 27.75 114.9375 L 0.75 114.9375 Z M 120.75 65.4375 C 120.75 49.695312 107.992188 36.9375 92.25 36.9375 C 83.089844 36.9375 74.964844 41.277344 69.75 47.988281 L 69.75 36.9375 L 42.75 36.9375 L 42.75 114.9375 L 69.75 114.9375 L 69.75 69.9375 C 69.75 63.308594 75.121094 57.9375 81.75 57.9375 C 88.375 57.9375 93.75 63.308594 93.75 69.9375 L 93.75 114.9375 L 120.75 114.9375 C 120.75 114.9375 120.75 69.800781 120.75 65.4375 Z M 120.75 65.4375 "/>
</g>
</svg>
