<?xml version="1.0" encoding="UTF-8"?>
<svg xmlns="http://www.w3.org/2000/svg" xmlns:xlink="http://www.w3.org/1999/xlink" viewBox="0 0 96 96" width="96px" height="96px">
<g id="surface68427269">
<path style=" stroke:none;fill-rule:nonzero;fill:rgb(6.666667%,6.666667%,6.666667%);fill-opacity:1;" d="M 9.34375 19.375 L 9.445312 19.375 C 15.027344 19.375 18.5 15.375 18.5 10.375 C 18.394531 5.265625 15.027344 1.375 9.550781 1.375 C 4.078125 1.375 0.5 5.265625 0.5 10.375 C 0.5 15.375 3.972656 19.375 9.34375 19.375 Z M 0.5 25.375 L 18.5 25.375 L 18.5 77.375 L 0.5 77.375 Z M 80.5 44.375 C 80.5 33.882812 71.992188 25.375 61.5 25.375 C 55.394531 25.375 49.976562 28.265625 46.5 32.742188 L 46.5 25.375 L 28.5 25.375 L 28.5 77.375 L 46.5 77.375 L 46.5 47.375 C 46.5 42.957031 50.082031 39.375 54.5 39.375 C 58.917969 39.375 62.5 42.957031 62.5 47.375 L 62.5 77.375 L 80.5 77.375 C 80.5 77.375 80.5 47.285156 80.5 44.375 Z M 80.5 44.375 "/>
</g>
</svg>
