<?xml version="1.0" encoding="UTF-8"?>
<svg xmlns="http://www.w3.org/2000/svg" xmlns:xlink="http://www.w3.org/1999/xlink" viewBox="0 0 480 480" width="480px" height="480px">
<g id="surface68447334">
<path style=" stroke:none;fill-rule:nonzero;fill:rgb(6.666667%,6.666667%,6.666667%);fill-opacity:1;" d="M 46.710938 93.125 L 47.230469 93.125 C 75.128906 93.125 92.5 73.125 92.5 48.125 C 91.980469 22.574219 75.128906 3.125 47.761719 3.125 C 20.390625 3.125 2.5 22.574219 2.5 48.125 C 2.5 73.125 19.859375 93.125 46.710938 93.125 Z M 2.5 123.125 L 92.5 123.125 L 92.5 383.125 L 2.5 383.125 Z M 402.5 218.125 C 402.5 165.65625 359.96875 123.125 307.5 123.125 C 276.96875 123.125 249.878906 137.585938 232.5 159.964844 L 232.5 123.125 L 142.5 123.125 L 142.5 383.125 L 232.5 383.125 L 232.5 233.125 C 232.5 211.035156 250.410156 193.125 272.5 193.125 C 294.589844 193.125 312.5 211.035156 312.5 233.125 L 312.5 383.125 L 402.5 383.125 C 402.5 383.125 402.5 232.675781 402.5 218.125 Z M 402.5 218.125 "/>
</g>
</svg>
