<svg width="480" height="480" version="1.1" xmlns="http://www.w3.org/2000/svg" desc="Created with imagetracer.js version 1.2.6" ><path fill="rgb(0,0,0)" stroke="rgb(0,0,0)" stroke-width="1" opacity="1" d="M 77.5 26 L 93.5 27 L 102.5 30 Q 115.1 35.4 123 45.5 L 132 62.5 L 134 71.5 L 134 83.5 Q 130.2 104.7 116.5 116 L 99.5 126 L 91.5 128 L 73.5 128 Q 52.7 123.8 42 109.5 L 33 93.5 L 31 85.5 L 31 69.5 Q 35.5 47 51.5 36 L 64.5 29 L 77.5 26 Z " /><path fill="rgb(0,0,0)" stroke="rgb(0,0,0)" stroke-width="1" opacity="1" d="M 347.5 156 L 374.5 158 L 395.5 164 Q 413.5 171.5 426 184.5 Q 441.8 201.2 449 226.5 L 453 248.5 L 453 264.5 L 454 269.5 L 453 270.5 L 453 279.5 L 454 280.5 L 454 289.5 L 453 290.5 L 453 299.5 L 454 300.5 L 454 309.5 L 453 310.5 L 453 319.5 L 454 320.5 L 454 329.5 L 453 330.5 L 453 339.5 L 454 340.5 L 454 349.5 L 453 350.5 L 453 359.5 L 454 360.5 L 454 369.5 L 453 370.5 L 453 379.5 L 454 380.5 L 454 389.5 L 453 390.5 L 453 399.5 L 454 400.5 L 454 409.5 L 453 410.5 L 453 419.5 L 454 420.5 L 454 429.5 L 453 430.5 L 453 439.5 L 454 442 L 367 442 L 367 287.5 L 362 262.5 Q 357.5 251.5 349.5 244 L 331.5 235 L 313.5 234 L 296.5 238 L 281 248.5 L 271 264.5 L 266 285.5 L 266 442 L 182.5 442 L 182 441.5 L 182 165 L 266 165 L 266 200.5 L 268 199.5 L 282.5 182 Q 294.5 171 310.5 164 L 325.5 159 L 336.5 157 L 346.5 157 L 347.5 156 Z " /><path fill="rgb(0,0,0)" stroke="rgb(0,0,0)" stroke-width="1" opacity="1" d="M 39 165 L 125.5 165 L 126 165.5 L 126 442 L 39.5 442 L 39 441.5 L 39 165 Z " /><path fill="rgb(251,251,251)" stroke="rgb(251,251,251)" stroke-width="1" opacity="1" d="M 45.5 40 L 43.5 43 L 45.5 40 Z " /><path fill="rgb(251,251,251)" stroke="rgb(251,251,251)" stroke-width="1" opacity="1" d="M 38.5 170 L 39 179.5 L 38 179.5 L 38.5 170 Z " /><path fill="rgb(251,251,251)" stroke="rgb(251,251,251)" stroke-width="1" opacity="1" d="M 283.5 180 L 282.5 182 L 283.5 180 Z " /><path fill="rgb(251,251,251)" stroke="rgb(251,251,251)" stroke-width="1" opacity="1" d="M 422.5 180 L 426.5 185 L 422.5 180 Z " /><path fill="rgb(251,251,251)" stroke="rgb(251,251,251)" stroke-width="1" opacity="1" d="M 38.5 190 L 39 199.5 L 38 199.5 L 38.5 190 Z " /><path fill="rgb(251,251,251)" stroke="rgb(251,251,251)" stroke-width="1" opacity="1" d="M 38.5 210 L 39 219.5 L 38 219.5 L 38.5 210 Z " /><path fill="rgb(251,251,251)" stroke="rgb(251,251,251)" stroke-width="1" opacity="1" d="M 38.5 230 L 39 239.5 L 38 239.5 L 38.5 230 Z " /><path fill="rgb(251,251,251)" stroke="rgb(251,251,251)" stroke-width="1" opacity="1" d="M 284.5 246 L 281.5 250 L 284.5 246 Z " /><path fill="rgb(251,251,251)" stroke="rgb(251,251,251)" stroke-width="1" opacity="1" d="M 38.5 250 L 39 259.5 L 38 259.5 L 38.5 250 Z " /><path fill="rgb(251,251,251)" stroke="rgb(251,251,251)" stroke-width="1" opacity="1" d="M 38.5 270 L 39 279.5 L 38 279.5 L 38.5 270 Z " /><path fill="rgb(251,251,251)" stroke="rgb(251,251,251)" stroke-width="1" opacity="1" d="M 38.5 290 L 39 299.5 L 38 299.5 L 38.5 290 Z " /><path fill="rgb(251,251,251)" stroke="rgb(251,251,251)" stroke-width="1" opacity="1" d="M 38.5 310 L 39 319.5 L 38 319.5 L 38.5 310 Z " /><path fill="rgb(251,251,251)" stroke="rgb(251,251,251)" stroke-width="1" opacity="1" d="M 38.5 330 L 39 339.5 L 38 339.5 L 38.5 330 Z " /><path fill="rgb(251,251,251)" stroke="rgb(251,251,251)" stroke-width="1" opacity="1" d="M 38.5 350 L 39 359.5 L 38 359.5 L 38.5 350 Z " /><path fill="rgb(251,251,251)" stroke="rgb(251,251,251)" stroke-width="1" opacity="1" d="M 38.5 370 L 39 379.5 L 38 379.5 L 38.5 370 Z " /><path fill="rgb(251,251,251)" stroke="rgb(251,251,251)" stroke-width="1" opacity="1" d="M 38.5 390 L 39 399.5 L 38 399.5 L 38.5 390 Z " /><path fill="rgb(251,251,251)" stroke="rgb(251,251,251)" stroke-width="1" opacity="1" d="M 38.5 410 L 39 419.5 L 38 419.5 L 38.5 410 Z " /><path fill="rgb(251,251,251)" stroke="rgb(251,251,251)" stroke-width="1" opacity="1" d="M 38.5 430 L 39 439.5 L 38 439.5 L 38.5 430 Z " /><path fill="rgb(197,197,197)" stroke="rgb(197,197,197)" stroke-width="1" opacity="1" d="M 73.5 26 L 77 26.5 L 73.5 27 L 73.5 26 Z " /><path fill="rgb(197,197,197)" stroke="rgb(197,197,197)" stroke-width="1" opacity="1" d="M 87.5 26 L 91 26.5 L 87.5 27 L 87.5 26 Z " /><path fill="rgb(197,197,197)" stroke="rgb(197,197,197)" stroke-width="1" opacity="1" d="M 60.5 30 L 62 30.5 L 57.5 33 L 58.5 31 L 60.5 30 Z " /><path fill="rgb(197,197,197)" stroke="rgb(197,197,197)" stroke-width="1" opacity="1" d="M 109.5 33 L 110.5 35 L 109.5 33 Z " /><path fill="rgb(197,197,197)" stroke="rgb(197,197,197)" stroke-width="1" opacity="1" d="M 53.5 34 L 52.5 36 L 53.5 34 Z " /><path fill="rgb(197,197,197)" stroke="rgb(197,197,197)" stroke-width="1" opacity="1" d="M 112.5 35 L 113.5 37 L 112.5 35 Z " /><path fill="rgb(197,197,197)" stroke="rgb(197,197,197)" stroke-width="1" opacity="1" d="M 49.5 37 L 41.5 46 L 49.5 37 Z " /><path fill="rgb(197,197,197)" stroke="rgb(197,197,197)" stroke-width="1" opacity="1" d="M 116.5 38 L 121.5 44 L 116.5 38 Z " /><path fill="rgb(197,197,197)" stroke="rgb(197,197,197)" stroke-width="1" opacity="1" d="M 123.5 46 L 124.5 48 L 123.5 46 Z " /><path fill="rgb(197,197,197)" stroke="rgb(197,197,197)" stroke-width="1" opacity="1" d="M 39.5 48 L 38.5 50 L 39.5 48 Z " /><path fill="rgb(197,197,197)" stroke="rgb(197,197,197)" stroke-width="1" opacity="1" d="M 127.5 52 L 130 56.5 L 129 56.5 L 127.5 52 Z " /><path fill="rgb(197,197,197)" stroke="rgb(197,197,197)" stroke-width="1" opacity="1" d="M 31.5 66 L 32 68.5 L 31 68.5 L 31.5 66 Z " /><path fill="rgb(197,197,197)" stroke="rgb(197,197,197)" stroke-width="1" opacity="1" d="M 133.5 68 L 134 70.5 L 133 70.5 L 133.5 68 Z " /><path fill="rgb(197,197,197)" stroke="rgb(197,197,197)" stroke-width="1" opacity="1" d="M 30.5 73 L 31 81.5 L 30 81.5 L 30.5 73 Z " /><path fill="rgb(197,197,197)" stroke="rgb(197,197,197)" stroke-width="1" opacity="1" d="M 133.5 84 L 134 86.5 L 133 86.5 L 133.5 84 Z " /><path fill="rgb(197,197,197)" stroke="rgb(197,197,197)" stroke-width="1" opacity="1" d="M 37.5 103 L 38.5 105 L 37.5 103 Z " /><path fill="rgb(197,197,197)" stroke="rgb(197,197,197)" stroke-width="1" opacity="1" d="M 126.5 104 L 125.5 106 L 126.5 104 Z " /><path fill="rgb(197,197,197)" stroke="rgb(197,197,197)" stroke-width="1" opacity="1" d="M 39.5 106 L 41.5 109 L 39.5 106 Z " /><path fill="rgb(197,197,197)" stroke="rgb(197,197,197)" stroke-width="1" opacity="1" d="M 123.5 108 L 122.5 110 L 123.5 108 Z " /><path fill="rgb(197,197,197)" stroke="rgb(197,197,197)" stroke-width="1" opacity="1" d="M 42.5 110 L 48.5 117 L 42.5 110 Z " /><path fill="rgb(197,197,197)" stroke="rgb(197,197,197)" stroke-width="1" opacity="1" d="M 115.5 116 L 113.5 119 L 115.5 116 Z " /><path fill="rgb(197,197,197)" stroke="rgb(197,197,197)" stroke-width="1" opacity="1" d="M 50.5 117 L 52.5 120 L 50.5 117 Z " /><path fill="rgb(197,197,197)" stroke="rgb(197,197,197)" stroke-width="1" opacity="1" d="M 111.5 119 L 110.5 121 L 111.5 119 Z " /><path fill="rgb(197,197,197)" stroke="rgb(197,197,197)" stroke-width="1" opacity="1" d="M 54.5 120 L 55.5 122 L 54.5 120 Z " /><path fill="rgb(197,197,197)" stroke="rgb(197,197,197)" stroke-width="1" opacity="1" d="M 70.5 127 L 73 127.5 L 70.5 128 L 70.5 127 Z " /><path fill="rgb(197,197,197)" stroke="rgb(197,197,197)" stroke-width="1" opacity="1" d="M 92.5 127 L 95 127.5 L 92.5 128 L 92.5 127 Z " /><path fill="rgb(197,197,197)" stroke="rgb(197,197,197)" stroke-width="1" opacity="1" d="M 76.5 128 L 89 128.5 L 76.5 129 L 76.5 128 Z " /><path fill="rgb(197,197,197)" stroke="rgb(197,197,197)" stroke-width="1" opacity="1" d="M 340.5 156 L 347 156.5 L 340.5 157 L 340.5 156 Z " /><path fill="rgb(197,197,197)" stroke="rgb(197,197,197)" stroke-width="1" opacity="1" d="M 355.5 156 L 364 156.5 L 355.5 157 L 355.5 156 Z " /><path fill="rgb(197,197,197)" stroke="rgb(197,197,197)" stroke-width="1" opacity="1" d="M 332.5 157 L 336 157.5 L 332.5 158 L 332.5 157 Z " /><path fill="rgb(197,197,197)" stroke="rgb(197,197,197)" stroke-width="1" opacity="1" d="M 368.5 157 L 372 157.5 L 368.5 158 L 368.5 157 Z " /><path fill="rgb(197,197,197)" stroke="rgb(197,197,197)" stroke-width="1" opacity="1" d="M 327.5 158 L 330 158.5 L 327.5 159 L 327.5 158 Z " /><path fill="rgb(197,197,197)" stroke="rgb(197,197,197)" stroke-width="1" opacity="1" d="M 39.5 164 L 125.5 164 L 127 165.5 L 126.5 442 L 126 165 L 39.5 165 L 39.5 164 Z " /><path fill="rgb(197,197,197)" stroke="rgb(197,197,197)" stroke-width="1" opacity="1" d="M 182.5 164 L 266 164.5 L 182.5 165 L 182.5 164 Z " /><path fill="rgb(197,197,197)" stroke="rgb(197,197,197)" stroke-width="1" opacity="1" d="M 299.5 169 L 298.5 171 L 299.5 169 Z " /><path fill="rgb(197,197,197)" stroke="rgb(197,197,197)" stroke-width="1" opacity="1" d="M 408.5 170 L 409.5 172 L 408.5 170 Z " /><path fill="rgb(197,197,197)" stroke="rgb(197,197,197)" stroke-width="1" opacity="1" d="M 294.5 172 L 293.5 174 L 294.5 172 Z " /><path fill="rgb(197,197,197)" stroke="rgb(197,197,197)" stroke-width="1" opacity="1" d="M 411.5 172 L 412.5 174 L 411.5 172 Z " /><path fill="rgb(197,197,197)" stroke="rgb(197,197,197)" stroke-width="1" opacity="1" d="M 414.5 174 L 415.5 176 L 414.5 174 Z " /><path fill="rgb(197,197,197)" stroke="rgb(197,197,197)" stroke-width="1" opacity="1" d="M 290.5 175 L 289.5 177 L 290.5 175 Z " /><path fill="rgb(197,197,197)" stroke="rgb(197,197,197)" stroke-width="1" opacity="1" d="M 418.5 177 L 422.5 182 L 418.5 177 Z " /><path fill="rgb(197,197,197)" stroke="rgb(197,197,197)" stroke-width="1" opacity="1" d="M 286.5 178 L 283.5 182 L 286.5 178 Z " /><path fill="rgb(197,197,197)" stroke="rgb(197,197,197)" stroke-width="1" opacity="1" d="M 426.5 185 L 430.5 190 L 426.5 185 Z " /><path fill="rgb(197,197,197)" stroke="rgb(197,197,197)" stroke-width="1" opacity="1" d="M 275.5 189 L 272.5 193 L 275.5 189 Z " /><path fill="rgb(197,197,197)" stroke="rgb(197,197,197)" stroke-width="1" opacity="1" d="M 432.5 192 L 433.5 194 L 432.5 192 Z " /><path fill="rgb(197,197,197)" stroke="rgb(197,197,197)" stroke-width="1" opacity="1" d="M 270.5 195 L 268.5 198 L 270.5 195 Z " /><path fill="rgb(197,197,197)" stroke="rgb(197,197,197)" stroke-width="1" opacity="1" d="M 434.5 195 L 435.5 197 L 434.5 195 Z " /><path fill="rgb(197,197,197)" stroke="rgb(197,197,197)" stroke-width="1" opacity="1" d="M 436.5 198 L 437.5 200 L 436.5 198 Z " /><path fill="rgb(197,197,197)" stroke="rgb(197,197,197)" stroke-width="1" opacity="1" d="M 267.5 199 L 266.5 201 L 267.5 199 Z " /><path fill="rgb(197,197,197)" stroke="rgb(197,197,197)" stroke-width="1" opacity="1" d="M 440.5 205 L 442 207.5 L 441 207.5 L 440.5 205 Z " /><path fill="rgb(197,197,197)" stroke="rgb(197,197,197)" stroke-width="1" opacity="1" d="M 450.5 232 L 451 234.5 L 450 234.5 L 450.5 232 Z " /><path fill="rgb(197,197,197)" stroke="rgb(197,197,197)" stroke-width="1" opacity="1" d="M 313.5 234 L 325 234.5 L 313.5 235 L 313.5 234 Z " /><path fill="rgb(197,197,197)" stroke="rgb(197,197,197)" stroke-width="1" opacity="1" d="M 306.5 235 L 309 235.5 L 306.5 236 L 306.5 235 Z " /><path fill="rgb(197,197,197)" stroke="rgb(197,197,197)" stroke-width="1" opacity="1" d="M 329.5 235 L 332 235.5 L 329.5 236 L 329.5 235 Z " /><path fill="rgb(197,197,197)" stroke="rgb(197,197,197)" stroke-width="1" opacity="1" d="M 451.5 237 L 452 239.5 L 451 239.5 L 451.5 237 Z " /><path fill="rgb(197,197,197)" stroke="rgb(197,197,197)" stroke-width="1" opacity="1" d="M 345.5 241 L 346.5 243 L 345.5 241 Z " /><path fill="rgb(197,197,197)" stroke="rgb(197,197,197)" stroke-width="1" opacity="1" d="M 287.5 243 L 286.5 245 L 287.5 243 Z " /><path fill="rgb(197,197,197)" stroke="rgb(197,197,197)" stroke-width="1" opacity="1" d="M 452.5 243 L 453 247.5 L 452 247.5 L 452.5 243 Z " /><path fill="rgb(197,197,197)" stroke="rgb(197,197,197)" stroke-width="1" opacity="1" d="M 349.5 244 L 352.5 248 L 349.5 244 Z " /><path fill="rgb(197,197,197)" stroke="rgb(197,197,197)" stroke-width="1" opacity="1" d="M 283.5 246 L 281.5 249 L 283.5 246 Z " /><path fill="rgb(197,197,197)" stroke="rgb(197,197,197)" stroke-width="1" opacity="1" d="M 278.5 252 L 277.5 254 L 278.5 252 Z " /><path fill="rgb(197,197,197)" stroke="rgb(197,197,197)" stroke-width="1" opacity="1" d="M 453.5 253 L 454 264.5 L 453 264.5 L 453.5 253 Z " /><path fill="rgb(197,197,197)" stroke="rgb(197,197,197)" stroke-width="1" opacity="1" d="M 453.5 270 L 454 279.5 L 453 279.5 L 453.5 270 Z " /><path fill="rgb(197,197,197)" stroke="rgb(197,197,197)" stroke-width="1" opacity="1" d="M 268.5 273 L 269 275.5 L 268 275.5 L 268.5 273 Z " /><path fill="rgb(197,197,197)" stroke="rgb(197,197,197)" stroke-width="1" opacity="1" d="M 267.5 278 L 268 280.5 L 267 280.5 L 267.5 278 Z " /><path fill="rgb(197,197,197)" stroke="rgb(197,197,197)" stroke-width="1" opacity="1" d="M 365.5 278 L 366 281.5 L 365 281.5 L 365.5 278 Z " /><path fill="rgb(197,197,197)" stroke="rgb(197,197,197)" stroke-width="1" opacity="1" d="M 266.5 285 L 267 291.5 L 266 291.5 L 266.5 285 Z " /><path fill="rgb(197,197,197)" stroke="rgb(197,197,197)" stroke-width="1" opacity="1" d="M 366.5 287 L 367 441.5 L 366 441.5 L 366.5 287 Z " /><path fill="rgb(197,197,197)" stroke="rgb(197,197,197)" stroke-width="1" opacity="1" d="M 453.5 290 L 454 299.5 L 453 299.5 L 453.5 290 Z " /><path fill="rgb(197,197,197)" stroke="rgb(197,197,197)" stroke-width="1" opacity="1" d="M 453.5 310 L 454 319.5 L 453 319.5 L 453.5 310 Z " /><path fill="rgb(197,197,197)" stroke="rgb(197,197,197)" stroke-width="1" opacity="1" d="M 453.5 330 L 454 339.5 L 453 339.5 L 453.5 330 Z " /><path fill="rgb(197,197,197)" stroke="rgb(197,197,197)" stroke-width="1" opacity="1" d="M 453.5 350 L 454 359.5 L 453 359.5 L 453.5 350 Z " /><path fill="rgb(197,197,197)" stroke="rgb(197,197,197)" stroke-width="1" opacity="1" d="M 453.5 370 L 454 379.5 L 453 379.5 L 453.5 370 Z " /><path fill="rgb(197,197,197)" stroke="rgb(197,197,197)" stroke-width="1" opacity="1" d="M 453.5 390 L 454 399.5 L 453 399.5 L 453.5 390 Z " /><path fill="rgb(197,197,197)" stroke="rgb(197,197,197)" stroke-width="1" opacity="1" d="M 453.5 410 L 454 419.5 L 453 419.5 L 453.5 410 Z " /><path fill="rgb(197,197,197)" stroke="rgb(197,197,197)" stroke-width="1" opacity="1" d="M 453.5 430 L 454 439.5 L 453 439.5 L 453.5 430 Z " /><path fill="rgb(245,245,245)" stroke="rgb(245,245,245)" stroke-width="1" opacity="1" d="M 10 0 L 20 0 L 20 10 L 30 10 L 30 0 L 40 0 L 40 10 L 50 10 L 50 0 L 60 0 L 60 10 L 70 10 L 70 0 L 80 0 L 80 10 L 90 10 L 90 0 L 100 0 L 100 10 L 110 10 L 110 0 L 120 0 L 120 10 L 130 10 L 130 0 L 140 0 L 140 10 L 150 10 L 150 0 L 160 0 L 160 10 L 170 10 L 170 0 L 180 0 L 180 10 L 190 10 L 190 0 L 200 0 L 200 10 L 210 10 L 210 0 L 220 0 L 220 10 L 230 10 L 230 0 L 240 0 L 240 10 L 250 10 L 250 0 L 260 0 L 260 10 L 270 10 L 270 0 L 280 0 L 280 10 L 290 10 L 290 0 L 300 0 L 300 10 L 310 10 L 310 0 L 320 0 L 320 10 L 330 10 L 330 0 L 340 0 L 340 10 L 350 10 L 350 0 L 360 0 L 360 10 L 370 10 L 370 0 L 380 0 L 380 10 L 390 10 L 390 0 L 400 0 L 400 10 L 410 10 L 410 0 L 420 0 L 420 10 L 430 10 L 430 0 L 440 0 L 440 10 L 450 10 L 450 0 L 460 0 L 460 10 L 470 10 L 470 0 L 480 0 L 480 10 L 470 10 L 470 20 L 480 20 L 480 30 L 470 30 L 470 40 L 480 40 L 480 50 L 470 50 L 470 60 L 480 60 L 480 70 L 470 70 L 470 80 L 480 80 L 480 90 L 470 90 L 470 100 L 480 100 L 480 110 L 470 110 L 470 120 L 480 120 L 480 130 L 470 130 L 470 140 L 480 140 L 480 150 L 470 150 L 470 160 L 480 160 L 480 170 L 470 170 L 470 180 L 480 180 L 480 190 L 470 190 L 470 200 L 480 200 L 480 210 L 470 210 L 470 220 L 480 220 L 480 230 L 470 230 L 470 240 L 480 240 L 480 250 L 470 250 L 470 260 L 480 260 L 480 270 L 470 270 L 470 280 L 480 280 L 480 290 L 470 290 L 470 300 L 480 300 L 480 310 L 470 310 L 470 320 L 480 320 L 480 330 L 470 330 L 470 340 L 480 340 L 480 350 L 470 350 L 470 360 L 480 360 L 480 370 L 470 370 L 470 380 L 480 380 L 480 390 L 470 390 L 470 400 L 480 400 L 480 410 L 470 410 L 470 420 L 480 420 L 480 430 L 470 430 L 470 440 L 480 440 L 480 450 L 470 450 L 470 460 L 480 460 L 480 470 L 470 470 L 470 480 L 460 480 L 460 470 L 450 470 L 450 480 L 440 480 L 440 470 L 430 470 L 430 480 L 420 480 L 420 470 L 410 470 L 410 480 L 400 480 L 400 470 L 390 470 L 390 480 L 380 480 L 380 470 L 370 470 L 370 480 L 360 480 L 360 470 L 350 470 L 350 480 L 340 480 L 340 470 L 330 470 L 330 480 L 320 480 L 320 470 L 310 470 L 310 480 L 300 480 L 300 470 L 290 470 L 290 480 L 280 480 L 280 470 L 270 470 L 270 480 L 260 480 L 260 470 L 250 470 L 250 480 L 240 480 L 240 470 L 230 470 L 230 480 L 220 480 L 220 470 L 210 470 L 210 480 L 200 480 L 200 470 L 190 470 L 190 480 L 180 480 L 180 470 L 170 470 L 170 480 L 160 480 L 160 470 L 150 470 L 150 480 L 140 480 L 140 470 L 130 470 L 130 480 L 120 480 L 120 470 L 110 470 L 110 480 L 100 480 L 100 470 L 90 470 L 90 480 L 80 480 L 80 470 L 70 470 L 70 480 L 60 480 L 60 470 L 50 470 L 50 480 L 40 480 L 40 470 L 30 470 L 30 480 L 20 480 L 20 470 L 10 470 L 10 480 L 0 480 L 0 470 L 10 470 L 10 460 L 0 460 L 0 450 L 10 450 L 10 440 L 0 440 L 0 430 L 10 430 L 10 420 L 0 420 L 0 410 L 10 410 L 10 400 L 0 400 L 0 390 L 10 390 L 10 380 L 0 380 L 0 370 L 10 370 L 10 360 L 0 360 L 0 350 L 10 350 L 10 340 L 0 340 L 0 330 L 10 330 L 10 320 L 0 320 L 0 310 L 10 310 L 10 300 L 0 300 L 0 290 L 10 290 L 10 280 L 0 280 L 0 270 L 10 270 L 10 260 L 0 260 L 0 250 L 10 250 L 10 240 L 0 240 L 0 230 L 10 230 L 10 220 L 0 220 L 0 210 L 10 210 L 10 200 L 0 200 L 0 190 L 10 190 L 10 180 L 0 180 L 0 170 L 10 170 L 10 160 L 0 160 L 0 150 L 10 150 L 10 140 L 0 140 L 0 130 L 10 130 L 10 120 L 0 120 L 0 110 L 10 110 L 10 100 L 0 100 L 0 90 L 10 90 L 10 80 L 0 80 L 0 70 L 10 70 L 10 60 L 0 60 L 0 50 L 10 50 L 10 40 L 0 40 L 0 30 L 10 30 L 10 20 L 0 20 L 0 10 L 10 10 L 10 0 Z M 10 10 L 10 20 L 20 20 L 20 10 L 10 10 Z M 30 10 L 30 20 L 40 20 L 40 10 L 30 10 Z M 50 10 L 50 20 L 60 20 L 60 10 L 50 10 Z M 70 10 L 70 20 L 80 20 L 80 10 L 70 10 Z M 90 10 L 90 20 L 100 20 L 100 10 L 90 10 Z M 110 10 L 110 20 L 120 20 L 120 10 L 110 10 Z M 130 10 L 130 20 L 140 20 L 140 10 L 130 10 Z M 150 10 L 150 20 L 160 20 L 160 10 L 150 10 Z M 170 10 L 170 20 L 180 20 L 180 10 L 170 10 Z M 190 10 L 190 20 L 200 20 L 200 10 L 190 10 Z M 210 10 L 210 20 L 220 20 L 220 10 L 210 10 Z M 230 10 L 230 20 L 240 20 L 240 10 L 230 10 Z M 250 10 L 250 20 L 260 20 L 260 10 L 250 10 Z M 270 10 L 270 20 L 280 20 L 280 10 L 270 10 Z M 290 10 L 290 20 L 300 20 L 300 10 L 290 10 Z M 310 10 L 310 20 L 320 20 L 320 10 L 310 10 Z M 330 10 L 330 20 L 340 20 L 340 10 L 330 10 Z M 350 10 L 350 20 L 360 20 L 360 10 L 350 10 Z M 370 10 L 370 20 L 380 20 L 380 10 L 370 10 Z M 390 10 L 390 20 L 400 20 L 400 10 L 390 10 Z M 410 10 L 410 20 L 420 20 L 420 10 L 410 10 Z M 430 10 L 430 20 L 440 20 L 440 10 L 430 10 Z M 450 10 L 450 20 L 460 20 L 460 10 L 450 10 Z M 20 20 L 20 30 L 30 30 L 30 20 L 20 20 Z M 40 20 L 40 30 L 50 30 L 50 20 L 40 20 Z M 60 20 L 60 30 L 50 30 L 51 37 L 47 40 L 40 40 L 41 47 Q 39 52 30 50 L 30 60 L 33 60 L 34 60 L 32 63 L 30 72 L 30 74 L 30 80 L 20 80 L 20 90 L 30 90 L 31 82 L 32 89 Q 33 91 30 90 L 30 100 L 36 100 L 40 110 L 42 109 L 49 117 Q 52 116 50 120 L 54 120 L 59 123 Q 61 125 60 130 L 70 130 L 70 128 Q 77 127 81 130 L 90 130 L 89 129 Q 95 129 99 126 L 100 126 L 100 130 L 110 130 L 110 123 L 109 122 L 111 121 Q 112 117 114 120 L 120 120 L 120 115 L 118 116 L 123 110 L 130 110 L 130 101 L 130 99 L 131 100 L 140 100 L 140 90 L 133 90 L 134 87 L 134 80 L 140 80 L 140 70 L 134 70 L 132 64 L 132 60 L 140 60 L 140 50 L 130 50 L 130 55 L 127 52 Q 126 48 130 50 L 130 40 L 121 40 L 119 41 L 120 40 L 120 30 L 111 30 L 110 33 L 104 31 L 110 30 L 110 20 L 100 20 L 100 29 Q 97 26 92 27 Q 89 25 90 20 L 80 20 L 80 26 L 74 26 L 73 27 L 70 27 L 70 20 L 60 20 Z M 120 20 L 120 30 L 130 30 L 130 20 L 120 20 Z M 140 20 L 140 30 L 150 30 L 150 20 L 140 20 Z M 160 20 L 160 30 L 170 30 L 170 20 L 160 20 Z M 180 20 L 180 30 L 190 30 L 190 20 L 180 20 Z M 200 20 L 200 30 L 210 30 L 210 20 L 200 20 Z M 220 20 L 220 30 L 230 30 L 230 20 L 220 20 Z M 240 20 L 240 30 L 250 30 L 250 20 L 240 20 Z M 260 20 L 260 30 L 270 30 L 270 20 L 260 20 Z M 280 20 L 280 30 L 290 30 L 290 20 L 280 20 Z M 300 20 L 300 30 L 310 30 L 310 20 L 300 20 Z M 320 20 L 320 30 L 330 30 L 330 20 L 320 20 Z M 340 20 L 340 30 L 350 30 L 350 20 L 340 20 Z M 360 20 L 360 30 L 370 30 L 370 20 L 360 20 Z M 380 20 L 380 30 L 390 30 L 390 20 L 380 20 Z M 400 20 L 400 30 L 410 30 L 410 20 L 400 20 Z M 420 20 L 420 30 L 430 30 L 430 20 L 420 20 Z M 440 20 L 440 30 L 450 30 L 450 20 L 440 20 Z M 460 20 L 460 30 L 470 30 L 470 20 L 460 20 Z M 10 30 L 10 40 L 20 40 L 20 30 L 10 30 Z M 30 30 L 30 40 L 40 40 L 40 30 L 30 30 Z M 130 30 L 130 40 L 140 40 L 140 30 L 130 30 Z M 150 30 L 150 40 L 160 40 L 160 30 L 150 30 Z M 170 30 L 170 40 L 180 40 L 180 30 L 170 30 Z M 190 30 L 190 40 L 200 40 L 200 30 L 190 30 Z M 210 30 L 210 40 L 220 40 L 220 30 L 210 30 Z M 230 30 L 230 40 L 240 40 L 240 30 L 230 30 Z M 250 30 L 250 40 L 260 40 L 260 30 L 250 30 Z M 270 30 L 270 40 L 280 40 L 280 30 L 270 30 Z M 290 30 L 290 40 L 300 40 L 300 30 L 290 30 Z M 310 30 L 310 40 L 320 40 L 320 30 L 310 30 Z M 330 30 L 330 40 L 340 40 L 340 30 L 330 30 Z M 350 30 L 350 40 L 360 40 L 360 30 L 350 30 Z M 370 30 L 370 40 L 380 40 L 380 30 L 370 30 Z M 390 30 L 390 40 L 400 40 L 400 30 L 390 30 Z M 410 30 L 410 40 L 420 40 L 420 30 L 410 30 Z M 430 30 L 430 40 L 440 40 L 440 30 L 430 30 Z M 450 30 L 450 40 L 460 40 L 460 30 L 450 30 Z M 20 40 L 20 50 L 30 50 L 30 40 L 20 40 Z M 140 40 L 140 50 L 150 50 L 150 40 L 140 40 Z M 160 40 L 160 50 L 170 50 L 170 40 L 160 40 Z M 180 40 L 180 50 L 190 50 L 190 40 L 180 40 Z M 200 40 L 200 50 L 210 50 L 210 40 L 200 40 Z M 220 40 L 220 50 L 230 50 L 230 40 L 220 40 Z M 240 40 L 240 50 L 250 50 L 250 40 L 240 40 Z M 260 40 L 260 50 L 270 50 L 270 40 L 260 40 Z M 280 40 L 280 50 L 290 50 L 290 40 L 280 40 Z M 300 40 L 300 50 L 310 50 L 310 40 L 300 40 Z M 320 40 L 320 50 L 330 50 L 330 40 L 320 40 Z M 340 40 L 340 50 L 350 50 L 350 40 L 340 40 Z M 360 40 L 360 50 L 370 50 L 370 40 L 360 40 Z M 380 40 L 380 50 L 390 50 L 390 40 L 380 40 Z M 400 40 L 400 50 L 410 50 L 410 40 L 400 40 Z M 420 40 L 420 50 L 430 50 L 430 40 L 420 40 Z M 440 40 L 440 50 L 450 50 L 450 40 L 440 40 Z M 460 40 L 460 50 L 470 50 L 470 40 L 460 40 Z M 10 50 L 10 60 L 20 60 L 20 50 L 10 50 Z M 150 50 L 150 60 L 160 60 L 160 50 L 150 50 Z M 170 50 L 170 60 L 180 60 L 180 50 L 170 50 Z M 190 50 L 190 60 L 200 60 L 200 50 L 190 50 Z M 210 50 L 210 60 L 220 60 L 220 50 L 210 50 Z M 230 50 L 230 60 L 240 60 L 240 50 L 230 50 Z M 250 50 L 250 60 L 260 60 L 260 50 L 250 50 Z M 270 50 L 270 60 L 280 60 L 280 50 L 270 50 Z M 290 50 L 290 60 L 300 60 L 300 50 L 290 50 Z M 310 50 L 310 60 L 320 60 L 320 50 L 310 50 Z M 330 50 L 330 60 L 340 60 L 340 50 L 330 50 Z M 350 50 L 350 60 L 360 60 L 360 50 L 350 50 Z M 370 50 L 370 60 L 380 60 L 380 50 L 370 50 Z M 390 50 L 390 60 L 400 60 L 400 50 L 390 50 Z M 410 50 L 410 60 L 420 60 L 420 50 L 410 50 Z M 430 50 L 430 60 L 440 60 L 440 50 L 430 50 Z M 450 50 L 450 60 L 460 60 L 460 50 L 450 50 Z M 20 60 L 20 70 L 30 70 L 30 60 L 20 60 Z M 140 60 L 140 70 L 150 70 L 150 60 L 140 60 Z M 160 60 L 160 70 L 170 70 L 170 60 L 160 60 Z M 180 60 L 180 70 L 190 70 L 190 60 L 180 60 Z M 200 60 L 200 70 L 210 70 L 210 60 L 200 60 Z M 220 60 L 220 70 L 230 70 L 230 60 L 220 60 Z M 240 60 L 240 70 L 250 70 L 250 60 L 240 60 Z M 260 60 L 260 70 L 270 70 L 270 60 L 260 60 Z M 280 60 L 280 70 L 290 70 L 290 60 L 280 60 Z M 300 60 L 300 70 L 310 70 L 310 60 L 300 60 Z M 320 60 L 320 70 L 330 70 L 330 60 L 320 60 Z M 340 60 L 340 70 L 350 70 L 350 60 L 340 60 Z M 360 60 L 360 70 L 370 70 L 370 60 L 360 60 Z M 380 60 L 380 70 L 390 70 L 390 60 L 380 60 Z M 400 60 L 400 70 L 410 70 L 410 60 L 400 60 Z M 420 60 L 420 70 L 430 70 L 430 60 L 420 60 Z M 440 60 L 440 70 L 450 70 L 450 60 L 440 60 Z M 460 60 L 460 70 L 470 70 L 470 60 L 460 60 Z M 10 70 L 10 80 L 20 80 L 20 70 L 10 70 Z M 150 70 L 150 80 L 160 80 L 160 70 L 150 70 Z M 170 70 L 170 80 L 180 80 L 180 70 L 170 70 Z M 190 70 L 190 80 L 200 80 L 200 70 L 190 70 Z M 210 70 L 210 80 L 220 80 L 220 70 L 210 70 Z M 230 70 L 230 80 L 240 80 L 240 70 L 230 70 Z M 250 70 L 250 80 L 260 80 L 260 70 L 250 70 Z M 270 70 L 270 80 L 280 80 L 280 70 L 270 70 Z M 290 70 L 290 80 L 300 80 L 300 70 L 290 70 Z M 310 70 L 310 80 L 320 80 L 320 70 L 310 70 Z M 330 70 L 330 80 L 340 80 L 340 70 L 330 70 Z M 350 70 L 350 80 L 360 80 L 360 70 L 350 70 Z M 370 70 L 370 80 L 380 80 L 380 70 L 370 70 Z M 390 70 L 390 80 L 400 80 L 400 70 L 390 70 Z M 410 70 L 410 80 L 420 80 L 420 70 L 410 70 Z M 430 70 L 430 80 L 440 80 L 440 70 L 430 70 Z M 450 70 L 450 80 L 460 80 L 460 70 L 450 70 Z M 140 80 L 140 90 L 150 90 L 150 80 L 140 80 Z M 160 80 L 160 90 L 170 90 L 170 80 L 160 80 Z M 180 80 L 180 90 L 190 90 L 190 80 L 180 80 Z M 200 80 L 200 90 L 210 90 L 210 80 L 200 80 Z M 220 80 L 220 90 L 230 90 L 230 80 L 220 80 Z M 240 80 L 240 90 L 250 90 L 250 80 L 240 80 Z M 260 80 L 260 90 L 270 90 L 270 80 L 260 80 Z M 280 80 L 280 90 L 290 90 L 290 80 L 280 80 Z M 300 80 L 300 90 L 310 90 L 310 80 L 300 80 Z M 320 80 L 320 90 L 330 90 L 330 80 L 320 80 Z M 340 80 L 340 90 L 350 90 L 350 80 L 340 80 Z M 360 80 L 360 90 L 370 90 L 370 80 L 360 80 Z M 380 80 L 380 90 L 390 90 L 390 80 L 380 80 Z M 400 80 L 400 90 L 410 90 L 410 80 L 400 80 Z M 420 80 L 420 90 L 430 90 L 430 80 L 420 80 Z M 440 80 L 440 90 L 450 90 L 450 80 L 440 80 Z M 460 80 L 460 90 L 470 90 L 470 80 L 460 80 Z M 10 90 L 10 100 L 20 100 L 20 90 L 10 90 Z M 150 90 L 150 100 L 160 100 L 160 90 L 150 90 Z M 170 90 L 170 100 L 180 100 L 180 90 L 170 90 Z M 190 90 L 190 100 L 200 100 L 200 90 L 190 90 Z M 210 90 L 210 100 L 220 100 L 220 90 L 210 90 Z M 230 90 L 230 100 L 240 100 L 240 90 L 230 90 Z M 250 90 L 250 100 L 260 100 L 260 90 L 250 90 Z M 270 90 L 270 100 L 280 100 L 280 90 L 270 90 Z M 290 90 L 290 100 L 300 100 L 300 90 L 290 90 Z M 310 90 L 310 100 L 320 100 L 320 90 L 310 90 Z M 330 90 L 330 100 L 340 100 L 340 90 L 330 90 Z M 350 90 L 350 100 L 360 100 L 360 90 L 350 90 Z M 370 90 L 370 100 L 380 100 L 380 90 L 370 90 Z M 390 90 L 390 100 L 400 100 L 400 90 L 390 90 Z M 410 90 L 410 100 L 420 100 L 420 90 L 410 90 Z M 430 90 L 430 100 L 440 100 L 440 90 L 430 90 Z M 450 90 L 450 100 L 460 100 L 460 90 L 450 90 Z M 20 100 L 20 110 L 30 110 L 30 100 L 20 100 Z M 140 100 L 140 110 L 150 110 L 150 100 L 140 100 Z M 160 100 L 160 110 L 170 110 L 170 100 L 160 100 Z M 180 100 L 180 110 L 190 110 L 190 100 L 180 100 Z M 200 100 L 200 110 L 210 110 L 210 100 L 200 100 Z M 220 100 L 220 110 L 230 110 L 230 100 L 220 100 Z M 240 100 L 240 110 L 250 110 L 250 100 L 240 100 Z M 260 100 L 260 110 L 270 110 L 270 100 L 260 100 Z M 280 100 L 280 110 L 290 110 L 290 100 L 280 100 Z M 300 100 L 300 110 L 310 110 L 310 100 L 300 100 Z M 320 100 L 320 110 L 330 110 L 330 100 L 320 100 Z M 340 100 L 340 110 L 350 110 L 350 100 L 340 100 Z M 360 100 L 360 110 L 370 110 L 370 100 L 360 100 Z M 380 100 L 380 110 L 390 110 L 390 100 L 380 100 Z M 400 100 L 400 110 L 410 110 L 410 100 L 400 100 Z M 420 100 L 420 110 L 430 110 L 430 100 L 420 100 Z M 440 100 L 440 110 L 450 110 L 450 100 L 440 100 Z M 460 100 L 460 110 L 470 110 L 470 100 L 460 100 Z M 10 110 L 10 120 L 20 120 L 20 110 L 10 110 Z M 30 110 L 30 120 L 40 120 L 40 110 L 30 110 Z M 130 110 L 130 120 L 140 120 L 140 110 L 130 110 Z M 150 110 L 150 120 L 160 120 L 160 110 L 150 110 Z M 170 110 L 170 120 L 180 120 L 180 110 L 170 110 Z M 190 110 L 190 120 L 200 120 L 200 110 L 190 110 Z M 210 110 L 210 120 L 220 120 L 220 110 L 210 110 Z M 230 110 L 230 120 L 240 120 L 240 110 L 230 110 Z M 250 110 L 250 120 L 260 120 L 260 110 L 250 110 Z M 270 110 L 270 120 L 280 120 L 280 110 L 270 110 Z M 290 110 L 290 120 L 300 120 L 300 110 L 290 110 Z M 310 110 L 310 120 L 320 120 L 320 110 L 310 110 Z M 330 110 L 330 120 L 340 120 L 340 110 L 330 110 Z M 350 110 L 350 120 L 360 120 L 360 110 L 350 110 Z M 370 110 L 370 120 L 380 120 L 380 110 L 370 110 Z M 390 110 L 390 120 L 400 120 L 400 110 L 390 110 Z M 410 110 L 410 120 L 420 120 L 420 110 L 410 110 Z M 430 110 L 430 120 L 440 120 L 440 110 L 430 110 Z M 450 110 L 450 120 L 460 120 L 460 110 L 450 110 Z M 20 120 L 20 130 L 30 130 L 30 120 L 20 120 Z M 40 120 L 40 130 L 50 130 L 50 120 L 40 120 Z M 120 120 L 120 130 L 130 130 L 130 120 L 120 120 Z M 140 120 L 140 130 L 150 130 L 150 120 L 140 120 Z M 160 120 L 160 130 L 170 130 L 170 120 L 160 120 Z M 180 120 L 180 130 L 190 130 L 190 120 L 180 120 Z M 200 120 L 200 130 L 210 130 L 210 120 L 200 120 Z M 220 120 L 220 130 L 230 130 L 230 120 L 220 120 Z M 240 120 L 240 130 L 250 130 L 250 120 L 240 120 Z M 260 120 L 260 130 L 270 130 L 270 120 L 260 120 Z M 280 120 L 280 130 L 290 130 L 290 120 L 280 120 Z M 300 120 L 300 130 L 310 130 L 310 120 L 300 120 Z M 320 120 L 320 130 L 330 130 L 330 120 L 320 120 Z M 340 120 L 340 130 L 350 130 L 350 120 L 340 120 Z M 360 120 L 360 130 L 370 130 L 370 120 L 360 120 Z M 380 120 L 380 130 L 390 130 L 390 120 L 380 120 Z M 400 120 L 400 130 L 410 130 L 410 120 L 400 120 Z M 420 120 L 420 130 L 430 130 L 430 120 L 420 120 Z M 440 120 L 440 130 L 450 130 L 450 120 L 440 120 Z M 460 120 L 460 130 L 470 130 L 470 120 L 460 120 Z M 10 130 L 10 140 L 20 140 L 20 130 L 10 130 Z M 30 130 L 30 140 L 40 140 L 40 130 L 30 130 Z M 50 130 L 50 140 L 60 140 L 60 130 L 50 130 Z M 70 130 L 70 140 L 80 140 L 80 130 L 70 130 Z M 90 130 L 90 140 L 100 140 L 100 130 L 90 130 Z M 110 130 L 110 140 L 120 140 L 120 130 L 110 130 Z M 130 130 L 130 140 L 140 140 L 140 130 L 130 130 Z M 150 130 L 150 140 L 160 140 L 160 130 L 150 130 Z M 170 130 L 170 140 L 180 140 L 180 130 L 170 130 Z M 190 130 L 190 140 L 200 140 L 200 130 L 190 130 Z M 210 130 L 210 140 L 220 140 L 220 130 L 210 130 Z M 230 130 L 230 140 L 240 140 L 240 130 L 230 130 Z M 250 130 L 250 140 L 260 140 L 260 130 L 250 130 Z M 270 130 L 270 140 L 280 140 L 280 130 L 270 130 Z M 290 130 L 290 140 L 300 140 L 300 130 L 290 130 Z M 310 130 L 310 140 L 320 140 L 320 130 L 310 130 Z M 330 130 L 330 140 L 340 140 L 340 130 L 330 130 Z M 350 130 L 350 140 L 360 140 L 360 130 L 350 130 Z M 370 130 L 370 140 L 380 140 L 380 130 L 370 130 Z M 390 130 L 390 140 L 400 140 L 400 130 L 390 130 Z M 410 130 L 410 140 L 420 140 L 420 130 L 410 130 Z M 430 130 L 430 140 L 440 140 L 440 130 L 430 130 Z M 450 130 L 450 140 L 460 140 L 460 130 L 450 130 Z M 20 140 L 20 150 L 30 150 L 30 140 L 20 140 Z M 40 140 L 40 150 L 50 150 L 50 140 L 40 140 Z M 60 140 L 60 150 L 70 150 L 70 140 L 60 140 Z M 80 140 L 80 150 L 90 150 L 90 140 L 80 140 Z M 100 140 L 100 150 L 110 150 L 110 140 L 100 140 Z M 120 140 L 120 150 L 130 150 L 130 140 L 120 140 Z M 140 140 L 140 150 L 150 150 L 150 140 L 140 140 Z M 160 140 L 160 150 L 170 150 L 170 140 L 160 140 Z M 180 140 L 180 150 L 190 150 L 190 140 L 180 140 Z M 200 140 L 200 150 L 210 150 L 210 140 L 200 140 Z M 220 140 L 220 150 L 230 150 L 230 140 L 220 140 Z M 240 140 L 240 150 L 250 150 L 250 140 L 240 140 Z M 260 140 L 260 150 L 270 150 L 270 140 L 260 140 Z M 280 140 L 280 150 L 290 150 L 290 140 L 280 140 Z M 300 140 L 300 150 L 310 150 L 310 140 L 300 140 Z M 320 140 L 320 150 L 330 150 L 330 140 L 320 140 Z M 340 140 L 340 150 L 350 150 L 350 140 L 340 140 Z M 360 140 L 360 150 L 370 150 L 370 140 L 360 140 Z M 380 140 L 380 150 L 390 150 L 390 140 L 380 140 Z M 400 140 L 400 150 L 410 150 L 410 140 L 400 140 Z M 420 140 L 420 150 L 430 150 L 430 140 L 420 140 Z M 440 140 L 440 150 L 450 150 L 450 140 L 440 140 Z M 460 140 L 460 150 L 470 150 L 470 140 L 460 140 Z M 10 150 L 10 160 L 20 160 L 20 150 L 10 150 Z M 30 150 L 30 160 L 40 160 L 40 150 L 30 150 Z M 50 150 L 50 160 L 60 160 L 60 150 L 50 150 Z M 70 150 L 70 160 L 80 160 L 80 150 L 70 150 Z M 90 150 L 90 160 L 100 160 L 100 150 L 90 150 Z M 110 150 L 110 160 L 120 160 L 120 150 L 110 150 Z M 130 150 L 130 160 L 140 160 L 140 150 L 130 150 Z M 150 150 L 150 160 L 160 160 L 160 150 L 150 150 Z M 170 150 L 170 160 L 180 160 L 180 150 L 170 150 Z M 190 150 L 190 160 L 200 160 L 200 150 L 190 150 Z M 210 150 L 210 160 L 220 160 L 220 150 L 210 150 Z M 230 150 L 230 160 L 240 160 L 240 150 L 230 150 Z M 250 150 L 250 160 L 260 160 L 260 150 L 250 150 Z M 270 150 L 270 160 L 280 160 L 280 150 L 270 150 Z M 290 150 L 290 160 L 300 160 L 300 150 L 290 150 Z M 310 150 L 310 160 L 320 160 L 320 150 L 310 150 Z M 330 150 L 330 158 L 311 164 L 310 160 L 300 160 L 300 169 Q 298 173 297 170 L 290 170 L 290 176 L 285 180 Q 279 178 280 183 L 282 182 L 275 190 Q 268 188 270 194 L 272 194 L 268 199 L 266 200 L 267 165 L 267 170 L 270 170 L 270 160 L 260 160 L 260 164 L 250 164 L 250 160 L 240 160 L 240 164 L 230 164 L 230 160 L 220 160 L 220 164 L 210 164 L 210 160 L 200 160 L 200 164 L 190 164 L 190 160 L 180 160 L 180 170 L 182 170 L 182 180 L 180 180 L 180 190 L 182 190 L 182 200 L 180 200 L 180 210 L 182 210 L 182 220 L 180 220 L 180 230 L 182 230 L 182 240 L 180 240 L 180 250 L 182 250 L 182 260 L 180 260 L 180 270 L 182 270 L 182 280 L 180 280 L 180 290 L 182 290 L 182 300 L 180 300 L 180 310 L 182 310 L 182 320 L 180 320 L 180 330 L 182 330 L 182 340 L 180 340 L 180 350 L 182 350 L 182 360 L 180 360 L 180 370 L 182 370 L 182 380 L 180 380 L 180 390 L 182 390 L 182 400 L 180 400 L 180 410 L 182 410 L 182 420 L 180 420 L 180 430 L 182 430 L 182 440 L 180 441 L 180 450 L 190 450 L 190 443 L 182 443 L 266 442 L 266 293 L 267 292 Q 266 289 270 290 L 270 281 L 268 280 L 269 272 L 270 272 L 270 280 L 280 280 L 280 270 L 270 270 L 273 262 Q 275 259 280 260 L 280 253 L 279 252 L 281 250 L 290 250 L 290 244 L 289 243 L 294 240 L 300 240 L 300 237 L 310 235 L 310 240 L 320 240 L 320 235 L 329 235 Q 331 236 330 240 L 340 240 L 341 239 L 340 241 L 340 250 L 350 250 L 351 246 L 355 251 L 350 250 L 350 260 L 360 260 Q 362 261 360 263 L 360 270 L 363 270 L 365 276 L 365 280 L 360 280 L 360 290 L 366 290 L 366 300 L 360 300 L 360 310 L 366 310 L 366 320 L 360 320 L 360 330 L 366 330 L 366 340 L 360 340 L 360 350 L 366 350 L 366 360 L 360 360 L 360 370 L 366 370 L 366 380 L 360 380 L 360 390 L 366 390 L 366 400 L 360 400 L 360 410 L 366 410 L 366 420 L 360 420 L 360 430 L 366 430 L 366 440 L 360 440 L 360 450 L 370 450 L 370 443 L 368 443 L 368 442 L 454 442 L 454 440 L 460 440 L 460 430 L 454 430 L 454 420 L 460 420 L 460 410 L 454 410 L 454 400 L 460 400 L 460 390 L 454 390 L 454 380 L 460 380 L 460 370 L 454 370 L 454 360 L 460 360 L 460 350 L 454 350 L 454 340 L 460 340 L 460 330 L 454 330 L 454 320 L 460 320 L 460 310 L 454 310 L 454 300 L 460 300 L 460 290 L 454 290 L 454 280 L 460 280 L 460 270 L 454 270 L 454 260 L 460 260 L 460 250 L 453 250 L 453 244 L 452 243 L 452 240 L 460 240 L 460 230 L 450 230 L 450 221 L 447 220 L 443 211 L 450 210 L 450 200 L 440 200 L 440 203 L 439 202 L 439 200 L 440 200 L 440 190 L 433 190 L 432 191 Q 428 188 430 180 L 422 180 L 420 179 L 420 170 L 411 170 L 411 172 Q 408 171 410 170 L 410 160 L 400 160 L 400 166 L 392 162 Q 389 163 390 160 L 386 161 L 382 159 L 380 159 L 380 150 L 370 150 L 370 157 L 364 156 L 360 156 L 360 150 L 350 150 L 350 156 L 341 156 L 340 157 L 338 157 L 340 156 L 340 150 L 330 150 Z M 390 150 L 390 160 L 400 160 L 400 150 L 390 150 Z M 410 150 L 410 160 L 420 160 L 420 150 L 410 150 Z M 430 150 L 430 160 L 440 160 L 440 150 L 430 150 Z M 450 150 L 450 160 L 460 160 L 460 150 L 450 150 Z M 20 160 L 20 170 L 30 170 L 30 160 L 20 160 Z M 40 160 L 39 165 L 39 170 L 30 170 L 30 180 L 39 180 L 39 190 L 30 190 L 30 200 L 39 200 L 39 210 L 30 210 L 30 220 L 39 220 L 39 230 L 30 230 L 30 240 L 39 240 L 39 250 L 30 250 L 30 260 L 39 260 L 39 270 L 30 270 L 30 280 L 39 280 L 39 290 L 30 290 L 30 300 L 39 300 L 39 310 L 30 310 L 30 320 L 39 320 L 39 330 L 30 330 L 30 340 L 39 340 L 39 350 L 30 350 L 30 360 L 39 360 L 39 370 L 30 370 L 30 380 L 39 380 L 39 390 L 30 390 L 30 400 L 39 400 L 39 410 L 30 410 L 30 420 L 39 420 L 39 430 L 30 430 L 30 440 L 39 440 L 39 442 L 127 443 L 120 443 L 120 450 L 130 450 L 130 441 L 127 440 L 127 431 L 130 430 L 130 421 L 127 420 L 127 411 L 130 410 L 130 401 L 127 400 L 127 391 L 130 390 L 130 381 L 127 380 L 127 371 L 130 370 L 130 361 L 127 360 L 127 351 L 130 350 L 130 341 L 127 340 L 127 331 L 130 330 L 130 321 L 127 320 L 127 311 L 130 310 L 130 301 L 127 300 L 127 291 L 130 290 L 130 281 L 127 280 L 127 271 L 130 270 L 130 261 L 127 260 L 127 251 L 130 250 L 130 241 L 127 240 L 127 231 L 130 230 L 130 221 L 127 220 L 127 211 L 130 210 L 130 201 L 127 200 L 127 191 L 130 190 L 130 181 L 127 180 L 127 171 L 130 170 L 130 160 L 120 160 L 120 164 L 110 164 L 110 160 L 100 160 L 100 164 L 90 164 L 90 160 L 80 160 L 80 164 L 70 164 L 70 160 L 60 160 L 60 164 L 50 164 L 50 160 L 40 160 Z M 140 160 L 140 170 L 150 170 L 150 160 L 140 160 Z M 160 160 L 160 170 L 170 170 L 170 160 L 160 160 Z M 280 160 L 280 170 L 290 170 L 290 160 L 280 160 Z M 420 160 L 420 170 L 430 170 L 430 160 L 420 160 Z M 440 160 L 440 170 L 450 170 L 450 160 L 440 160 Z M 460 160 L 460 170 L 470 170 L 470 160 L 460 160 Z M 10 170 L 10 180 L 20 180 L 20 170 L 10 170 Z M 130 170 L 130 180 L 140 180 L 140 170 L 130 170 Z M 150 170 L 150 180 L 160 180 L 160 170 L 150 170 Z M 170 170 L 170 180 L 180 180 L 180 170 L 170 170 Z M 270 170 L 270 180 L 280 180 L 280 170 L 270 170 Z M 430 170 L 430 180 L 440 180 L 440 170 L 430 170 Z M 450 170 L 450 180 L 460 180 L 460 170 L 450 170 Z M 20 180 L 20 190 L 30 190 L 30 180 L 20 180 Z M 140 180 L 140 190 L 150 190 L 150 180 L 140 180 Z M 160 180 L 160 190 L 170 190 L 170 180 L 160 180 Z M 267 180 L 267 190 L 270 190 L 270 181 L 267 180 Z M 440 180 L 440 190 L 450 190 L 450 180 L 440 180 Z M 460 180 L 460 190 L 470 190 L 470 180 L 460 180 Z M 10 190 L 10 200 L 20 200 L 20 190 L 10 190 Z M 130 190 L 130 200 L 140 200 L 140 190 L 130 190 Z M 150 190 L 150 200 L 160 200 L 160 190 L 150 190 Z M 170 190 L 170 200 L 180 200 L 180 190 L 170 190 Z M 450 190 L 450 200 L 460 200 L 460 190 L 450 190 Z M 20 200 L 20 210 L 30 210 L 30 200 L 20 200 Z M 140 200 L 140 210 L 150 210 L 150 200 L 140 200 Z M 160 200 L 160 210 L 170 210 L 170 200 L 160 200 Z M 460 200 L 460 210 L 470 210 L 470 200 L 460 200 Z M 10 210 L 10 220 L 20 220 L 20 210 L 10 210 Z M 130 210 L 130 220 L 140 220 L 140 210 L 130 210 Z M 150 210 L 150 220 L 160 220 L 160 210 L 150 210 Z M 170 210 L 170 220 L 180 220 L 180 210 L 170 210 Z M 450 210 L 450 220 L 460 220 L 460 210 L 450 210 Z M 20 220 L 20 230 L 30 230 L 30 220 L 20 220 Z M 140 220 L 140 230 L 150 230 L 150 220 L 140 220 Z M 160 220 L 160 230 L 170 230 L 170 220 L 160 220 Z M 460 220 L 460 230 L 470 230 L 470 220 L 460 220 Z M 10 230 L 10 240 L 20 240 L 20 230 L 10 230 Z M 130 230 L 130 240 L 140 240 L 140 230 L 130 230 Z M 150 230 L 150 240 L 160 240 L 160 230 L 150 230 Z M 170 230 L 170 240 L 180 240 L 180 230 L 170 230 Z M 20 240 L 20 250 L 30 250 L 30 240 L 20 240 Z M 140 240 L 140 250 L 150 250 L 150 240 L 140 240 Z M 160 240 L 160 250 L 170 250 L 170 240 L 160 240 Z M 300 240 L 300 250 L 310 250 L 310 240 L 300 240 Z M 320 240 L 320 250 L 330 250 L 330 240 L 320 240 Z M 460 240 L 460 250 L 470 250 L 470 240 L 460 240 Z M 10 250 L 10 260 L 20 260 L 20 250 L 10 250 Z M 130 250 L 130 260 L 140 260 L 140 250 L 130 250 Z M 150 250 L 150 260 L 160 260 L 160 250 L 150 250 Z M 170 250 L 170 260 L 180 260 L 180 250 L 170 250 Z M 290 250 L 290 260 L 300 260 L 300 250 L 290 250 Z M 310 250 L 310 260 L 320 260 L 320 250 L 310 250 Z M 330 250 L 330 260 L 340 260 L 340 250 L 330 250 Z M 20 260 L 20 270 L 30 270 L 30 260 L 20 260 Z M 140 260 L 140 270 L 150 270 L 150 260 L 140 260 Z M 160 260 L 160 270 L 170 270 L 170 260 L 160 260 Z M 280 260 L 280 270 L 290 270 L 290 260 L 280 260 Z M 300 260 L 300 270 L 310 270 L 310 260 L 300 260 Z M 320 260 L 320 270 L 330 270 L 330 260 L 320 260 Z M 340 260 L 340 270 L 350 270 L 350 260 L 340 260 Z M 460 260 L 460 270 L 470 270 L 470 260 L 460 260 Z M 10 270 L 10 280 L 20 280 L 20 270 L 10 270 Z M 130 270 L 130 280 L 140 280 L 140 270 L 130 270 Z M 150 270 L 150 280 L 160 280 L 160 270 L 150 270 Z M 170 270 L 170 280 L 180 280 L 180 270 L 170 270 Z M 290 270 L 290 280 L 300 280 L 300 270 L 290 270 Z M 310 270 L 310 280 L 320 280 L 320 270 L 310 270 Z M 330 270 L 330 280 L 340 280 L 340 270 L 330 270 Z M 350 270 L 350 280 L 360 280 L 360 270 L 350 270 Z M 20 280 L 20 290 L 30 290 L 30 280 L 20 280 Z M 140 280 L 140 290 L 150 290 L 150 280 L 140 280 Z M 160 280 L 160 290 L 170 290 L 170 280 L 160 280 Z M 280 280 L 280 290 L 290 290 L 290 280 L 280 280 Z M 300 280 L 300 290 L 310 290 L 310 280 L 300 280 Z M 320 280 L 320 290 L 330 290 L 330 280 L 320 280 Z M 340 280 L 340 290 L 350 290 L 350 280 L 340 280 Z M 460 280 L 460 290 L 470 290 L 470 280 L 460 280 Z M 10 290 L 10 300 L 20 300 L 20 290 L 10 290 Z M 130 290 L 130 300 L 140 300 L 140 290 L 130 290 Z M 150 290 L 150 300 L 160 300 L 160 290 L 150 290 Z M 170 290 L 170 300 L 180 300 L 180 290 L 170 290 Z M 270 290 L 270 300 L 280 300 L 280 290 L 270 290 Z M 290 290 L 290 300 L 300 300 L 300 290 L 290 290 Z M 310 290 L 310 300 L 320 300 L 320 290 L 310 290 Z M 330 290 L 330 300 L 340 300 L 340 290 L 330 290 Z M 350 290 L 350 300 L 360 300 L 360 290 L 350 290 Z M 20 300 L 20 310 L 30 310 L 30 300 L 20 300 Z M 140 300 L 140 310 L 150 310 L 150 300 L 140 300 Z M 160 300 L 160 310 L 170 310 L 170 300 L 160 300 Z M 267 300 L 267 310 L 270 310 L 270 301 L 267 300 Z M 280 300 L 280 310 L 290 310 L 290 300 L 280 300 Z M 300 300 L 300 310 L 310 310 L 310 300 L 300 300 Z M 320 300 L 320 310 L 330 310 L 330 300 L 320 300 Z M 340 300 L 340 310 L 350 310 L 350 300 L 340 300 Z M 460 300 L 460 310 L 470 310 L 470 300 L 460 300 Z M 10 310 L 10 320 L 20 320 L 20 310 L 10 310 Z M 130 310 L 130 320 L 140 320 L 140 310 L 130 310 Z M 150 310 L 150 320 L 160 320 L 160 310 L 150 310 Z M 170 310 L 170 320 L 180 320 L 180 310 L 170 310 Z M 270 310 L 270 320 L 280 320 L 280 310 L 270 310 Z M 290 310 L 290 320 L 300 320 L 300 310 L 290 310 Z M 310 310 L 310 320 L 320 320 L 320 310 L 310 310 Z M 330 310 L 330 320 L 340 320 L 340 310 L 330 310 Z M 350 310 L 350 320 L 360 320 L 360 310 L 350 310 Z M 20 320 L 20 330 L 30 330 L 30 320 L 20 320 Z M 140 320 L 140 330 L 150 330 L 150 320 L 140 320 Z M 160 320 L 160 330 L 170 330 L 170 320 L 160 320 Z M 267 320 L 267 330 L 270 330 L 270 321 L 267 320 Z M 280 320 L 280 330 L 290 330 L 290 320 L 280 320 Z M 300 320 L 300 330 L 310 330 L 310 320 L 300 320 Z M 320 320 L 320 330 L 330 330 L 330 320 L 320 320 Z M 340 320 L 340 330 L 350 330 L 350 320 L 340 320 Z M 460 320 L 460 330 L 470 330 L 470 320 L 460 320 Z M 10 330 L 10 340 L 20 340 L 20 330 L 10 330 Z M 130 330 L 130 340 L 140 340 L 140 330 L 130 330 Z M 150 330 L 150 340 L 160 340 L 160 330 L 150 330 Z M 170 330 L 170 340 L 180 340 L 180 330 L 170 330 Z M 270 330 L 270 340 L 280 340 L 280 330 L 270 330 Z M 290 330 L 290 340 L 300 340 L 300 330 L 290 330 Z M 310 330 L 310 340 L 320 340 L 320 330 L 310 330 Z M 330 330 L 330 340 L 340 340 L 340 330 L 330 330 Z M 350 330 L 350 340 L 360 340 L 360 330 L 350 330 Z M 20 340 L 20 350 L 30 350 L 30 340 L 20 340 Z M 140 340 L 140 350 L 150 350 L 150 340 L 140 340 Z M 160 340 L 160 350 L 170 350 L 170 340 L 160 340 Z M 267 340 L 267 350 L 270 350 L 270 341 L 267 340 Z M 280 340 L 280 350 L 290 350 L 290 340 L 280 340 Z M 300 340 L 300 350 L 310 350 L 310 340 L 300 340 Z M 320 340 L 320 350 L 330 350 L 330 340 L 320 340 Z M 340 340 L 340 350 L 350 350 L 350 340 L 340 340 Z M 460 340 L 460 350 L 470 350 L 470 340 L 460 340 Z M 10 350 L 10 360 L 20 360 L 20 350 L 10 350 Z M 130 350 L 130 360 L 140 360 L 140 350 L 130 350 Z M 150 350 L 150 360 L 160 360 L 160 350 L 150 350 Z M 170 350 L 170 360 L 180 360 L 180 350 L 170 350 Z M 270 350 L 270 360 L 280 360 L 280 350 L 270 350 Z M 290 350 L 290 360 L 300 360 L 300 350 L 290 350 Z M 310 350 L 310 360 L 320 360 L 320 350 L 310 350 Z M 330 350 L 330 360 L 340 360 L 340 350 L 330 350 Z M 350 350 L 350 360 L 360 360 L 360 350 L 350 350 Z M 20 360 L 20 370 L 30 370 L 30 360 L 20 360 Z M 140 360 L 140 370 L 150 370 L 150 360 L 140 360 Z M 160 360 L 160 370 L 170 370 L 170 360 L 160 360 Z M 267 360 L 267 370 L 270 370 L 270 361 L 267 360 Z M 280 360 L 280 370 L 290 370 L 290 360 L 280 360 Z M 300 360 L 300 370 L 310 370 L 310 360 L 300 360 Z M 320 360 L 320 370 L 330 370 L 330 360 L 320 360 Z M 340 360 L 340 370 L 350 370 L 350 360 L 340 360 Z M 460 360 L 460 370 L 470 370 L 470 360 L 460 360 Z M 10 370 L 10 380 L 20 380 L 20 370 L 10 370 Z M 130 370 L 130 380 L 140 380 L 140 370 L 130 370 Z M 150 370 L 150 380 L 160 380 L 160 370 L 150 370 Z M 170 370 L 170 380 L 180 380 L 180 370 L 170 370 Z M 270 370 L 270 380 L 280 380 L 280 370 L 270 370 Z M 290 370 L 290 380 L 300 380 L 300 370 L 290 370 Z M 310 370 L 310 380 L 320 380 L 320 370 L 310 370 Z M 330 370 L 330 380 L 340 380 L 340 370 L 330 370 Z M 350 370 L 350 380 L 360 380 L 360 370 L 350 370 Z M 20 380 L 20 390 L 30 390 L 30 380 L 20 380 Z M 140 380 L 140 390 L 150 390 L 150 380 L 140 380 Z M 160 380 L 160 390 L 170 390 L 170 380 L 160 380 Z M 267 380 L 267 390 L 270 390 L 270 381 L 267 380 Z M 280 380 L 280 390 L 290 390 L 290 380 L 280 380 Z M 300 380 L 300 390 L 310 390 L 310 380 L 300 380 Z M 320 380 L 320 390 L 330 390 L 330 380 L 320 380 Z M 340 380 L 340 390 L 350 390 L 350 380 L 340 380 Z M 460 380 L 460 390 L 470 390 L 470 380 L 460 380 Z M 10 390 L 10 400 L 20 400 L 20 390 L 10 390 Z M 130 390 L 130 400 L 140 400 L 140 390 L 130 390 Z M 150 390 L 150 400 L 160 400 L 160 390 L 150 390 Z M 170 390 L 170 400 L 180 400 L 180 390 L 170 390 Z M 270 390 L 270 400 L 280 400 L 280 390 L 270 390 Z M 290 390 L 290 400 L 300 400 L 300 390 L 290 390 Z M 310 390 L 310 400 L 320 400 L 320 390 L 310 390 Z M 330 390 L 330 400 L 340 400 L 340 390 L 330 390 Z M 350 390 L 350 400 L 360 400 L 360 390 L 350 390 Z M 20 400 L 20 410 L 30 410 L 30 400 L 20 400 Z M 140 400 L 140 410 L 150 410 L 150 400 L 140 400 Z M 160 400 L 160 410 L 170 410 L 170 400 L 160 400 Z M 267 400 L 267 410 L 270 410 L 270 401 L 267 400 Z M 280 400 L 280 410 L 290 410 L 290 400 L 280 400 Z M 300 400 L 300 410 L 310 410 L 310 400 L 300 400 Z M 320 400 L 320 410 L 330 410 L 330 400 L 320 400 Z M 340 400 L 340 410 L 350 410 L 350 400 L 340 400 Z M 460 400 L 460 410 L 470 410 L 470 400 L 460 400 Z M 10 410 L 10 420 L 20 420 L 20 410 L 10 410 Z M 130 410 L 130 420 L 140 420 L 140 410 L 130 410 Z M 150 410 L 150 420 L 160 420 L 160 410 L 150 410 Z M 170 410 L 170 420 L 180 420 L 180 410 L 170 410 Z M 270 410 L 270 420 L 280 420 L 280 410 L 270 410 Z M 290 410 L 290 420 L 300 420 L 300 410 L 290 410 Z M 310 410 L 310 420 L 320 420 L 320 410 L 310 410 Z M 330 410 L 330 420 L 340 420 L 340 410 L 330 410 Z M 350 410 L 350 420 L 360 420 L 360 410 L 350 410 Z M 20 420 L 20 430 L 30 430 L 30 420 L 20 420 Z M 140 420 L 140 430 L 150 430 L 150 420 L 140 420 Z M 160 420 L 160 430 L 170 430 L 170 420 L 160 420 Z M 267 420 L 267 430 L 270 430 L 270 421 L 267 420 Z M 280 420 L 280 430 L 290 430 L 290 420 L 280 420 Z M 300 420 L 300 430 L 310 430 L 310 420 L 300 420 Z M 320 420 L 320 430 L 330 430 L 330 420 L 320 420 Z M 340 420 L 340 430 L 350 430 L 350 420 L 340 420 Z M 460 420 L 460 430 L 470 430 L 470 420 L 460 420 Z M 10 430 L 10 440 L 20 440 L 20 430 L 10 430 Z M 130 430 L 130 440 L 140 440 L 140 430 L 130 430 Z M 150 430 L 150 440 L 160 440 L 160 430 L 150 430 Z M 170 430 L 170 440 L 180 440 L 180 430 L 170 430 Z M 270 430 L 270 440 L 280 440 L 280 430 L 270 430 Z M 290 430 L 290 440 L 300 440 L 300 430 L 290 430 Z M 310 430 L 310 440 L 320 440 L 320 430 L 310 430 Z M 330 430 L 330 440 L 340 440 L 340 430 L 330 430 Z M 350 430 L 350 440 L 360 440 L 360 430 L 350 430 Z M 20 440 L 20 450 L 30 450 L 30 440 L 20 440 Z M 140 440 L 140 450 L 150 450 L 150 440 L 140 440 Z M 160 440 L 160 450 L 170 450 L 170 440 L 160 440 Z M 267 440 L 267 442 Q 265 445 260 443 L 260 450 L 270 450 L 270 441 L 267 440 Z M 280 440 L 280 450 L 290 450 L 290 440 L 280 440 Z M 300 440 L 300 450 L 310 450 L 310 440 L 300 440 Z M 320 440 L 320 450 L 330 450 L 330 440 L 320 440 Z M 340 440 L 340 450 L 350 450 L 350 440 L 340 440 Z M 460 440 L 460 450 L 470 450 L 470 440 L 460 440 Z M 40 443 L 40 450 L 50 450 L 50 443 L 40 443 Z M 60 443 L 60 450 L 70 450 L 70 443 L 60 443 Z M 80 443 L 80 450 L 90 450 L 90 443 L 80 443 Z M 100 443 L 100 450 L 110 450 L 110 443 L 100 443 Z M 200 443 L 200 450 L 210 450 L 210 443 L 200 443 Z M 220 443 L 220 450 L 230 450 L 230 443 L 220 443 Z M 240 443 L 240 450 L 250 450 L 250 443 L 240 443 Z M 380 443 L 380 450 L 390 450 L 390 443 L 380 443 Z M 400 443 L 400 450 L 410 450 L 410 443 L 400 443 Z M 420 443 L 420 450 L 430 450 L 430 443 L 420 443 Z M 440 443 L 440 450 L 450 450 L 450 443 L 440 443 Z M 10 450 L 10 460 L 20 460 L 20 450 L 10 450 Z M 30 450 L 30 460 L 40 460 L 40 450 L 30 450 Z M 50 450 L 50 460 L 60 460 L 60 450 L 50 450 Z M 70 450 L 70 460 L 80 460 L 80 450 L 70 450 Z M 90 450 L 90 460 L 100 460 L 100 450 L 90 450 Z M 110 450 L 110 460 L 120 460 L 120 450 L 110 450 Z M 130 450 L 130 460 L 140 460 L 140 450 L 130 450 Z M 150 450 L 150 460 L 160 460 L 160 450 L 150 450 Z M 170 450 L 170 460 L 180 460 L 180 450 L 170 450 Z M 190 450 L 190 460 L 200 460 L 200 450 L 190 450 Z M 210 450 L 210 460 L 220 460 L 220 450 L 210 450 Z M 230 450 L 230 460 L 240 460 L 240 450 L 230 450 Z M 250 450 L 250 460 L 260 460 L 260 450 L 250 450 Z M 270 450 L 270 460 L 280 460 L 280 450 L 270 450 Z M 290 450 L 290 460 L 300 460 L 300 450 L 290 450 Z M 310 450 L 310 460 L 320 460 L 320 450 L 310 450 Z M 330 450 L 330 460 L 340 460 L 340 450 L 330 450 Z M 350 450 L 350 460 L 360 460 L 360 450 L 350 450 Z M 370 450 L 370 460 L 380 460 L 380 450 L 370 450 Z M 390 450 L 390 460 L 400 460 L 400 450 L 390 450 Z M 410 450 L 410 460 L 420 460 L 420 450 L 410 450 Z M 430 450 L 430 460 L 440 460 L 440 450 L 430 450 Z M 450 450 L 450 460 L 460 460 L 460 450 L 450 450 Z M 20 460 L 20 470 L 30 470 L 30 460 L 20 460 Z M 40 460 L 40 470 L 50 470 L 50 460 L 40 460 Z M 60 460 L 60 470 L 70 470 L 70 460 L 60 460 Z M 80 460 L 80 470 L 90 470 L 90 460 L 80 460 Z M 100 460 L 100 470 L 110 470 L 110 460 L 100 460 Z M 120 460 L 120 470 L 130 470 L 130 460 L 120 460 Z M 140 460 L 140 470 L 150 470 L 150 460 L 140 460 Z M 160 460 L 160 470 L 170 470 L 170 460 L 160 460 Z M 180 460 L 180 470 L 190 470 L 190 460 L 180 460 Z M 200 460 L 200 470 L 210 470 L 210 460 L 200 460 Z M 220 460 L 220 470 L 230 470 L 230 460 L 220 460 Z M 240 460 L 240 470 L 250 470 L 250 460 L 240 460 Z M 260 460 L 260 470 L 270 470 L 270 460 L 260 460 Z M 280 460 L 280 470 L 290 470 L 290 460 L 280 460 Z M 300 460 L 300 470 L 310 470 L 310 460 L 300 460 Z M 320 460 L 320 470 L 330 470 L 330 460 L 320 460 Z M 340 460 L 340 470 L 350 470 L 350 460 L 340 460 Z M 360 460 L 360 470 L 370 470 L 370 460 L 360 460 Z M 380 460 L 380 470 L 390 470 L 390 460 L 380 460 Z M 400 460 L 400 470 L 410 470 L 410 460 L 400 460 Z M 420 460 L 420 470 L 430 470 L 430 460 L 420 460 Z M 440 460 L 440 470 L 450 470 L 450 460 L 440 460 Z M 460 460 L 460 470 L 470 470 L 470 460 L 460 460 Z " /><path fill="rgb(245,245,245)" stroke="rgb(245,245,245)" stroke-width="1" opacity="1" d="M 122.5 44 L 123.5 46 L 122.5 44 Z " /><path fill="rgb(255,255,255)" stroke="rgb(255,255,255)" stroke-width="1" opacity="1" d="M 0 0 L 10 0 L 10 10 L 20 10 L 20 0 L 30 0 L 30 10 L 40 10 L 40 0 L 50 0 L 50 10 L 60 10 L 60 0 L 70 0 L 70 10 L 80 10 L 80 0 L 90 0 L 90 10 L 100 10 L 100 0 L 110 0 L 110 10 L 120 10 L 120 0 L 130 0 L 130 10 L 140 10 L 140 0 L 150 0 L 150 10 L 160 10 L 160 0 L 170 0 L 170 10 L 180 10 L 180 0 L 190 0 L 190 10 L 200 10 L 200 0 L 210 0 L 210 10 L 220 10 L 220 0 L 230 0 L 230 10 L 240 10 L 240 0 L 250 0 L 250 10 L 260 10 L 260 0 L 270 0 L 270 10 L 280 10 L 280 0 L 290 0 L 290 10 L 300 10 L 300 0 L 310 0 L 310 10 L 320 10 L 320 0 L 330 0 L 330 10 L 340 10 L 340 0 L 350 0 L 350 10 L 360 10 L 360 0 L 370 0 L 370 10 L 380 10 L 380 0 L 390 0 L 390 10 L 400 10 L 400 0 L 410 0 L 410 10 L 420 10 L 420 0 L 430 0 L 430 10 L 440 10 L 440 0 L 450 0 L 450 10 L 460 10 L 460 0 L 470 0 L 470 10 L 480 10 L 480 20 L 470 20 L 470 30 L 480 30 L 480 40 L 470 40 L 470 50 L 480 50 L 480 60 L 470 60 L 470 70 L 480 70 L 480 80 L 470 80 L 470 90 L 480 90 L 480 100 L 470 100 L 470 110 L 480 110 L 480 120 L 470 120 L 470 130 L 480 130 L 480 140 L 470 140 L 470 150 L 480 150 L 480 160 L 470 160 L 470 170 L 480 170 L 480 180 L 470 180 L 470 190 L 480 190 L 480 200 L 470 200 L 470 210 L 480 210 L 480 220 L 470 220 L 470 230 L 480 230 L 480 240 L 470 240 L 470 250 L 480 250 L 480 260 L 470 260 L 470 270 L 480 270 L 480 280 L 470 280 L 470 290 L 480 290 L 480 300 L 470 300 L 470 310 L 480 310 L 480 320 L 470 320 L 470 330 L 480 330 L 480 340 L 470 340 L 470 350 L 480 350 L 480 360 L 470 360 L 470 370 L 480 370 L 480 380 L 470 380 L 470 390 L 480 390 L 480 400 L 470 400 L 470 410 L 480 410 L 480 420 L 470 420 L 470 430 L 480 430 L 480 440 L 470 440 L 470 450 L 480 450 L 480 460 L 470 460 L 470 470 L 480 470 L 480 480 L 470 480 L 470 470 L 460 470 L 460 480 L 450 480 L 450 470 L 440 470 L 440 480 L 430 480 L 430 470 L 420 470 L 420 480 L 410 480 L 410 470 L 400 470 L 400 480 L 390 480 L 390 470 L 380 470 L 380 480 L 370 480 L 370 470 L 360 470 L 360 480 L 350 480 L 350 470 L 340 470 L 340 480 L 330 480 L 330 470 L 320 470 L 320 480 L 310 480 L 310 470 L 300 470 L 300 480 L 290 480 L 290 470 L 280 470 L 280 480 L 270 480 L 270 470 L 260 470 L 260 480 L 250 480 L 250 470 L 240 470 L 240 480 L 230 480 L 230 470 L 220 470 L 220 480 L 210 480 L 210 470 L 200 470 L 200 480 L 190 480 L 190 470 L 180 470 L 180 480 L 170 480 L 170 470 L 160 470 L 160 480 L 150 480 L 150 470 L 140 470 L 140 480 L 130 480 L 130 470 L 120 470 L 120 480 L 110 480 L 110 470 L 100 470 L 100 480 L 90 480 L 90 470 L 80 470 L 80 480 L 70 480 L 70 470 L 60 470 L 60 480 L 50 480 L 50 470 L 40 470 L 40 480 L 30 480 L 30 470 L 20 470 L 20 480 L 10 480 L 10 470 L 0 470 L 0 460 L 10 460 L 10 450 L 0 450 L 0 440 L 10 440 L 10 430 L 0 430 L 0 420 L 10 420 L 10 410 L 0 410 L 0 400 L 10 400 L 10 390 L 0 390 L 0 380 L 10 380 L 10 370 L 0 370 L 0 360 L 10 360 L 10 350 L 0 350 L 0 340 L 10 340 L 10 330 L 0 330 L 0 320 L 10 320 L 10 310 L 0 310 L 0 300 L 10 300 L 10 290 L 0 290 L 0 280 L 10 280 L 10 270 L 0 270 L 0 260 L 10 260 L 10 250 L 0 250 L 0 240 L 10 240 L 10 230 L 0 230 L 0 220 L 10 220 L 10 210 L 0 210 L 0 200 L 10 200 L 10 190 L 0 190 L 0 180 L 10 180 L 10 170 L 0 170 L 0 160 L 10 160 L 10 150 L 0 150 L 0 140 L 10 140 L 10 130 L 0 130 L 0 120 L 10 120 L 10 110 L 0 110 L 0 100 L 10 100 L 10 90 L 0 90 L 0 80 L 10 80 L 10 70 L 0 70 L 0 60 L 10 60 L 10 50 L 0 50 L 0 40 L 10 40 L 10 30 L 0 30 L 0 20 L 10 20 L 10 10 L 0 10 L 0 0 Z M 20 10 L 20 20 L 30 20 L 30 10 L 20 10 Z M 40 10 L 40 20 L 50 20 L 50 10 L 40 10 Z M 60 10 L 60 20 L 70 20 L 70 10 L 60 10 Z M 80 10 L 80 20 L 90 20 L 90 10 L 80 10 Z M 100 10 L 100 20 L 110 20 L 110 10 L 100 10 Z M 120 10 L 120 20 L 130 20 L 130 10 L 120 10 Z M 140 10 L 140 20 L 150 20 L 150 10 L 140 10 Z M 160 10 L 160 20 L 170 20 L 170 10 L 160 10 Z M 180 10 L 180 20 L 190 20 L 190 10 L 180 10 Z M 200 10 L 200 20 L 210 20 L 210 10 L 200 10 Z M 220 10 L 220 20 L 230 20 L 230 10 L 220 10 Z M 240 10 L 240 20 L 250 20 L 250 10 L 240 10 Z M 260 10 L 260 20 L 270 20 L 270 10 L 260 10 Z M 280 10 L 280 20 L 290 20 L 290 10 L 280 10 Z M 300 10 L 300 20 L 310 20 L 310 10 L 300 10 Z M 320 10 L 320 20 L 330 20 L 330 10 L 320 10 Z M 340 10 L 340 20 L 350 20 L 350 10 L 340 10 Z M 360 10 L 360 20 L 370 20 L 370 10 L 360 10 Z M 380 10 L 380 20 L 390 20 L 390 10 L 380 10 Z M 400 10 L 400 20 L 410 20 L 410 10 L 400 10 Z M 420 10 L 420 20 L 430 20 L 430 10 L 420 10 Z M 440 10 L 440 20 L 450 20 L 450 10 L 440 10 Z M 460 10 L 460 20 L 470 20 L 470 10 L 460 10 Z M 10 20 L 10 30 L 20 30 L 20 20 L 10 20 Z M 30 20 L 30 30 L 40 30 L 40 20 L 30 20 Z M 50 20 L 50 30 L 60 30 L 60 20 L 50 20 Z M 70 20 L 70 27 Q 59 29 51 36 L 50 30 L 40 30 L 40 40 L 45 41 L 43 44 L 40 46 L 40 40 L 30 40 L 30 50 L 37 50 L 33 60 L 30 61 L 30 70 L 20 70 L 20 80 L 30 80 L 30 90 L 32 90 L 35 99 L 35 100 L 30 100 L 30 110 L 40 110 L 40 109 L 41 109 L 40 111 L 40 120 L 50 120 L 52 119 L 52 120 L 50 121 L 50 130 L 60 130 L 60 125 L 69 127 L 70 130 L 80 130 L 81 129 L 90 129 L 91 130 L 100 130 L 100 126 L 109 122 L 110 123 L 110 130 L 120 130 L 120 120 L 113 120 L 120 114 L 120 120 L 130 120 L 130 110 L 123 110 Q 130 103 133 92 L 134 90 L 140 90 L 140 80 L 135 80 L 134 75 L 134 70 L 140 70 L 140 60 L 133 60 L 130 57 L 130 50 L 126 50 L 120 40 L 112 34 L 110 34 L 110 30 L 103 30 L 102 29 L 100 29 L 100 20 L 90 20 L 90 26 L 80 26 L 80 21 L 80 20 L 70 20 Z M 110 20 L 110 30 L 120 30 L 120 20 L 110 20 Z M 130 20 L 130 30 L 140 30 L 140 20 L 130 20 Z M 150 20 L 150 30 L 160 30 L 160 20 L 150 20 Z M 170 20 L 170 30 L 180 30 L 180 20 L 170 20 Z M 190 20 L 190 30 L 200 30 L 200 20 L 190 20 Z M 210 20 L 210 30 L 220 30 L 220 20 L 210 20 Z M 230 20 L 230 30 L 240 30 L 240 20 L 230 20 Z M 250 20 L 250 30 L 260 30 L 260 20 L 250 20 Z M 270 20 L 270 30 L 280 30 L 280 20 L 270 20 Z M 290 20 L 290 30 L 300 30 L 300 20 L 290 20 Z M 310 20 L 310 30 L 320 30 L 320 20 L 310 20 Z M 330 20 L 330 30 L 340 30 L 340 20 L 330 20 Z M 350 20 L 350 30 L 360 30 L 360 20 L 350 20 Z M 370 20 L 370 30 L 380 30 L 380 20 L 370 20 Z M 390 20 L 390 30 L 400 30 L 400 20 L 390 20 Z M 410 20 L 410 30 L 420 30 L 420 20 L 410 20 Z M 430 20 L 430 30 L 440 30 L 440 20 L 430 20 Z M 450 20 L 450 30 L 460 30 L 460 20 L 450 20 Z M 20 30 L 20 40 L 30 40 L 30 30 L 20 30 Z M 120 30 L 120 40 L 130 40 L 130 30 L 120 30 Z M 140 30 L 140 40 L 150 40 L 150 30 L 140 30 Z M 160 30 L 160 40 L 170 40 L 170 30 L 160 30 Z M 180 30 L 180 40 L 190 40 L 190 30 L 180 30 Z M 200 30 L 200 40 L 210 40 L 210 30 L 200 30 Z M 220 30 L 220 40 L 230 40 L 230 30 L 220 30 Z M 240 30 L 240 40 L 250 40 L 250 30 L 240 30 Z M 260 30 L 260 40 L 270 40 L 270 30 L 260 30 Z M 280 30 L 280 40 L 290 40 L 290 30 L 280 30 Z M 300 30 L 300 40 L 310 40 L 310 30 L 300 30 Z M 320 30 L 320 40 L 330 40 L 330 30 L 320 30 Z M 340 30 L 340 40 L 350 40 L 350 30 L 340 30 Z M 360 30 L 360 40 L 370 40 L 370 30 L 360 30 Z M 380 30 L 380 40 L 390 40 L 390 30 L 380 30 Z M 400 30 L 400 40 L 410 40 L 410 30 L 400 30 Z M 420 30 L 420 40 L 430 40 L 430 30 L 420 30 Z M 440 30 L 440 40 L 450 40 L 450 30 L 440 30 Z M 460 30 L 460 40 L 470 40 L 470 30 L 460 30 Z M 10 40 L 10 50 L 20 50 L 20 40 L 10 40 Z M 130 40 L 130 50 L 140 50 L 140 40 L 130 40 Z M 150 40 L 150 50 L 160 50 L 160 40 L 150 40 Z M 170 40 L 170 50 L 180 50 L 180 40 L 170 40 Z M 190 40 L 190 50 L 200 50 L 200 40 L 190 40 Z M 210 40 L 210 50 L 220 50 L 220 40 L 210 40 Z M 230 40 L 230 50 L 240 50 L 240 40 L 230 40 Z M 250 40 L 250 50 L 260 50 L 260 40 L 250 40 Z M 270 40 L 270 50 L 280 50 L 280 40 L 270 40 Z M 290 40 L 290 50 L 300 50 L 300 40 L 290 40 Z M 310 40 L 310 50 L 320 50 L 320 40 L 310 40 Z M 330 40 L 330 50 L 340 50 L 340 40 L 330 40 Z M 350 40 L 350 50 L 360 50 L 360 40 L 350 40 Z M 370 40 L 370 50 L 380 50 L 380 40 L 370 40 Z M 390 40 L 390 50 L 400 50 L 400 40 L 390 40 Z M 410 40 L 410 50 L 420 50 L 420 40 L 410 40 Z M 430 40 L 430 50 L 440 50 L 440 40 L 430 40 Z M 450 40 L 450 50 L 460 50 L 460 40 L 450 40 Z M 20 50 L 20 60 L 30 60 L 30 50 L 20 50 Z M 140 50 L 140 60 L 150 60 L 150 50 L 140 50 Z M 160 50 L 160 60 L 170 60 L 170 50 L 160 50 Z M 180 50 L 180 60 L 190 60 L 190 50 L 180 50 Z M 200 50 L 200 60 L 210 60 L 210 50 L 200 50 Z M 220 50 L 220 60 L 230 60 L 230 50 L 220 50 Z M 240 50 L 240 60 L 250 60 L 250 50 L 240 50 Z M 260 50 L 260 60 L 270 60 L 270 50 L 260 50 Z M 280 50 L 280 60 L 290 60 L 290 50 L 280 50 Z M 300 50 L 300 60 L 310 60 L 310 50 L 300 50 Z M 320 50 L 320 60 L 330 60 L 330 50 L 320 50 Z M 340 50 L 340 60 L 350 60 L 350 50 L 340 50 Z M 360 50 L 360 60 L 370 60 L 370 50 L 360 50 Z M 380 50 L 380 60 L 390 60 L 390 50 L 380 50 Z M 400 50 L 400 60 L 410 60 L 410 50 L 400 50 Z M 420 50 L 420 60 L 430 60 L 430 50 L 420 50 Z M 440 50 L 440 60 L 450 60 L 450 50 L 440 50 Z M 460 50 L 460 60 L 470 60 L 470 50 L 460 50 Z M 10 60 L 10 70 L 20 70 L 20 60 L 10 60 Z M 150 60 L 150 70 L 160 70 L 160 60 L 150 60 Z M 170 60 L 170 70 L 180 70 L 180 60 L 170 60 Z M 190 60 L 190 70 L 200 70 L 200 60 L 190 60 Z M 210 60 L 210 70 L 220 70 L 220 60 L 210 60 Z M 230 60 L 230 70 L 240 70 L 240 60 L 230 60 Z M 250 60 L 250 70 L 260 70 L 260 60 L 250 60 Z M 270 60 L 270 70 L 280 70 L 280 60 L 270 60 Z M 290 60 L 290 70 L 300 70 L 300 60 L 290 60 Z M 310 60 L 310 70 L 320 70 L 320 60 L 310 60 Z M 330 60 L 330 70 L 340 70 L 340 60 L 330 60 Z M 350 60 L 350 70 L 360 70 L 360 60 L 350 60 Z M 370 60 L 370 70 L 380 70 L 380 60 L 370 60 Z M 390 60 L 390 70 L 400 70 L 400 60 L 390 60 Z M 410 60 L 410 70 L 420 70 L 420 60 L 410 60 Z M 430 60 L 430 70 L 440 70 L 440 60 L 430 60 Z M 450 60 L 450 70 L 460 70 L 460 60 L 450 60 Z M 140 70 L 140 80 L 150 80 L 150 70 L 140 70 Z M 160 70 L 160 80 L 170 80 L 170 70 L 160 70 Z M 180 70 L 180 80 L 190 80 L 190 70 L 180 70 Z M 200 70 L 200 80 L 210 80 L 210 70 L 200 70 Z M 220 70 L 220 80 L 230 80 L 230 70 L 220 70 Z M 240 70 L 240 80 L 250 80 L 250 70 L 240 70 Z M 260 70 L 260 80 L 270 80 L 270 70 L 260 70 Z M 280 70 L 280 80 L 290 80 L 290 70 L 280 70 Z M 300 70 L 300 80 L 310 80 L 310 70 L 300 70 Z M 320 70 L 320 80 L 330 80 L 330 70 L 320 70 Z M 340 70 L 340 80 L 350 80 L 350 70 L 340 70 Z M 360 70 L 360 80 L 370 80 L 370 70 L 360 70 Z M 380 70 L 380 80 L 390 80 L 390 70 L 380 70 Z M 400 70 L 400 80 L 410 80 L 410 70 L 400 70 Z M 420 70 L 420 80 L 430 80 L 430 70 L 420 70 Z M 440 70 L 440 80 L 450 80 L 450 70 L 440 70 Z M 460 70 L 460 80 L 470 80 L 470 70 L 460 70 Z M 10 80 L 10 90 L 20 90 L 20 80 L 10 80 Z M 150 80 L 150 90 L 160 90 L 160 80 L 150 80 Z M 170 80 L 170 90 L 180 90 L 180 80 L 170 80 Z M 190 80 L 190 90 L 200 90 L 200 80 L 190 80 Z M 210 80 L 210 90 L 220 90 L 220 80 L 210 80 Z M 230 80 L 230 90 L 240 90 L 240 80 L 230 80 Z M 250 80 L 250 90 L 260 90 L 260 80 L 250 80 Z M 270 80 L 270 90 L 280 90 L 280 80 L 270 80 Z M 290 80 L 290 90 L 300 90 L 300 80 L 290 80 Z M 310 80 L 310 90 L 320 90 L 320 80 L 310 80 Z M 330 80 L 330 90 L 340 90 L 340 80 L 330 80 Z M 350 80 L 350 90 L 360 90 L 360 80 L 350 80 Z M 370 80 L 370 90 L 380 90 L 380 80 L 370 80 Z M 390 80 L 390 90 L 400 90 L 400 80 L 390 80 Z M 410 80 L 410 90 L 420 90 L 420 80 L 410 80 Z M 430 80 L 430 90 L 440 90 L 440 80 L 430 80 Z M 450 80 L 450 90 L 460 90 L 460 80 L 450 80 Z M 20 90 L 20 100 L 30 100 L 30 90 L 20 90 Z M 140 90 L 140 100 L 150 100 L 150 90 L 140 90 Z M 160 90 L 160 100 L 170 100 L 170 90 L 160 90 Z M 180 90 L 180 100 L 190 100 L 190 90 L 180 90 Z M 200 90 L 200 100 L 210 100 L 210 90 L 200 90 Z M 220 90 L 220 100 L 230 100 L 230 90 L 220 90 Z M 240 90 L 240 100 L 250 100 L 250 90 L 240 90 Z M 260 90 L 260 100 L 270 100 L 270 90 L 260 90 Z M 280 90 L 280 100 L 290 100 L 290 90 L 280 90 Z M 300 90 L 300 100 L 310 100 L 310 90 L 300 90 Z M 320 90 L 320 100 L 330 100 L 330 90 L 320 90 Z M 340 90 L 340 100 L 350 100 L 350 90 L 340 90 Z M 360 90 L 360 100 L 370 100 L 370 90 L 360 90 Z M 380 90 L 380 100 L 390 100 L 390 90 L 380 90 Z M 400 90 L 400 100 L 410 100 L 410 90 L 400 90 Z M 420 90 L 420 100 L 430 100 L 430 90 L 420 90 Z M 440 90 L 440 100 L 450 100 L 450 90 L 440 90 Z M 460 90 L 460 100 L 470 100 L 470 90 L 460 90 Z M 10 100 L 10 110 L 20 110 L 20 100 L 10 100 Z M 130 100 L 130 110 L 140 110 L 140 100 L 130 100 Z M 150 100 L 150 110 L 160 110 L 160 100 L 150 100 Z M 170 100 L 170 110 L 180 110 L 180 100 L 170 100 Z M 190 100 L 190 110 L 200 110 L 200 100 L 190 100 Z M 210 100 L 210 110 L 220 110 L 220 100 L 210 100 Z M 230 100 L 230 110 L 240 110 L 240 100 L 230 100 Z M 250 100 L 250 110 L 260 110 L 260 100 L 250 100 Z M 270 100 L 270 110 L 280 110 L 280 100 L 270 100 Z M 290 100 L 290 110 L 300 110 L 300 100 L 290 100 Z M 310 100 L 310 110 L 320 110 L 320 100 L 310 100 Z M 330 100 L 330 110 L 340 110 L 340 100 L 330 100 Z M 350 100 L 350 110 L 360 110 L 360 100 L 350 100 Z M 370 100 L 370 110 L 380 110 L 380 100 L 370 100 Z M 390 100 L 390 110 L 400 110 L 400 100 L 390 100 Z M 410 100 L 410 110 L 420 110 L 420 100 L 410 100 Z M 430 100 L 430 110 L 440 110 L 440 100 L 430 100 Z M 450 100 L 450 110 L 460 110 L 460 100 L 450 100 Z M 20 110 L 20 120 L 30 120 L 30 110 L 20 110 Z M 140 110 L 140 120 L 150 120 L 150 110 L 140 110 Z M 160 110 L 160 120 L 170 120 L 170 110 L 160 110 Z M 180 110 L 180 120 L 190 120 L 190 110 L 180 110 Z M 200 110 L 200 120 L 210 120 L 210 110 L 200 110 Z M 220 110 L 220 120 L 230 120 L 230 110 L 220 110 Z M 240 110 L 240 120 L 250 120 L 250 110 L 240 110 Z M 260 110 L 260 120 L 270 120 L 270 110 L 260 110 Z M 280 110 L 280 120 L 290 120 L 290 110 L 280 110 Z M 300 110 L 300 120 L 310 120 L 310 110 L 300 110 Z M 320 110 L 320 120 L 330 120 L 330 110 L 320 110 Z M 340 110 L 340 120 L 350 120 L 350 110 L 340 110 Z M 360 110 L 360 120 L 370 120 L 370 110 L 360 110 Z M 380 110 L 380 120 L 390 120 L 390 110 L 380 110 Z M 400 110 L 400 120 L 410 120 L 410 110 L 400 110 Z M 420 110 L 420 120 L 430 120 L 430 110 L 420 110 Z M 440 110 L 440 120 L 450 120 L 450 110 L 440 110 Z M 460 110 L 460 120 L 470 120 L 470 110 L 460 110 Z M 10 120 L 10 130 L 20 130 L 20 120 L 10 120 Z M 30 120 L 30 130 L 40 130 L 40 120 L 30 120 Z M 130 120 L 130 130 L 140 130 L 140 120 L 130 120 Z M 150 120 L 150 130 L 160 130 L 160 120 L 150 120 Z M 170 120 L 170 130 L 180 130 L 180 120 L 170 120 Z M 190 120 L 190 130 L 200 130 L 200 120 L 190 120 Z M 210 120 L 210 130 L 220 130 L 220 120 L 210 120 Z M 230 120 L 230 130 L 240 130 L 240 120 L 230 120 Z M 250 120 L 250 130 L 260 130 L 260 120 L 250 120 Z M 270 120 L 270 130 L 280 130 L 280 120 L 270 120 Z M 290 120 L 290 130 L 300 130 L 300 120 L 290 120 Z M 310 120 L 310 130 L 320 130 L 320 120 L 310 120 Z M 330 120 L 330 130 L 340 130 L 340 120 L 330 120 Z M 350 120 L 350 130 L 360 130 L 360 120 L 350 120 Z M 370 120 L 370 130 L 380 130 L 380 120 L 370 120 Z M 390 120 L 390 130 L 400 130 L 400 120 L 390 120 Z M 410 120 L 410 130 L 420 130 L 420 120 L 410 120 Z M 430 120 L 430 130 L 440 130 L 440 120 L 430 120 Z M 450 120 L 450 130 L 460 130 L 460 120 L 450 120 Z M 20 130 L 20 140 L 30 140 L 30 130 L 20 130 Z M 40 130 L 40 140 L 50 140 L 50 130 L 40 130 Z M 60 130 L 60 140 L 70 140 L 70 130 L 60 130 Z M 80 130 L 80 140 L 90 140 L 90 130 L 80 130 Z M 100 130 L 100 140 L 110 140 L 110 130 L 100 130 Z M 120 130 L 120 140 L 130 140 L 130 130 L 120 130 Z M 140 130 L 140 140 L 150 140 L 150 130 L 140 130 Z M 160 130 L 160 140 L 170 140 L 170 130 L 160 130 Z M 180 130 L 180 140 L 190 140 L 190 130 L 180 130 Z M 200 130 L 200 140 L 210 140 L 210 130 L 200 130 Z M 220 130 L 220 140 L 230 140 L 230 130 L 220 130 Z M 240 130 L 240 140 L 250 140 L 250 130 L 240 130 Z M 260 130 L 260 140 L 270 140 L 270 130 L 260 130 Z M 280 130 L 280 140 L 290 140 L 290 130 L 280 130 Z M 300 130 L 300 140 L 310 140 L 310 130 L 300 130 Z M 320 130 L 320 140 L 330 140 L 330 130 L 320 130 Z M 340 130 L 340 140 L 350 140 L 350 130 L 340 130 Z M 360 130 L 360 140 L 370 140 L 370 130 L 360 130 Z M 380 130 L 380 140 L 390 140 L 390 130 L 380 130 Z M 400 130 L 400 140 L 410 140 L 410 130 L 400 130 Z M 420 130 L 420 140 L 430 140 L 430 130 L 420 130 Z M 440 130 L 440 140 L 450 140 L 450 130 L 440 130 Z M 460 130 L 460 140 L 470 140 L 470 130 L 460 130 Z M 10 140 L 10 150 L 20 150 L 20 140 L 10 140 Z M 30 140 L 30 150 L 40 150 L 40 140 L 30 140 Z M 50 140 L 50 150 L 60 150 L 60 140 L 50 140 Z M 70 140 L 70 150 L 80 150 L 80 140 L 70 140 Z M 90 140 L 90 150 L 100 150 L 100 140 L 90 140 Z M 110 140 L 110 150 L 120 150 L 120 140 L 110 140 Z M 130 140 L 130 150 L 140 150 L 140 140 L 130 140 Z M 150 140 L 150 150 L 160 150 L 160 140 L 150 140 Z M 170 140 L 170 150 L 180 150 L 180 140 L 170 140 Z M 190 140 L 190 150 L 200 150 L 200 140 L 190 140 Z M 210 140 L 210 150 L 220 150 L 220 140 L 210 140 Z M 230 140 L 230 150 L 240 150 L 240 140 L 230 140 Z M 250 140 L 250 150 L 260 150 L 260 140 L 250 140 Z M 270 140 L 270 150 L 280 150 L 280 140 L 270 140 Z M 290 140 L 290 150 L 300 150 L 300 140 L 290 140 Z M 310 140 L 310 150 L 320 150 L 320 140 L 310 140 Z M 330 140 L 330 150 L 340 150 L 340 140 L 330 140 Z M 350 140 L 350 150 L 360 150 L 360 140 L 350 140 Z M 370 140 L 370 150 L 380 150 L 380 140 L 370 140 Z M 390 140 L 390 150 L 400 150 L 400 140 L 390 140 Z M 410 140 L 410 150 L 420 150 L 420 140 L 410 140 Z M 430 140 L 430 150 L 440 150 L 440 140 L 430 140 Z M 450 140 L 450 150 L 460 150 L 460 140 L 450 140 Z M 20 150 L 20 160 L 30 160 L 30 150 L 20 150 Z M 40 150 L 40 160 L 50 160 L 50 150 L 40 150 Z M 60 150 L 60 160 L 70 160 L 70 150 L 60 150 Z M 80 150 L 80 160 L 90 160 L 90 150 L 80 150 Z M 100 150 L 100 160 L 110 160 L 110 150 L 100 150 Z M 120 150 L 120 160 L 130 160 L 130 150 L 120 150 Z M 140 150 L 140 160 L 150 160 L 150 150 L 140 150 Z M 160 150 L 160 160 L 170 160 L 170 150 L 160 150 Z M 180 150 L 180 160 L 190 160 L 190 150 L 180 150 Z M 200 150 L 200 160 L 210 160 L 210 150 L 200 150 Z M 220 150 L 220 160 L 230 160 L 230 150 L 220 150 Z M 240 150 L 240 160 L 250 160 L 250 150 L 240 150 Z M 260 150 L 260 160 L 270 160 L 270 150 L 260 150 Z M 280 150 L 280 160 L 290 160 L 290 150 L 280 150 Z M 300 150 L 300 160 L 310 160 L 310 150 L 300 150 Z M 320 150 L 320 160 L 310 160 L 310 164 L 302 168 L 300 168 L 300 160 L 290 160 L 290 170 L 297 171 L 293 173 L 290 175 L 290 170 L 280 170 L 280 180 L 283 180 L 281 183 L 280 180 L 270 180 L 270 190 L 274 191 L 270 194 Q 272 188 267 190 L 267 181 L 270 180 L 270 170 L 267 170 L 267 164 L 260 164 L 260 160 L 250 160 L 250 164 L 240 164 L 240 160 L 230 160 L 230 164 L 220 164 L 220 160 L 210 160 L 210 164 L 200 164 L 200 160 L 191 160 L 190 164 L 182 164 L 182 170 L 180 170 L 180 180 L 182 180 L 182 190 L 180 190 L 180 200 L 182 200 L 182 210 L 180 210 L 180 220 L 182 220 L 182 230 L 180 230 L 180 240 L 182 240 L 182 250 L 180 250 L 180 260 L 182 260 L 182 270 L 180 270 L 180 280 L 182 280 L 182 290 L 180 290 L 180 300 L 182 300 L 182 310 L 180 310 L 180 320 L 182 320 L 182 330 L 180 330 L 180 340 L 182 340 L 182 350 L 180 350 L 180 360 L 182 360 L 182 370 L 180 370 L 180 380 L 182 380 L 182 390 L 180 390 L 180 400 L 182 400 L 182 410 L 180 410 L 180 420 L 182 420 L 182 430 L 180 430 L 180 440 L 182 440 L 183 443 L 190 443 L 190 450 L 200 450 L 200 443 L 210 443 L 210 450 L 220 450 L 220 443 L 230 443 L 230 450 L 240 450 L 240 443 L 250 443 L 250 450 L 260 450 L 260 443 Q 265 444 267 442 Q 266 439 270 440 L 270 431 L 267 430 L 267 421 L 270 420 L 270 411 L 267 410 L 267 401 L 270 400 L 270 391 L 267 390 L 267 381 L 270 380 L 270 371 L 267 370 L 267 361 L 270 360 L 270 351 L 267 350 L 267 341 L 270 340 L 270 331 L 267 330 L 267 321 L 270 320 L 270 311 L 267 310 L 267 301 L 270 300 L 270 291 L 267 290 L 267 284 L 268 283 L 268 280 L 270 280 L 270 270 L 280 270 L 280 260 L 275 260 L 280 252 L 280 260 L 290 260 L 290 250 L 282 250 L 290 243 L 290 250 L 300 250 L 300 240 L 296 240 L 299 238 Q 301 237 300 240 L 310 240 L 310 235 L 320 235 L 320 240 L 330 240 L 330 236 L 343 240 L 349 245 L 350 245 L 350 250 L 354 250 L 360 260 L 350 260 L 350 270 L 360 270 L 361 262 L 363 269 Q 364 271 360 270 L 360 280 L 365 280 L 366 284 L 366 290 L 360 290 L 360 300 L 366 300 L 366 310 L 360 310 L 360 320 L 366 320 L 366 330 L 360 330 L 360 340 L 366 340 L 366 350 L 360 350 L 360 360 L 366 360 L 366 370 L 360 370 L 360 380 L 366 380 L 366 390 L 360 390 L 360 400 L 366 400 L 366 410 L 360 410 L 360 420 L 366 420 L 366 430 L 360 430 L 360 440 L 366 440 Q 364 445 370 443 L 370 450 L 380 450 L 380 443 L 390 443 L 390 450 L 400 450 L 400 443 L 410 443 L 410 450 L 420 450 L 420 443 L 430 443 L 430 450 L 440 450 L 440 443 L 450 443 L 450 450 L 460 450 L 460 440 L 454 440 L 454 430 L 460 430 L 460 420 L 454 420 L 454 410 L 460 410 L 460 400 L 454 400 L 454 390 L 460 390 L 460 380 L 454 380 L 454 370 L 460 370 L 460 360 L 454 360 L 454 350 L 460 350 L 460 340 L 454 340 L 454 330 L 460 330 L 460 320 L 454 320 L 454 310 L 460 310 L 460 300 L 454 300 L 454 290 L 460 290 L 460 280 L 454 280 L 454 270 L 460 270 L 460 260 L 454 260 L 454 250 L 460 250 L 460 240 L 452 240 L 450 232 L 451 230 L 460 230 L 460 220 L 450 220 L 450 227 L 448 223 Q 447 219 450 220 L 450 210 L 443 210 L 440 204 Q 441 199 439 200 L 432 192 L 433 190 L 440 190 L 440 180 L 430 180 L 430 188 L 423 181 L 430 180 L 430 170 L 420 170 L 420 178 Q 412 170 402 166 L 400 166 L 400 160 L 390 160 L 390 162 L 386 161 L 390 160 L 390 150 L 380 150 L 380 159 L 374 157 L 370 157 L 370 150 L 360 150 L 360 156 L 350 156 L 350 150 L 340 150 L 340 156 L 332 157 L 330 158 L 330 150 L 320 150 Z M 400 150 L 400 160 L 410 160 L 410 150 L 400 150 Z M 420 150 L 420 160 L 430 160 L 430 150 L 420 150 Z M 440 150 L 440 160 L 450 160 L 450 150 L 440 150 Z M 460 150 L 460 160 L 470 160 L 470 150 L 460 150 Z M 10 160 L 10 170 L 20 170 L 20 160 L 10 160 Z M 30 160 L 30 170 L 38 170 L 38 180 L 30 180 L 30 190 L 38 190 L 38 200 L 30 200 L 30 210 L 38 210 L 38 220 L 30 220 L 30 230 L 38 230 L 38 240 L 30 240 L 30 250 L 38 250 L 38 260 L 30 260 L 30 270 L 38 270 L 38 280 L 30 280 L 30 290 L 38 290 L 38 300 L 30 300 L 30 310 L 38 310 L 38 320 L 30 320 L 30 330 L 38 330 L 38 340 L 30 340 L 30 350 L 38 350 L 38 360 L 30 360 L 30 370 L 38 370 L 38 380 L 30 380 L 30 390 L 38 390 L 38 400 L 30 400 L 30 410 L 38 410 L 38 420 L 30 420 L 30 430 L 38 430 L 38 440 L 30 440 L 30 450 L 40 450 L 40 443 L 50 443 L 50 450 L 60 450 L 60 443 L 70 443 L 70 450 L 80 450 L 80 443 L 90 443 L 90 450 L 100 450 L 100 443 L 110 443 L 110 450 L 120 450 L 120 443 L 127 443 Q 126 439 130 440 L 130 431 L 127 430 L 127 421 L 130 420 L 130 411 L 127 410 L 127 401 L 130 400 L 130 391 L 127 390 L 127 381 L 130 380 L 130 371 L 127 370 L 127 361 L 130 360 L 130 351 L 127 350 L 127 341 L 130 340 L 130 331 L 127 330 L 127 321 L 130 320 L 130 311 L 127 310 L 127 301 L 130 300 L 130 291 L 127 290 L 127 281 L 130 280 L 130 271 L 127 270 L 127 261 L 130 260 L 130 251 L 127 250 L 127 241 L 130 240 L 130 231 L 127 230 L 127 221 L 130 220 L 130 211 L 127 210 L 127 201 L 130 200 L 130 191 L 127 190 L 127 181 L 130 180 L 130 170 L 127 170 L 127 164 L 120 164 L 120 160 L 110 160 L 110 164 L 100 164 L 100 160 L 90 160 L 90 164 L 80 164 L 80 160 L 70 160 L 70 164 L 60 164 L 60 160 L 50 160 L 50 164 L 40 164 L 40 160 L 30 160 Z M 130 160 L 130 170 L 140 170 L 140 160 L 130 160 Z M 150 160 L 150 170 L 160 170 L 160 160 L 150 160 Z M 170 160 L 170 170 L 180 170 L 180 160 L 170 160 Z M 270 160 L 270 170 L 280 170 L 280 160 L 270 160 Z M 410 160 L 410 170 L 420 170 L 420 160 L 410 160 Z M 430 160 L 430 170 L 440 170 L 440 160 L 430 160 Z M 450 160 L 450 170 L 460 170 L 460 160 L 450 160 Z M 20 170 L 20 180 L 30 180 L 30 170 L 20 170 Z M 140 170 L 140 180 L 150 180 L 150 170 L 140 170 Z M 160 170 L 160 180 L 170 180 L 170 170 L 160 170 Z M 440 170 L 440 180 L 450 180 L 450 170 L 440 170 Z M 460 170 L 460 180 L 470 180 L 470 170 L 460 170 Z M 10 180 L 10 190 L 20 190 L 20 180 L 10 180 Z M 130 180 L 130 190 L 140 190 L 140 180 L 130 180 Z M 150 180 L 150 190 L 160 190 L 160 180 L 150 180 Z M 170 180 L 170 190 L 180 190 L 180 180 L 170 180 Z M 450 180 L 450 190 L 460 190 L 460 180 L 450 180 Z M 20 190 L 20 200 L 30 200 L 30 190 L 20 190 Z M 140 190 L 140 200 L 150 200 L 150 190 L 140 190 Z M 160 190 L 160 200 L 170 200 L 170 190 L 160 190 Z M 440 190 L 440 200 L 450 200 L 450 190 L 440 190 Z M 460 190 L 460 200 L 470 200 L 470 190 L 460 190 Z M 10 200 L 10 210 L 20 210 L 20 200 L 10 200 Z M 130 200 L 130 210 L 140 210 L 140 200 L 130 200 Z M 150 200 L 150 210 L 160 210 L 160 200 L 150 200 Z M 170 200 L 170 210 L 180 210 L 180 200 L 170 200 Z M 450 200 L 450 210 L 460 210 L 460 200 L 450 200 Z M 20 210 L 20 220 L 30 220 L 30 210 L 20 210 Z M 140 210 L 140 220 L 150 220 L 150 210 L 140 210 Z M 160 210 L 160 220 L 170 220 L 170 210 L 160 210 Z M 460 210 L 460 220 L 470 220 L 470 210 L 460 210 Z M 10 220 L 10 230 L 20 230 L 20 220 L 10 220 Z M 130 220 L 130 230 L 140 230 L 140 220 L 130 220 Z M 150 220 L 150 230 L 160 230 L 160 220 L 150 220 Z M 170 220 L 170 230 L 180 230 L 180 220 L 170 220 Z M 20 230 L 20 240 L 30 240 L 30 230 L 20 230 Z M 140 230 L 140 240 L 150 240 L 150 230 L 140 230 Z M 160 230 L 160 240 L 170 240 L 170 230 L 160 230 Z M 460 230 L 460 240 L 470 240 L 470 230 L 460 230 Z M 10 240 L 10 250 L 20 250 L 20 240 L 10 240 Z M 130 240 L 130 250 L 140 250 L 140 240 L 130 240 Z M 150 240 L 150 250 L 160 250 L 160 240 L 150 240 Z M 170 240 L 170 250 L 180 250 L 180 240 L 170 240 Z M 310 240 L 310 250 L 320 250 L 320 240 L 310 240 Z M 330 240 L 330 250 L 340 250 L 340 240 L 330 240 Z M 20 250 L 20 260 L 30 260 L 30 250 L 20 250 Z M 140 250 L 140 260 L 150 260 L 150 250 L 140 250 Z M 160 250 L 160 260 L 170 260 L 170 250 L 160 250 Z M 300 250 L 300 260 L 310 260 L 310 250 L 300 250 Z M 320 250 L 320 260 L 330 260 L 330 250 L 320 250 Z M 340 250 L 340 260 L 350 260 L 350 250 L 340 250 Z M 460 250 L 460 260 L 470 260 L 470 250 L 460 250 Z M 10 260 L 10 270 L 20 270 L 20 260 L 10 260 Z M 130 260 L 130 270 L 140 270 L 140 260 L 130 260 Z M 150 260 L 150 270 L 160 270 L 160 260 L 150 260 Z M 170 260 L 170 270 L 180 270 L 180 260 L 170 260 Z M 290 260 L 290 270 L 300 270 L 300 260 L 290 260 Z M 310 260 L 310 270 L 320 270 L 320 260 L 310 260 Z M 330 260 L 330 270 L 340 270 L 340 260 L 330 260 Z M 20 270 L 20 280 L 30 280 L 30 270 L 20 270 Z M 140 270 L 140 280 L 150 280 L 150 270 L 140 270 Z M 160 270 L 160 280 L 170 280 L 170 270 L 160 270 Z M 280 270 L 280 280 L 290 280 L 290 270 L 280 270 Z M 300 270 L 300 280 L 310 280 L 310 270 L 300 270 Z M 320 270 L 320 280 L 330 280 L 330 270 L 320 270 Z M 340 270 L 340 280 L 350 280 L 350 270 L 340 270 Z M 460 270 L 460 280 L 470 280 L 470 270 L 460 270 Z M 10 280 L 10 290 L 20 290 L 20 280 L 10 280 Z M 130 280 L 130 290 L 140 290 L 140 280 L 130 280 Z M 150 280 L 150 290 L 160 290 L 160 280 L 150 280 Z M 170 280 L 170 290 L 180 290 L 180 280 L 170 280 Z M 270 280 L 270 290 L 280 290 L 280 280 L 270 280 Z M 290 280 L 290 290 L 300 290 L 300 280 L 290 280 Z M 310 280 L 310 290 L 320 290 L 320 280 L 310 280 Z M 330 280 L 330 290 L 340 290 L 340 280 L 330 280 Z M 350 280 L 350 290 L 360 290 L 360 280 L 350 280 Z M 20 290 L 20 300 L 30 300 L 30 290 L 20 290 Z M 140 290 L 140 300 L 150 300 L 150 290 L 140 290 Z M 160 290 L 160 300 L 170 300 L 170 290 L 160 290 Z M 280 290 L 280 300 L 290 300 L 290 290 L 280 290 Z M 300 290 L 300 300 L 310 300 L 310 290 L 300 290 Z M 320 290 L 320 300 L 330 300 L 330 290 L 320 290 Z M 340 290 L 340 300 L 350 300 L 350 290 L 340 290 Z M 460 290 L 460 300 L 470 300 L 470 290 L 460 290 Z M 10 300 L 10 310 L 20 310 L 20 300 L 10 300 Z M 130 300 L 130 310 L 140 310 L 140 300 L 130 300 Z M 150 300 L 150 310 L 160 310 L 160 300 L 150 300 Z M 170 300 L 170 310 L 180 310 L 180 300 L 170 300 Z M 270 300 L 270 310 L 280 310 L 280 300 L 270 300 Z M 290 300 L 290 310 L 300 310 L 300 300 L 290 300 Z M 310 300 L 310 310 L 320 310 L 320 300 L 310 300 Z M 330 300 L 330 310 L 340 310 L 340 300 L 330 300 Z M 350 300 L 350 310 L 360 310 L 360 300 L 350 300 Z M 20 310 L 20 320 L 30 320 L 30 310 L 20 310 Z M 140 310 L 140 320 L 150 320 L 150 310 L 140 310 Z M 160 310 L 160 320 L 170 320 L 170 310 L 160 310 Z M 280 310 L 280 320 L 290 320 L 290 310 L 280 310 Z M 300 310 L 300 320 L 310 320 L 310 310 L 300 310 Z M 320 310 L 320 320 L 330 320 L 330 310 L 320 310 Z M 340 310 L 340 320 L 350 320 L 350 310 L 340 310 Z M 460 310 L 460 320 L 470 320 L 470 310 L 460 310 Z M 10 320 L 10 330 L 20 330 L 20 320 L 10 320 Z M 130 320 L 130 330 L 140 330 L 140 320 L 130 320 Z M 150 320 L 150 330 L 160 330 L 160 320 L 150 320 Z M 170 320 L 170 330 L 180 330 L 180 320 L 170 320 Z M 270 320 L 270 330 L 280 330 L 280 320 L 270 320 Z M 290 320 L 290 330 L 300 330 L 300 320 L 290 320 Z M 310 320 L 310 330 L 320 330 L 320 320 L 310 320 Z M 330 320 L 330 330 L 340 330 L 340 320 L 330 320 Z M 350 320 L 350 330 L 360 330 L 360 320 L 350 320 Z M 20 330 L 20 340 L 30 340 L 30 330 L 20 330 Z M 140 330 L 140 340 L 150 340 L 150 330 L 140 330 Z M 160 330 L 160 340 L 170 340 L 170 330 L 160 330 Z M 280 330 L 280 340 L 290 340 L 290 330 L 280 330 Z M 300 330 L 300 340 L 310 340 L 310 330 L 300 330 Z M 320 330 L 320 340 L 330 340 L 330 330 L 320 330 Z M 340 330 L 340 340 L 350 340 L 350 330 L 340 330 Z M 460 330 L 460 340 L 470 340 L 470 330 L 460 330 Z M 10 340 L 10 350 L 20 350 L 20 340 L 10 340 Z M 130 340 L 130 350 L 140 350 L 140 340 L 130 340 Z M 150 340 L 150 350 L 160 350 L 160 340 L 150 340 Z M 170 340 L 170 350 L 180 350 L 180 340 L 170 340 Z M 270 340 L 270 350 L 280 350 L 280 340 L 270 340 Z M 290 340 L 290 350 L 300 350 L 300 340 L 290 340 Z M 310 340 L 310 350 L 320 350 L 320 340 L 310 340 Z M 330 340 L 330 350 L 340 350 L 340 340 L 330 340 Z M 350 340 L 350 350 L 360 350 L 360 340 L 350 340 Z M 20 350 L 20 360 L 30 360 L 30 350 L 20 350 Z M 140 350 L 140 360 L 150 360 L 150 350 L 140 350 Z M 160 350 L 160 360 L 170 360 L 170 350 L 160 350 Z M 280 350 L 280 360 L 290 360 L 290 350 L 280 350 Z M 300 350 L 300 360 L 310 360 L 310 350 L 300 350 Z M 320 350 L 320 360 L 330 360 L 330 350 L 320 350 Z M 340 350 L 340 360 L 350 360 L 350 350 L 340 350 Z M 460 350 L 460 360 L 470 360 L 470 350 L 460 350 Z M 10 360 L 10 370 L 20 370 L 20 360 L 10 360 Z M 130 360 L 130 370 L 140 370 L 140 360 L 130 360 Z M 150 360 L 150 370 L 160 370 L 160 360 L 150 360 Z M 170 360 L 170 370 L 180 370 L 180 360 L 170 360 Z M 270 360 L 270 370 L 280 370 L 280 360 L 270 360 Z M 290 360 L 290 370 L 300 370 L 300 360 L 290 360 Z M 310 360 L 310 370 L 320 370 L 320 360 L 310 360 Z M 330 360 L 330 370 L 340 370 L 340 360 L 330 360 Z M 350 360 L 350 370 L 360 370 L 360 360 L 350 360 Z M 20 370 L 20 380 L 30 380 L 30 370 L 20 370 Z M 140 370 L 140 380 L 150 380 L 150 370 L 140 370 Z M 160 370 L 160 380 L 170 380 L 170 370 L 160 370 Z M 280 370 L 280 380 L 290 380 L 290 370 L 280 370 Z M 300 370 L 300 380 L 310 380 L 310 370 L 300 370 Z M 320 370 L 320 380 L 330 380 L 330 370 L 320 370 Z M 340 370 L 340 380 L 350 380 L 350 370 L 340 370 Z M 460 370 L 460 380 L 470 380 L 470 370 L 460 370 Z M 10 380 L 10 390 L 20 390 L 20 380 L 10 380 Z M 130 380 L 130 390 L 140 390 L 140 380 L 130 380 Z M 150 380 L 150 390 L 160 390 L 160 380 L 150 380 Z M 170 380 L 170 390 L 180 390 L 180 380 L 170 380 Z M 270 380 L 270 390 L 280 390 L 280 380 L 270 380 Z M 290 380 L 290 390 L 300 390 L 300 380 L 290 380 Z M 310 380 L 310 390 L 320 390 L 320 380 L 310 380 Z M 330 380 L 330 390 L 340 390 L 340 380 L 330 380 Z M 350 380 L 350 390 L 360 390 L 360 380 L 350 380 Z M 20 390 L 20 400 L 30 400 L 30 390 L 20 390 Z M 140 390 L 140 400 L 150 400 L 150 390 L 140 390 Z M 160 390 L 160 400 L 170 400 L 170 390 L 160 390 Z M 280 390 L 280 400 L 290 400 L 290 390 L 280 390 Z M 300 390 L 300 400 L 310 400 L 310 390 L 300 390 Z M 320 390 L 320 400 L 330 400 L 330 390 L 320 390 Z M 340 390 L 340 400 L 350 400 L 350 390 L 340 390 Z M 460 390 L 460 400 L 470 400 L 470 390 L 460 390 Z M 10 400 L 10 410 L 20 410 L 20 400 L 10 400 Z M 130 400 L 130 410 L 140 410 L 140 400 L 130 400 Z M 150 400 L 150 410 L 160 410 L 160 400 L 150 400 Z M 170 400 L 170 410 L 180 410 L 180 400 L 170 400 Z M 270 400 L 270 410 L 280 410 L 280 400 L 270 400 Z M 290 400 L 290 410 L 300 410 L 300 400 L 290 400 Z M 310 400 L 310 410 L 320 410 L 320 400 L 310 400 Z M 330 400 L 330 410 L 340 410 L 340 400 L 330 400 Z M 350 400 L 350 410 L 360 410 L 360 400 L 350 400 Z M 20 410 L 20 420 L 30 420 L 30 410 L 20 410 Z M 140 410 L 140 420 L 150 420 L 150 410 L 140 410 Z M 160 410 L 160 420 L 170 420 L 170 410 L 160 410 Z M 280 410 L 280 420 L 290 420 L 290 410 L 280 410 Z M 300 410 L 300 420 L 310 420 L 310 410 L 300 410 Z M 320 410 L 320 420 L 330 420 L 330 410 L 320 410 Z M 340 410 L 340 420 L 350 420 L 350 410 L 340 410 Z M 460 410 L 460 420 L 470 420 L 470 410 L 460 410 Z M 10 420 L 10 430 L 20 430 L 20 420 L 10 420 Z M 130 420 L 130 430 L 140 430 L 140 420 L 130 420 Z M 150 420 L 150 430 L 160 430 L 160 420 L 150 420 Z M 170 420 L 170 430 L 180 430 L 180 420 L 170 420 Z M 270 420 L 270 430 L 280 430 L 280 420 L 270 420 Z M 290 420 L 290 430 L 300 430 L 300 420 L 290 420 Z M 310 420 L 310 430 L 320 430 L 320 420 L 310 420 Z M 330 420 L 330 430 L 340 430 L 340 420 L 330 420 Z M 350 420 L 350 430 L 360 430 L 360 420 L 350 420 Z M 20 430 L 20 440 L 30 440 L 30 430 L 20 430 Z M 140 430 L 140 440 L 150 440 L 150 430 L 140 430 Z M 160 430 L 160 440 L 170 440 L 170 430 L 160 430 Z M 280 430 L 280 440 L 290 440 L 290 430 L 280 430 Z M 300 430 L 300 440 L 310 440 L 310 430 L 300 430 Z M 320 430 L 320 440 L 330 440 L 330 430 L 320 430 Z M 340 430 L 340 440 L 350 440 L 350 430 L 340 430 Z M 460 430 L 460 440 L 470 440 L 470 430 L 460 430 Z M 10 440 L 10 450 L 20 450 L 20 440 L 10 440 Z M 130 440 L 130 450 L 140 450 L 140 440 L 130 440 Z M 150 440 L 150 450 L 160 450 L 160 440 L 150 440 Z M 170 440 L 170 450 L 180 450 L 180 440 L 170 440 Z M 270 440 L 270 450 L 280 450 L 280 440 L 270 440 Z M 290 440 L 290 450 L 300 450 L 300 440 L 290 440 Z M 310 440 L 310 450 L 320 450 L 320 440 L 310 440 Z M 330 440 L 330 450 L 340 450 L 340 440 L 330 440 Z M 350 440 L 350 450 L 360 450 L 360 440 L 350 440 Z M 20 450 L 20 460 L 30 460 L 30 450 L 20 450 Z M 40 450 L 40 460 L 50 460 L 50 450 L 40 450 Z M 60 450 L 60 460 L 70 460 L 70 450 L 60 450 Z M 80 450 L 80 460 L 90 460 L 90 450 L 80 450 Z M 100 450 L 100 460 L 110 460 L 110 450 L 100 450 Z M 120 450 L 120 460 L 130 460 L 130 450 L 120 450 Z M 140 450 L 140 460 L 150 460 L 150 450 L 140 450 Z M 160 450 L 160 460 L 170 460 L 170 450 L 160 450 Z M 180 450 L 180 460 L 190 460 L 190 450 L 180 450 Z M 200 450 L 200 460 L 210 460 L 210 450 L 200 450 Z M 220 450 L 220 460 L 230 460 L 230 450 L 220 450 Z M 240 450 L 240 460 L 250 460 L 250 450 L 240 450 Z M 260 450 L 260 460 L 270 460 L 270 450 L 260 450 Z M 280 450 L 280 460 L 290 460 L 290 450 L 280 450 Z M 300 450 L 300 460 L 310 460 L 310 450 L 300 450 Z M 320 450 L 320 460 L 330 460 L 330 450 L 320 450 Z M 340 450 L 340 460 L 350 460 L 350 450 L 340 450 Z M 360 450 L 360 460 L 370 460 L 370 450 L 360 450 Z M 380 450 L 380 460 L 390 460 L 390 450 L 380 450 Z M 400 450 L 400 460 L 410 460 L 410 450 L 400 450 Z M 420 450 L 420 460 L 430 460 L 430 450 L 420 450 Z M 440 450 L 440 460 L 450 460 L 450 450 L 440 450 Z M 460 450 L 460 460 L 470 460 L 470 450 L 460 450 Z M 10 460 L 10 470 L 20 470 L 20 460 L 10 460 Z M 30 460 L 30 470 L 40 470 L 40 460 L 30 460 Z M 50 460 L 50 470 L 60 470 L 60 460 L 50 460 Z M 70 460 L 70 470 L 80 470 L 80 460 L 70 460 Z M 90 460 L 90 470 L 100 470 L 100 460 L 90 460 Z M 110 460 L 110 470 L 120 470 L 120 460 L 110 460 Z M 130 460 L 130 470 L 140 470 L 140 460 L 130 460 Z M 150 460 L 150 470 L 160 470 L 160 460 L 150 460 Z M 170 460 L 170 470 L 180 470 L 180 460 L 170 460 Z M 190 460 L 190 470 L 200 470 L 200 460 L 190 460 Z M 210 460 L 210 470 L 220 470 L 220 460 L 210 460 Z M 230 460 L 230 470 L 240 470 L 240 460 L 230 460 Z M 250 460 L 250 470 L 260 470 L 260 460 L 250 460 Z M 270 460 L 270 470 L 280 470 L 280 460 L 270 460 Z M 290 460 L 290 470 L 300 470 L 300 460 L 290 460 Z M 310 460 L 310 470 L 320 470 L 320 460 L 310 460 Z M 330 460 L 330 470 L 340 470 L 340 460 L 330 460 Z M 350 460 L 350 470 L 360 470 L 360 460 L 350 460 Z M 370 460 L 370 470 L 380 470 L 380 460 L 370 460 Z M 390 460 L 390 470 L 400 470 L 400 460 L 390 460 Z M 410 460 L 410 470 L 420 470 L 420 460 L 410 460 Z M 430 460 L 430 470 L 440 470 L 440 460 L 430 460 Z M 450 460 L 450 470 L 460 470 L 460 460 L 450 460 Z " /></svg>