<?xml version="1.0" encoding="UTF-8"?>
<svg xmlns="http://www.w3.org/2000/svg" xmlns:xlink="http://www.w3.org/1999/xlink" viewBox="0 0 240 240" width="240px" height="240px">
<g id="surface68355078">
<path style=" stroke:none;fill-rule:nonzero;fill:rgb(6.666667%,6.666667%,6.666667%);fill-opacity:1;" d="M 23.355469 46.5625 L 23.613281 46.5625 C 37.566406 46.5625 46.25 36.5625 46.25 24.0625 C 45.988281 11.289062 37.566406 1.5625 23.878906 1.5625 C 10.195312 1.5625 1.25 11.289062 1.25 24.0625 C 1.25 36.5625 9.929688 46.5625 23.355469 46.5625 Z M 1.25 61.5625 L 46.25 61.5625 L 46.25 191.5625 L 1.25 191.5625 Z M 201.25 109.0625 C 201.25 82.828125 179.984375 61.5625 153.75 61.5625 C 138.484375 61.5625 124.941406 68.792969 116.25 79.984375 L 116.25 61.5625 L 71.25 61.5625 L 71.25 191.5625 L 116.25 191.5625 L 116.25 116.5625 C 116.25 105.515625 125.203125 96.5625 136.25 96.5625 C 147.292969 96.5625 156.25 105.515625 156.25 116.5625 L 156.25 191.5625 L 201.25 191.5625 C 201.25 191.5625 201.25 116.335938 201.25 109.0625 Z M 201.25 109.0625 "/>
</g>
</svg>
