<svg version="1.0" xmlns="http://www.w3.org/2000/svg"
 width="443.000000pt" height="451.000000pt" viewBox="0 0 443.000000 451.000000"
 preserveAspectRatio="xMidYMid meet">
<g transform="translate(0.000000,451.000000) scale(0.100000,-0.100000)"
fill="inherit" stroke="none">
<path d="M2085 4493 c-457 -40 -888 -212 -1240 -496 -110 -88 -300 -286 -384
-399 -229 -309 -368 -646 -428 -1038 -24 -157 -24 -463 0 -620 76 -494 277
-903 617 -1254 179 -184 352 -315 571 -430 296 -155 618 -239 969 -253 388
-15 769 59 1085 212 632 305 1052 958 1135 1769 15 138 9 463 -10 577 l-13 76
-1054 7 c-579 4 -1058 4 -1063 1 -6 -4 -10 -161 -10 -431 l0 -424 610 0 c531
0 610 -2 610 -15 0 -21 -42 -131 -79 -203 -179 -355 -494 -588 -891 -658 -129
-23 -355 -23 -480 0 -569 103 -1007 543 -1105 1110 -20 115 -20 337 0 452 85
488 422 888 888 1053 152 53 273 74 442 74 330 1 580 -86 862 -300 l29 -22
317 317 317 317 -83 68 c-335 279 -781 464 -1221 506 -102 10 -299 12 -391 4z"/>
</g>
</svg>
