<svg width="41" height="42" fill="none" xmlns="http://www.w3.org/2000/svg"><path d="M7.358 35l31.185.013A2.462 2.462 0 0141 37.474v2.065A2.462 2.462 0 0138.543 42H22.438a.602.602 0 010-1.205h12.077v-1.686H7.977v1.687l11.479-.001a.601.601 0 010 1.205l-12.221-.011c-.543 0-.875-.039-1.639-.381 0 0-3.395-1.52-5.05-2.263a.92.92 0 01-.546-.84c0-.368.21-.69.548-.84l5.048-2.26c.817-.366 1.148-.412 1.762-.404zm.619 2.904v-1.686h26.538v1.686H7.977zm30.566 2.89c.692 0 1.256-.562 1.256-1.255v-2.065c0-.692-.564-1.255-1.256-1.255h-2.827v4.576h2.827zM4.687 37.133v2.749c.438.196 1.91.843 2.088.885v-4.518c-.178.041-2.088.884-2.088.884zm-1.202.538v1.672c-.622-.278-1.244-.556-1.866-.836l1.866-.836zm16.456-5.673L1.063 32A1.058 1.058 0 010 30.949V5.677c0-.58.477-1.051 1.063-1.051h2.646V.992c-.003-.413.224-.777.579-.924.354-.147.75-.053 1.059.252l4.367 4.306h23.98V3.159c0-.57.471-1.033 1.05-1.033h2.725C39.416 2.126 41 3.689 41 5.611v22.904c0 1.92-1.584 3.483-3.531 3.483h-14.69a.615.615 0 01-.617-.611c0-.338.277-.611.618-.611h14.689c1.265 0 2.295-1.014 2.295-2.26 0-1.247-1.03-2.261-2.295-2.261h-2.725a1.043 1.043 0 01-1.05-1.036V5.848h-22.74l20.092 19.81c.308.304.405.694.259 1.042-.147.35-.515.576-.939.576H4.727a1.013 1.013 0 01-1.019-1.005V5.848H1.237v24.93l18.704-.002c.342 0 .619.273.619.61a.615.615 0 01-.619.612zm9.756-5.944L4.945 1.65v24.405h2.653v-.858c0-.338.277-.611.618-.611.342 0 .618.273.618.61v.858h2.655V24.39c0-.337.277-.61.618-.61.342 0 .619.273.619.61v1.666h2.652v-.858c0-.338.277-.611.619-.611.34 0 .618.273.618.61v.858h2.655V24.39c0-.337.276-.61.618-.61.341 0 .618.273.618.61v1.666h2.653v-.858c0-.338.277-.611.618-.611.342 0 .618.273.618.61v.858h5.302zm5.235-22.706h2.537c1.265 0 2.294 1.015 2.294 2.263V25.87a3.544 3.544 0 00-2.294-.838h-2.537V3.348z" clip-rule="evenodd" fill="#000" fill-rule="evenodd"/><path d="M10.489 22h6.199c.233 0 .668 0 .835-.413.163-.406-.123-.699-.331-.913l-6.137-6.283c-.208-.215-.494-.51-.89-.341-.403.17-.403.616-.403.856v6.348c0 .453.285.746.727.746zm5.292-1.148l-4.9-5.017v5.017h4.9z" clip-rule="evenodd" fill="#000" fill-rule="evenodd"/></svg>