<svg width="38" height="26" fill="none" xmlns="http://www.w3.org/2000/svg"><path d="M37.184 19.13H23.67v-3.818h2.188c.316 0 .588-.13.767-.365.186-.245.252-.58.188-.942l-.762-4.297c-.102-.572-.496-.957-.98-.957h-2.013C21.484 3.671 17.048 0 11.835 0 5.309 0 0 5.752 0 12.822c0 7.07 5.31 12.822 11.835 12.822h10.814c.563 0 1.02-.495 1.02-1.104v-1.107h4.975c.308 0 .557-.27.557-.604 0-.334-.25-.605-.557-.605H23.67V20.34h13.217v1.886H30.91c-.307 0-.556.27-.556.604 0 .334.249.604.556.604h5.977v1.963c0 .334.249.604.556.604.308 0 .557-.27.557-.604v-5.38c0-.489-.366-.886-.816-.886zM1.127 13.427h2.144c.15 0 .356-.015.527-.202.184-.204.179-.446.176-.575a2.304 2.304 0 010-.143 8.96 8.96 0 011.374-4.506.638.638 0 00-.142-.84.53.53 0 00-.774.154 10.22 10.22 0 00-1.56 4.903H1.127C1.41 6.294 5.81 1.528 11.278 1.224v1.89c-1.753.115-3.417.777-4.826 1.921a.64.64 0 00-.113.846.525.525 0 00.779.122c1.287-1.044 2.817-1.63 4.425-1.693a1.77 1.77 0 01.127 0h.005c.122.002.344.006.53-.193.19-.204.188-.446.187-.622v-2.27c5.654.314 10.165 5.396 10.165 11.597v8.514H12.262c-.542 0-.984.479-.984 1.067v2.017c-5.469-.305-9.868-5.07-10.15-10.994zm24.57.676L24.96 9.96h-1.589c.195.92.298 1.879.298 2.862v1.281h2.026zM12.391 24.436h10.165v-1.891H12.392v1.89z" clip-rule="evenodd" fill="#000" fill-rule="evenodd"/><path d="M17.198 19.933h-5.322c-3.493 0-6.334-2.916-6.334-6.5s2.841-6.5 6.334-6.5c3.492 0 6.332 2.916 6.332 6.5v5.46c0 .574-.453 1.04-1.01 1.04zm-.116-6.5c0-2.946-2.335-5.342-5.206-5.342-2.872 0-5.209 2.396-5.209 5.341 0 2.947 2.337 5.344 5.209 5.344h5.207v-5.344z" clip-rule="evenodd" fill="#000" fill-rule="evenodd"/><path d="M13.898 15.6H9.852c-.63 0-1.143-.489-1.143-1.09v-2.156c0-.6.512-1.087 1.143-1.087h4.046c.63 0 1.144.487 1.144 1.087v2.156c0 .601-.513 1.09-1.144 1.09zm-.127-3.123H9.98v1.912h3.79v-1.912z" clip-rule="evenodd" fill="#000" fill-rule="evenodd"/></svg>