<svg width="37" height="29" fill="none" xmlns="http://www.w3.org/2000/svg"><path d="M35.45 26H1.54C.69 26 0 26.67 0 27.5c0 .82.69 1.5 1.54 1.5h33.91c.85 0 1.55-.68 1.55-1.5 0-.83-.7-1.5-1.55-1.5zm.05-26h-21c-.83 0-1.5.67-1.5 1.5 0 .82.67 1.5 1.5 1.5h21c.82 0 1.5-.68 1.5-1.5 0-.83-.68-1.5-1.5-1.5zm-.05 9H1.54C.69 9 0 9.67 0 10.5c0 .82.69 1.5 1.54 1.5h33.91c.85 0 1.55-.68 1.55-1.5 0-.83-.7-1.5-1.55-1.5zm.05 9h-21c-.83 0-1.5.67-1.5 1.5 0 .82.67 1.5 1.5 1.5h21c.82 0 1.5-.68 1.5-1.5 0-.83-.68-1.5-1.5-1.5z" fill="#000"/></svg>