<svg width="38" height="34" fill="none" xmlns="http://www.w3.org/2000/svg"><path d="M36.33 9.63h-.588V5.38c0-.343-.25-.622-.557-.622-.308 0-.557.279-.557.623v4.25h-.588c-.92 0-1.67.837-1.67 1.866v2.98l-7.643-.002h-.002c-4.948-.002-5.048-.002-5.144.02l-.024.006V2.862c0-.892.65-1.618 1.447-1.618H33.18c.707 0 1.306.564 1.426 1.34.052.34.34.566.644.508.302-.058.505-.38.453-.719C35.492.998 34.431 0 33.181 0H21.004C20.193 0 19.47.424 19 1.084 18.53.424 17.807 0 16.996 0H4.82C3.408 0 2.26 1.284 2.26 2.862V9.63h-.59c-.92 0-1.67.838-1.67 1.867V23.04c0 1.715 1.249 3.11 2.783 3.11h1.734v6.102c0 .964.701 1.748 1.564 1.748.816 0 1.502-.713 1.56-1.624l.395-6.225h3.171c.308 0 .557-.28.557-.623 0-.343-.249-.622-.556-.622H2.782c-.92 0-1.67-.837-1.67-1.867V11.497c0-.343.25-.622.557-.622h2.29c.269 0 .494.213.545.497.008.04.012.082.012.125v2.98H3.62c-.748 0-1.356.68-1.356 1.516v3.592c0 .837.608 1.517 1.356 1.517h30.76c.748 0 1.356-.68 1.356-1.517v-3.592c0-.837-.608-1.517-1.356-1.517h-.897v-2.98c0-.042.004-.084.012-.124.051-.284.277-.497.545-.497h2.29c.307 0 .557.279.557.622v11.542c0 1.03-.75 1.867-1.67 1.867H13.805c-.307 0-.556.279-.556.622 0 .344.249.623.556.623h16.159l.396 6.225c.058.91.742 1.624 1.56 1.624.862 0 1.563-.784 1.563-1.748v-6.101h1.734c1.535 0 2.783-1.396 2.783-3.111V11.497c0-1.03-.749-1.867-1.67-1.867zm-33.01.007h.591c.924 0 1.676.838 1.676 1.869v2.982l7.694-.002c4.975-.001 5.06-.001 5.139.02a.39.39 0 00.027.006V2.863c0-.893-.652-1.62-1.453-1.62H4.773c-.8 0-1.453.727-1.453 1.62v6.774zm0 9.993v-3.601c0-.15.11-.273.245-.273h14.637c.135 0 .245.122.245.273v3.873H3.565c-.135 0-.245-.122-.245-.272zm31.36 0c0 .15-.11.272-.245.272H19.553V16.03c0-.15.11-.273.245-.273h14.637c.135 0 .245.122.245.273v3.6zM6.675 32.286l.335-6.164H5.903v6.128c0 .28.173.506.387.506.201 0 .37-.206.385-.47zm25.035.47c.214 0 .387-.227.387-.506v-6.128H30.99l.335 6.164c.014.264.184.47.385.47z" clip-rule="evenodd" fill="#000" fill-rule="evenodd"/></svg>