<?xml version="1.0" encoding="UTF-8"?>
<svg xmlns="http://www.w3.org/2000/svg" xmlns:xlink="http://www.w3.org/1999/xlink" viewBox="0 0 128 128" width="128px" height="128px">
<g id="surface68487765">
<path style=" stroke:none;fill-rule:nonzero;fill:rgb(0%,0%,0%);fill-opacity:1;" d="M 114.367188 11.878906 C 110.167969 13.738281 105.65625 14.976562 100.890625 15.5625 C 105.734375 12.691406 109.457031 8.105469 111.207031 2.691406 C 106.675781 5.347656 101.660156 7.296875 96.316406 8.324219 C 92.054688 3.804688 85.972656 1 79.234375 1 C 66.289062 1 55.800781 11.398438 55.800781 24.222656 C 55.800781 26.035156 56.011719 27.804688 56.410156 29.519531 C 36.9375 28.542969 19.667969 19.285156 8.113281 5.238281 C 6.085938 8.671875 4.941406 12.691406 4.941406 16.933594 C 4.941406 24.996094 9.070312 32.089844 15.363281 36.273438 C 11.523438 36.15625 7.90625 35.085938 4.738281 33.371094 C 4.738281 33.441406 4.738281 33.546875 4.738281 33.644531 C 4.738281 44.910156 12.820312 54.292969 23.53125 56.425781 C 21.574219 56.964844 19.503906 57.261719 17.371094 57.261719 C 15.859375 57.261719 14.382812 57.089844 12.957031 56.832031 C 15.9375 66.039062 24.589844 72.769531 34.839844 72.96875 C 26.820312 79.1875 16.71875 82.910156 5.734375 82.910156 C 3.839844 82.910156 1.984375 82.800781 0.148438 82.578125 C 10.523438 89.148438 22.847656 93.003906 36.074219 93.003906 C 79.171875 93.003906 102.75 57.609375 102.75 26.90625 C 102.75 25.902344 102.714844 24.898438 102.667969 23.910156 C 107.269531 20.660156 111.234375 16.558594 114.367188 11.878906 "/>
</g>
</svg>
