<svg version="1.0" xmlns="http://www.w3.org/2000/svg"
 width="512.000000pt" height="512.000000pt" viewBox="0 0 512.000000 512.000000"
 preserveAspectRatio="xMidYMid meet">
<g transform="translate(0.000000,512.000000) scale(0.100000,-0.100000)"
fill="inherit" stroke="none">
<path d="M3396 4630 c-439 -70 -789 -399 -877 -825 -21 -100 -25 -291 -9 -389
5 -33 7 -62 5 -64 -9 -9 -308 28 -430 53 -370 75 -743 228 -1050 433 -237 158
-428 323 -598 517 -39 44 -74 81 -78 83 -4 2 -24 -31 -43 -72 -78 -164 -111
-353 -95 -544 23 -271 165 -540 374 -710 l80 -65 -75 6 c-88 7 -223 45 -317
87 -36 17 -68 30 -71 30 -13 0 10 -194 33 -278 59 -221 182 -408 359 -549 95
-75 248 -154 361 -187 l80 -23 -60 -14 c-39 -9 -121 -14 -232 -14 -202 0 -190
16 -113 -140 158 -319 476 -537 835 -572 l80 -8 -75 -54 c-261 -185 -548 -304
-875 -362 -111 -20 -164 -23 -362 -24 l-232 0 52 -33 c95 -60 410 -210 540
-256 587 -211 1258 -231 1874 -56 867 245 1568 898 1911 1780 130 334 199 686
207 1050 l4 174 98 82 c118 98 254 238 347 357 69 88 77 109 35 87 -82 -44
-439 -140 -521 -140 l-31 0 49 32 c77 50 234 214 288 300 47 76 112 216 103
224 -2 2 -57 -23 -123 -55 -148 -73 -276 -121 -421 -157 l-112 -27 -63 59
c-121 113 -276 197 -446 240 -109 28 -305 40 -406 24z"/>
</g>
</svg>
