<?xml version="1.0" encoding="UTF-8"?>
<svg xmlns="http://www.w3.org/2000/svg" xmlns:xlink="http://www.w3.org/1999/xlink" viewBox="0 0 256 256" width="256px" height="256px">
<g id="surface68437676">
<path style=" stroke:none;fill-rule:nonzero;fill:rgb(0%,0%,0%);fill-opacity:1;" d="M 228.734375 23.757812 C 220.335938 27.476562 211.308594 29.957031 201.785156 31.128906 C 211.46875 25.378906 218.917969 16.210938 222.414062 5.378906 C 213.351562 10.691406 203.316406 14.59375 192.636719 16.648438 C 184.109375 7.609375 171.945312 2 158.46875 2 C 132.578125 2 111.597656 22.800781 111.597656 48.445312 C 111.597656 52.074219 112.023438 55.609375 112.824219 59.042969 C 73.878906 57.085938 39.335938 38.574219 16.226562 10.476562 C 12.167969 17.339844 9.882812 25.378906 9.882812 33.863281 C 9.882812 49.988281 18.140625 64.179688 30.730469 72.546875 C 23.042969 72.308594 15.8125 70.171875 9.480469 66.746094 C 9.480469 66.886719 9.480469 67.09375 9.480469 67.289062 C 9.480469 89.820312 25.640625 108.582031 47.0625 112.855469 C 43.144531 113.925781 39.007812 114.523438 34.746094 114.523438 C 31.714844 114.523438 28.769531 114.179688 25.914062 113.667969 C 31.875 132.078125 49.179688 145.539062 69.679688 145.933594 C 53.640625 158.371094 33.441406 165.820312 11.472656 165.820312 C 7.675781 165.820312 3.96875 165.605469 0.300781 165.160156 C 21.046875 178.300781 45.691406 186.003906 72.144531 186.003906 C 158.34375 186.003906 205.496094 115.21875 205.496094 53.8125 C 205.496094 51.800781 205.433594 49.796875 205.335938 47.816406 C 214.539062 41.320312 222.46875 33.121094 228.734375 23.757812 "/>
</g>
</svg>
