<?xml version="1.0" encoding="UTF-8"?>
<svg xmlns="http://www.w3.org/2000/svg" xmlns:xlink="http://www.w3.org/1999/xlink" viewBox="0 0 512 512" width="512px" height="512px">
<g id="surface68479373">
<path style=" stroke:none;fill-rule:nonzero;fill:rgb(0%,0%,0%);fill-opacity:1;" d="M 495.46875 123.515625 C 478.675781 130.953125 460.617188 135.914062 441.570312 138.257812 C 460.9375 126.761719 475.835938 108.425781 482.828125 86.761719 C 464.707031 97.386719 444.632812 105.1875 423.273438 109.296875 C 406.21875 91.21875 381.886719 80 354.9375 80 C 303.160156 80 261.199219 121.601562 261.199219 172.890625 C 261.199219 180.148438 262.046875 187.21875 263.644531 194.085938 C 185.757812 190.171875 116.675781 153.148438 70.457031 96.953125 C 62.335938 110.683594 57.769531 126.761719 57.769531 143.730469 C 57.769531 175.980469 74.28125 204.363281 99.457031 221.09375 C 84.089844 220.621094 69.625 216.347656 56.960938 209.492188 C 56.960938 209.773438 56.960938 210.1875 56.960938 210.582031 C 56.960938 255.644531 89.28125 293.167969 132.121094 301.710938 C 124.289062 303.855469 116.019531 305.046875 107.492188 305.046875 C 101.433594 305.046875 95.539062 304.359375 89.824219 303.335938 C 101.753906 340.160156 136.363281 367.082031 177.363281 367.871094 C 145.285156 392.746094 104.882812 407.640625 60.945312 407.640625 C 53.351562 407.640625 45.9375 407.210938 38.601562 406.320312 C 80.097656 432.601562 129.386719 448.011719 182.292969 448.011719 C 354.6875 448.011719 448.992188 306.4375 448.992188 183.628906 C 448.992188 179.605469 448.867188 175.597656 448.675781 171.636719 C 467.082031 158.644531 482.9375 142.242188 495.46875 123.515625 "/>
</g>
</svg>
