<?xml version="1.0" encoding="UTF-8"?>
<svg xmlns="http://www.w3.org/2000/svg" xmlns:xlink="http://www.w3.org/1999/xlink" viewBox="0 0 128 128" width="128px" height="128px">
<g id="surface68429507">
<path style=" stroke:none;fill-rule:nonzero;fill:rgb(0%,0%,0%);fill-opacity:1;" d="M 123.867188 30.878906 C 119.667969 32.738281 115.15625 33.980469 110.390625 34.566406 C 115.234375 31.691406 118.957031 27.105469 120.707031 21.691406 C 116.175781 24.347656 111.160156 26.296875 105.816406 27.324219 C 101.554688 22.804688 95.472656 20 88.734375 20 C 75.789062 20 65.300781 30.402344 65.300781 43.222656 C 65.300781 45.035156 65.511719 46.804688 65.910156 48.519531 C 46.4375 47.542969 29.167969 38.285156 17.613281 24.238281 C 15.585938 27.671875 14.441406 31.691406 14.441406 35.933594 C 14.441406 43.996094 18.570312 51.089844 24.863281 55.273438 C 21.023438 55.15625 17.40625 54.085938 14.242188 52.375 C 14.242188 52.441406 14.242188 52.546875 14.242188 52.644531 C 14.242188 63.910156 22.320312 73.292969 33.03125 75.425781 C 31.074219 75.964844 29.003906 76.261719 26.871094 76.261719 C 25.359375 76.261719 23.882812 76.089844 22.457031 75.832031 C 25.4375 85.039062 34.089844 91.769531 44.339844 91.96875 C 36.320312 98.1875 26.21875 101.910156 15.238281 101.910156 C 13.339844 101.910156 11.484375 101.800781 9.648438 101.582031 C 20.023438 108.152344 32.347656 112.003906 45.574219 112.003906 C 88.671875 112.003906 112.25 76.609375 112.25 45.90625 C 112.25 44.902344 112.214844 43.898438 112.167969 42.910156 C 116.769531 39.660156 120.734375 35.5625 123.867188 30.878906 "/>
</g>
</svg>
