<?xml version="1.0" encoding="UTF-8"?>
<svg xmlns="http://www.w3.org/2000/svg" xmlns:xlink="http://www.w3.org/1999/xlink" viewBox="0 0 96 96" width="96px" height="96px">
<g id="surface68447319">
<path style=" stroke:none;fill-rule:nonzero;fill:rgb(6.666667%,6.666667%,6.666667%);fill-opacity:1;" d="M 9.34375 18.625 L 9.445312 18.625 C 15.027344 18.625 18.5 14.625 18.5 9.625 C 18.394531 4.515625 15.027344 0.625 9.550781 0.625 C 4.078125 0.625 0.5 4.515625 0.5 9.625 C 0.5 14.625 3.972656 18.625 9.34375 18.625 Z M 0.5 24.625 L 18.5 24.625 L 18.5 76.625 L 0.5 76.625 Z M 80.5 43.625 C 80.5 33.132812 71.992188 24.625 61.5 24.625 C 55.394531 24.625 49.976562 27.515625 46.5 31.992188 L 46.5 24.625 L 28.5 24.625 L 28.5 76.625 L 46.5 76.625 L 46.5 46.625 C 46.5 42.207031 50.082031 38.625 54.5 38.625 C 58.917969 38.625 62.5 42.207031 62.5 46.625 L 62.5 76.625 L 80.5 76.625 C 80.5 76.625 80.5 46.535156 80.5 43.625 Z M 80.5 43.625 "/>
</g>
</svg>
