<?xml version="1.0" encoding="UTF-8"?>
<svg xmlns="http://www.w3.org/2000/svg" xmlns:xlink="http://www.w3.org/1999/xlink" viewBox="0 0 480 480" width="480px" height="480px">
<g id="surface68336116">
<path style=" stroke:none;fill-rule:nonzero;fill:rgb(6.666667%,6.666667%,6.666667%);fill-opacity:1;" d="M 46.710938 96.875 L 47.230469 96.875 C 75.128906 96.875 92.5 76.875 92.5 51.875 C 91.980469 26.324219 75.128906 6.875 47.761719 6.875 C 20.390625 6.875 2.5 26.324219 2.5 51.875 C 2.5 76.875 19.859375 96.875 46.710938 96.875 Z M 2.5 126.875 L 92.5 126.875 L 92.5 386.875 L 2.5 386.875 Z M 402.5 221.875 C 402.5 169.40625 359.96875 126.875 307.5 126.875 C 276.96875 126.875 249.878906 141.335938 232.5 163.714844 L 232.5 126.875 L 142.5 126.875 L 142.5 386.875 L 232.5 386.875 L 232.5 236.875 C 232.5 214.785156 250.410156 196.875 272.5 196.875 C 294.589844 196.875 312.5 214.785156 312.5 236.875 L 312.5 386.875 L 402.5 386.875 C 402.5 386.875 402.5 236.425781 402.5 221.875 Z M 402.5 221.875 "/>
</g>
</svg>
