<?xml version="1.0" encoding="UTF-8"?>
<svg xmlns="http://www.w3.org/2000/svg" xmlns:xlink="http://www.w3.org/1999/xlink" viewBox="0 0 48 48" width="48px" height="48px">
<g id="surface68447324">
<path style=" stroke:none;fill-rule:nonzero;fill:rgb(6.666667%,6.666667%,6.666667%);fill-opacity:1;" d="M 4.671875 9.3125 L 4.722656 9.3125 C 7.511719 9.3125 9.25 7.3125 9.25 4.8125 C 9.199219 2.257812 7.511719 0.3125 4.777344 0.3125 C 2.039062 0.3125 0.25 2.257812 0.25 4.8125 C 0.25 7.3125 1.984375 9.3125 4.671875 9.3125 Z M 0.25 12.3125 L 9.25 12.3125 L 9.25 38.3125 L 0.25 38.3125 Z M 40.25 21.8125 C 40.25 16.566406 35.996094 12.3125 30.75 12.3125 C 27.695312 12.3125 24.988281 13.757812 23.25 15.996094 L 23.25 12.3125 L 14.25 12.3125 L 14.25 38.3125 L 23.25 38.3125 L 23.25 23.3125 C 23.25 21.101562 25.039062 19.3125 27.25 19.3125 C 29.457031 19.3125 31.25 21.101562 31.25 23.3125 L 31.25 38.3125 L 40.25 38.3125 C 40.25 38.3125 40.25 23.265625 40.25 21.8125 Z M 40.25 21.8125 "/>
</g>
</svg>
