<?xml version="1.0" encoding="UTF-8"?>
<svg xmlns="http://www.w3.org/2000/svg" xmlns:xlink="http://www.w3.org/1999/xlink" viewBox="0 0 48 48" width="48px" height="48px">
<g id="surface68336111">
<path style=" stroke:none;fill-rule:nonzero;fill:rgb(6.666667%,6.666667%,6.666667%);fill-opacity:1;" d="M 4.671875 9.6875 L 4.722656 9.6875 C 7.511719 9.6875 9.25 7.6875 9.25 5.1875 C 9.199219 2.632812 7.511719 0.6875 4.777344 0.6875 C 2.039062 0.6875 0.25 2.632812 0.25 5.1875 C 0.25 7.6875 1.984375 9.6875 4.671875 9.6875 Z M 0.25 12.6875 L 9.25 12.6875 L 9.25 38.6875 L 0.25 38.6875 Z M 40.25 22.1875 C 40.25 16.941406 35.996094 12.6875 30.75 12.6875 C 27.695312 12.6875 24.988281 14.132812 23.25 16.371094 L 23.25 12.6875 L 14.25 12.6875 L 14.25 38.6875 L 23.25 38.6875 L 23.25 23.6875 C 23.25 21.476562 25.039062 19.6875 27.25 19.6875 C 29.457031 19.6875 31.25 21.476562 31.25 23.6875 L 31.25 38.6875 L 40.25 38.6875 C 40.25 38.6875 40.25 23.640625 40.25 22.1875 Z M 40.25 22.1875 "/>
</g>
</svg>
