<svg version="1.0" xmlns="http://www.w3.org/2000/svg"
 width="480.000000pt" height="480.000000pt" viewBox="0 0 480.000000 480.000000"
 preserveAspectRatio="xMidYMid meet">

<g transform="translate(0.000000,480.000000) scale(0.100000,-0.100000)"
fill="inherit" stroke="none">
<path d="M725 4530 c-241 -49 -415 -258 -415 -500 0 -180 84 -335 234 -432
209 -135 506 -95 666 91 179 206 170 501 -19 692 -125 125 -302 182 -466 149z"/>
<path d="M3375 3229 c-154 -20 -316 -81 -450 -172 -71 -49 -191 -166 -231
-227 l-29 -44 -3 182 -2 182 -420 0 -420 0 0 -1385 0 -1385 420 0 419 0 3 808
c3 797 4 808 25 885 31 109 75 187 144 252 72 68 143 102 257 122 70 12 103
13 171 4 239 -31 367 -186 400 -484 7 -60 11 -376 11 -842 l0 -745 435 0 435
0 0 888 c0 887 -5 1040 -35 1183 -95 460 -394 729 -865 779 -109 11 -167 11
-265 -1z"/>
<path d="M390 1765 l0 -1385 435 0 435 0 0 1385 0 1385 -435 0 -435 0 0 -1385z"/>
</g>
</svg>
