<svg version="1.0" xmlns="http://www.w3.org/2000/svg"
 width="1262.000000pt" height="1130.000000pt" viewBox="0 0 1262.000000 1130.000000"
 preserveAspectRatio="xMidYMid meet">
<g transform="translate(0.000000,1130.000000) scale(0.100000,-0.100000)"
fill="inherit" stroke="none">
<path d="M3370 11213 c-113 -6 -297 -24 -355 -33 -33 -6 -89 -15 -125 -21
-109 -18 -410 -96 -500 -129 -47 -18 -116 -43 -155 -57 -67 -24 -140 -57 -320
-145 -433 -213 -876 -590 -1197 -1016 -94 -125 -261 -389 -302 -477 -11 -22
-38 -78 -60 -125 -53 -108 -86 -189 -131 -320 -20 -58 -40 -114 -45 -126 -13
-33 -87 -342 -99 -414 -39 -240 -62 -484 -61 -660 1 -194 40 -549 81 -720 11
-47 25 -107 31 -135 6 -27 39 -135 74 -240 103 -313 250 -609 437 -880 166
-239 308 -399 736 -824 223 -222 1009 -1005 1746 -1740 2405 -2398 3050 -3032
3123 -3071 63 -33 148 -34 212 -3 44 22 215 190 695 683 195 201 630 642 1330
1350 220 223 965 972 1655 1665 691 693 1335 1341 1431 1440 303 312 507 594
675 935 48 96 90 186 95 200 4 14 22 63 39 110 18 47 41 109 51 138 27 75 99
352 114 442 30 177 44 282 50 383 4 59 11 107 16 107 5 0 9 79 9 180 0 101 -4
180 -9 180 -5 0 -12 44 -15 98 -6 97 -11 137 -41 327 -22 133 -88 399 -126
505 -17 47 -37 105 -45 130 -23 68 -64 165 -110 260 -22 47 -49 103 -60 125
-40 86 -206 350 -301 477 -310 416 -767 803 -1198 1016 -180 88 -253 121 -320
145 -38 14 -108 39 -155 57 -90 33 -391 111 -500 129 -36 6 -92 15 -125 21
-73 12 -239 27 -400 35 -111 6 -575 -17 -595 -30 -4 -3 -36 -9 -71 -14 -180
-27 -339 -63 -489 -111 -14 -4 -52 -16 -85 -26 -33 -9 -144 -52 -246 -95 -279
-116 -505 -248 -789 -462 -104 -79 -344 -304 -427 -402 -165 -193 -185 -215
-198 -215 -13 0 -33 22 -198 215 -83 98 -323 323 -427 402 -284 214 -510 346
-789 462 -102 43 -213 86 -246 95 -33 10 -71 22 -85 26 -150 48 -309 84 -489
111 -35 5 -67 11 -71 14 -12 8 -446 35 -520 33 -36 -1 -90 -3 -120 -5z m565
-504 c247 -37 319 -54 530 -124 191 -64 174 -57 385 -158 136 -65 343 -187
450 -266 65 -47 274 -225 349 -296 131 -124 279 -307 416 -514 93 -140 132
-166 250 -166 118 0 157 26 252 169 141 212 283 387 414 511 75 71 284 248
349 296 105 77 314 201 450 266 193 93 171 84 380 155 214 72 273 86 540 129
114 18 176 21 406 21 149 0 295 -5 325 -10 30 -6 101 -18 159 -27 237 -37 539
-126 725 -215 33 -16 97 -46 143 -68 200 -95 477 -286 667 -459 297 -271 524
-570 695 -920 38 -78 76 -159 84 -180 7 -21 30 -83 51 -138 20 -55 43 -125 51
-155 8 -30 26 -95 39 -145 13 -49 31 -135 39 -190 9 -55 21 -129 28 -165 15
-85 16 -624 0 -700 -6 -30 -19 -104 -28 -165 -9 -60 -22 -132 -30 -160 -59
-221 -76 -279 -83 -294 -5 -9 -18 -41 -29 -71 -52 -142 -75 -194 -140 -320
-106 -205 -194 -341 -338 -520 -120 -150 -111 -140 -638 -670 -3585 -3611
-3486 -3510 -4102 -4146 -197 -205 -364 -371 -371 -370 -17 2 -1149 1123
-3108 3077 -935 933 -1745 1741 -1800 1795 -287 284 -527 625 -675 959 -13 28
-33 73 -45 100 -65 142 -161 485 -184 655 -7 47 -17 114 -23 150 -15 84 -15
595 0 670 6 30 19 105 28 165 14 99 27 153 78 345 8 30 31 100 51 155 21 55
44 117 51 138 30 80 156 326 223 434 252 407 606 759 1006 1003 173 105 358
196 520 255 55 20 111 41 124 46 52 21 332 88 436 103 61 9 119 19 130 22 41
12 315 21 475 17 91 -2 224 -13 295 -24z"/>
</g>
</svg>
