<?xml version="1.0" encoding="UTF-8"?>
<svg xmlns="http://www.w3.org/2000/svg" xmlns:xlink="http://www.w3.org/1999/xlink" viewBox="0 0 512 512" width="512px" height="512px">
<g id="surface68487770">
<path style=" stroke:none;fill-rule:nonzero;fill:rgb(0%,0%,0%);fill-opacity:1;" d="M 457.464844 47.511719 C 440.671875 54.953125 422.617188 59.914062 403.570312 62.257812 C 422.9375 50.761719 437.832031 32.425781 444.824219 10.761719 C 426.707031 21.382812 406.632812 29.183594 385.273438 33.296875 C 368.214844 15.214844 343.886719 4 316.933594 4 C 265.15625 4 223.195312 45.601562 223.195312 96.890625 C 223.195312 104.144531 224.046875 111.21875 225.644531 118.082031 C 147.753906 114.171875 78.671875 77.144531 32.457031 20.953125 C 24.335938 34.679688 19.769531 50.761719 19.769531 67.730469 C 19.769531 99.976562 36.28125 128.363281 61.457031 145.089844 C 46.089844 144.621094 31.625 140.347656 18.960938 133.492188 C 18.960938 133.769531 18.960938 134.1875 18.960938 134.578125 C 18.960938 179.644531 51.28125 217.164062 94.121094 225.710938 C 86.289062 227.851562 78.019531 229.046875 69.488281 229.046875 C 63.433594 229.046875 57.539062 228.355469 51.824219 227.332031 C 63.753906 264.15625 98.363281 291.078125 139.363281 291.871094 C 107.28125 316.742188 66.882812 331.640625 22.945312 331.640625 C 15.351562 331.640625 7.9375 331.207031 0.601562 330.320312 C 42.097656 356.601562 91.386719 372.007812 144.292969 372.007812 C 316.6875 372.007812 410.992188 230.4375 410.992188 107.625 C 410.992188 103.601562 410.863281 99.59375 410.671875 95.632812 C 429.082031 82.640625 444.9375 66.242188 457.464844 47.511719 "/>
</g>
</svg>
