<?xml version="1.0" encoding="UTF-8"?>
<svg xmlns="http://www.w3.org/2000/svg" xmlns:xlink="http://www.w3.org/1999/xlink" viewBox="0 0 100 100" width="100px" height="100px">
<g id="surface68437670">
<path style=" stroke:none;fill-rule:nonzero;fill:rgb(0%,0%,0%);fill-opacity:1;" d="M 89.347656 9.28125 C 86.070312 10.734375 82.542969 11.703125 78.820312 12.160156 C 82.605469 9.914062 85.515625 6.332031 86.878906 2.101562 C 83.339844 4.175781 79.421875 5.699219 75.25 6.503906 C 71.917969 2.972656 67.164062 0.78125 61.902344 0.78125 C 51.789062 0.78125 43.59375 8.90625 43.59375 18.925781 C 43.59375 20.339844 43.757812 21.722656 44.070312 23.0625 C 28.859375 22.300781 15.367188 15.066406 6.339844 4.09375 C 4.753906 6.773438 3.859375 9.914062 3.859375 13.226562 C 3.859375 19.527344 7.085938 25.070312 12.003906 28.339844 C 9 28.246094 6.175781 27.410156 3.703125 26.074219 C 3.703125 26.128906 3.703125 26.207031 3.703125 26.285156 C 3.703125 35.085938 10.015625 42.414062 18.382812 44.082031 C 16.851562 44.503906 15.238281 44.734375 13.570312 44.734375 C 12.390625 44.734375 11.238281 44.601562 10.121094 44.402344 C 12.453125 51.59375 19.210938 56.851562 27.21875 57.007812 C 20.953125 61.863281 13.0625 64.773438 4.480469 64.773438 C 3 64.773438 1.550781 64.6875 0.117188 64.515625 C 8.222656 69.648438 17.847656 72.65625 28.183594 72.65625 C 61.851562 72.65625 80.273438 45.007812 80.273438 21.019531 C 80.273438 20.234375 80.246094 19.453125 80.210938 18.679688 C 83.804688 16.140625 86.902344 12.9375 89.347656 9.28125 "/>
</g>
</svg>
