<svg xmlns="http://www.w3.org/2000/svg" viewBox="0 0 50 50">
  <path d="M34.21875 5.46875C28.238281 5.46875 23.375 10.332031 23.375 16.3125C23.375 16.671875 23.464844 17.023438 23.5 17.375C16.105469 16.667969 9.566406 13.105469 5.125 7.65625C4.917969 7.394531 4.597656 7.253906 4.261719 7.277344C3.929688 7.300781 3.632813 7.492188 3.46875 7.78125C2.535156 9.386719 2 11.234375 2 13.21875C2 15.621094 2.859375 17.820313 4.1875 19.625C3.929688 19.511719 3.648438 19.449219 3.40625 19.3125C3.097656 19.148438 2.726563 19.15625 2.425781 19.335938C2.125 19.515625 1.941406 19.839844 1.9375 20.1875L1.9375 20.3125C1.9375 23.996094 3.84375 27.195313 6.65625 29.15625C6.625 29.152344 6.59375 29.164063 6.5625 29.15625C6.21875 29.097656 5.871094 29.21875 5.640625 29.480469C5.410156 29.742188 5.335938 30.105469 5.4375 30.4375C6.554688 33.910156 9.40625 36.5625 12.9375 37.53125C10.125 39.203125 6.863281 40.1875 3.34375 40.1875C2.582031 40.1875 1.851563 40.148438 1.125 40.0625C0.65625 40 0.207031 40.273438 0.0507813 40.71875C-0.109375 41.164063 0.0664063 41.660156 0.46875 41.90625C4.980469 44.800781 10.335938 46.5 16.09375 46.5C25.425781 46.5 32.746094 42.601563 37.65625 37.03125C42.566406 31.460938 45.125 24.226563 45.125 17.46875C45.125 17.183594 45.101563 16.90625 45.09375 16.625C46.925781 15.222656 48.5625 13.578125 49.84375 11.65625C50.097656 11.285156 50.070313 10.789063 49.777344 10.445313C49.488281 10.101563 49 9.996094 48.59375 10.1875C48.078125 10.417969 47.476563 10.441406 46.9375 10.625C47.648438 9.675781 48.257813 8.652344 48.625 7.5C48.75 7.105469 48.613281 6.671875 48.289063 6.414063C47.964844 6.160156 47.511719 6.128906 47.15625 6.34375C45.449219 7.355469 43.558594 8.066406 41.5625 8.5C39.625 6.6875 37.074219 5.46875 34.21875 5.46875 Z M 34.21875 7.46875C36.769531 7.46875 39.074219 8.558594 40.6875 10.28125C40.929688 10.53125 41.285156 10.636719 41.625 10.5625C42.929688 10.304688 44.167969 9.925781 45.375 9.4375C44.679688 10.375 43.820313 11.175781 42.8125 11.78125C42.355469 12.003906 42.140625 12.53125 42.308594 13.011719C42.472656 13.488281 42.972656 13.765625 43.46875 13.65625C44.46875 13.535156 45.359375 13.128906 46.3125 12.875C45.457031 13.800781 44.519531 14.636719 43.5 15.375C43.222656 15.578125 43.070313 15.90625 43.09375 16.25C43.109375 16.65625 43.125 17.058594 43.125 17.46875C43.125 23.71875 40.726563 30.503906 36.15625 35.6875C31.585938 40.871094 24.875 44.5 16.09375 44.5C12.105469 44.5 8.339844 43.617188 4.9375 42.0625C9.15625 41.738281 13.046875 40.246094 16.1875 37.78125C16.515625 37.519531 16.644531 37.082031 16.511719 36.683594C16.378906 36.285156 16.011719 36.011719 15.59375 36C12.296875 35.941406 9.535156 34.023438 8.0625 31.3125C8.117188 31.3125 8.164063 31.3125 8.21875 31.3125C9.207031 31.3125 10.183594 31.1875 11.09375 30.9375C11.53125 30.808594 11.832031 30.402344 11.816406 29.945313C11.800781 29.488281 11.476563 29.097656 11.03125 29C7.472656 28.28125 4.804688 25.382813 4.1875 21.78125C5.195313 22.128906 6.226563 22.402344 7.34375 22.4375C7.800781 22.464844 8.214844 22.179688 8.355469 21.746094C8.496094 21.3125 8.324219 20.835938 7.9375 20.59375C5.5625 19.003906 4 16.296875 4 13.21875C4 12.078125 4.296875 11.03125 4.6875 10.03125C9.6875 15.519531 16.6875 19.164063 24.59375 19.5625C24.90625 19.578125 25.210938 19.449219 25.414063 19.210938C25.617188 18.96875 25.695313 18.648438 25.625 18.34375C25.472656 17.695313 25.375 17.007813 25.375 16.3125C25.375 11.414063 29.320313 7.46875 34.21875 7.46875Z" fill="#5B5B5B" />
</svg>