<?xml version="1.0" standalone="no"?>
<!DOCTYPE svg PUBLIC "-//W3C//DTD SVG 20010904//EN"
 "http://www.w3.org/TR/2001/REC-SVG-20010904/DTD/svg10.dtd">
<svg version="1.0" xmlns="http://www.w3.org/2000/svg"
 width="980.000000pt" height="880.000000pt" viewBox="0 0 980.000000 880.000000"
 preserveAspectRatio="xMidYMid meet">
<metadata>
Created by potrace 1.16, written by Peter Selinger 2001-2019
</metadata>
<g transform="translate(0.000000,880.000000) scale(0.100000,-0.100000)"
fill="#000000" stroke="none">
<path d="M2475 8783 c-105 -9 -361 -58 -469 -89 -489 -140 -884 -377 -1236
-740 -416 -429 -666 -950 -751 -1564 -8 -58 -13 -189 -13 -340 0 -202 4 -270
23 -389 80 -517 295 -992 625 -1375 71 -82 4235 -4276 4246 -4276 8 0 4180
4197 4238 4264 270 309 475 704 576 1104 62 247 79 393 80 667 1 253 -7 344
-50 555 -103 514 -346 975 -714 1354 -159 163 -279 264 -455 381 -370 247
-779 395 -1227 444 -139 16 -452 14 -599 -4 -682 -79 -1312 -412 -1753 -925
-49 -58 -93 -105 -96 -105 -3 0 -47 47 -96 105 -444 514 -1070 845 -1751 925
-116 14 -463 18 -578 8z m634 -498 c413 -64 802 -236 1126 -498 109 -88 295
-282 383 -399 89 -118 186 -279 238 -393 22 -47 41 -85 44 -85 3 1 23 40 45
87 167 361 467 704 820 935 749 492 1731 502 2498 27 549 -341 931 -905 1048
-1549 27 -146 37 -488 19 -641 -38 -330 -148 -653 -320 -934 -137 -225 -124
-212 -1829 -1909 -889 -886 -1765 -1758 -1948 -1940 l-332 -330 -373 369
c-1168 1155 -3468 3451 -3522 3515 -134 160 -214 279 -306 456 -265 515 -317
1153 -140 1709 69 214 152 386 277 574 386 577 1005 948 1703 1021 120 12 446
4 569 -15z"/>
</g>
</svg>
