<svg width="980" height="880" version="1.1" xmlns="http://www.w3.org/2000/svg" desc="Created with imagetracer.js version 1.2.6" ><path fill="rgb(0,0,0)" stroke="rgb(0,0,0)" stroke-width="1" opacity="1" d="M 253.5 1 L 293.5 1 L 294.5 2 L 304.5 2 L 305.5 3 L 312.5 3 L 313.5 4 L 324.5 5 L 325.5 6 L 329.5 6 L 334.5 8 L 342.5 9 L 346.5 11 L 356.5 13 L 365.5 17 L 373.5 19 L 405.5 34 L 432.5 51 Q 456.43 68.07 476 89.5 L 489.5 106 L 493 103.5 Q 505.58 86.08 521.5 72 L 547.5 51 L 567.5 38 L 592.5 25 L 594.5 25 L 599.5 22 L 614.5 17 L 617.5 15 L 623.5 14 L 630.5 11 L 633.5 11 L 637.5 9 L 641.5 9 L 650.5 6 L 660.5 5 L 661.5 4 L 666.5 4 L 667.5 3 L 674.5 3 L 675.5 2 L 685.5 2 L 686.5 1 L 726.5 1 L 727.5 2 L 737.5 2 L 738.5 3 L 744.5 3 L 745.5 4 L 757.5 5 L 762.5 7 L 766.5 7 L 767.5 8 L 782.5 11 L 800.5 17 L 803.5 19 L 808.5 20 L 826.5 29 L 828.5 29 L 830.5 31 L 851.5 42 L 875.5 59 Q 895.36 74.64 912 93.5 L 928 113.5 L 940 131.5 L 956 161.5 L 956 163.5 L 963 178.5 L 969 196.5 L 969 199.5 L 971 203.5 L 971 206.5 L 974 215.5 L 974 219.5 L 975 220.5 L 975 224.5 L 976 225.5 L 976 230.5 L 977 231.5 L 978 246.5 L 979 247.5 L 979 259.5 L 980 260.5 L 980 288.5 L 979 289.5 L 979 301.5 L 978 302.5 L 978 309.5 L 977 310.5 L 977 316.5 L 976 317.5 L 975 328.5 L 973 333.5 L 973 337.5 L 972 338.5 L 971 345.5 L 969 349.5 L 969 352.5 L 963 370.5 L 956 385.5 L 956 387.5 L 947 405.5 L 945 407.5 L 940 417.5 L 921 444.5 L 908 459.5 L 490.5 879 L 449 838.5 L 74 461.5 L 57 441.5 L 44 423.5 L 43 420.5 L 36 410.5 L 32 401.5 L 30 399.5 L 27 393.5 L 27 391.5 L 22 382.5 L 22 380.5 L 20 377.5 L 20 375.5 L 18 372.5 L 18 370.5 L 16 367.5 L 12 355.5 L 12 352.5 L 10 348.5 L 10 345.5 L 8 341.5 L 8 337.5 L 6 332.5 L 6 328.5 L 4 322.5 L 4 317.5 L 3 316.5 L 3 310.5 L 2 309.5 L 2 302.5 L 1 301.5 L 1 288.5 L 0 287.5 L 0 260.5 L 1 259.5 L 1 247.5 L 2 246.5 L 2 238.5 L 3 237.5 L 3 231.5 L 4 230.5 L 4 225.5 L 5 224.5 L 6 215.5 L 7 214.5 L 10 199.5 L 17 178.5 L 24 163.5 L 24 161.5 L 37 136.5 L 52 113.5 Q 70.01 89.01 92.5 69 Q 107.9 55.4 125.5 44 L 128.5 43 L 138.5 36 L 164.5 23 L 166.5 23 L 179.5 17 L 194.5 12 L 197.5 12 L 201.5 10 L 204.5 10 L 213.5 7 L 217.5 7 L 218.5 6 L 222.5 6 L 228.5 4 L 241.5 3 L 242.5 2 L 252.5 2 L 253.5 1 Z M 261 49 L 260 50 L 250 50 L 249 51 L 242 51 L 236 53 L 227 54 L 226 55 L 222 55 L 186 67 L 167 76 L 165 78 L 155 83 L 125 105 Q 105 122 89 144 L 77 162 L 65 185 L 65 187 L 62 192 L 62 194 L 60 197 L 59 202 L 55 211 L 55 214 L 53 218 L 51 229 L 50 230 L 49 240 L 48 241 L 48 246 L 47 247 L 47 254 L 46 255 L 46 268 L 45 269 L 45 287 L 46 288 L 46 301 L 47 302 L 48 316 L 49 317 L 49 322 L 51 327 L 52 335 L 54 339 L 54 342 L 60 360 L 72 386 L 74 388 L 79 398 Q 89 414 102 429 L 490 814 L 528 778 L 747 560 L 877 430 L 893 410 L 909 384 L 921 357 L 926 342 L 929 327 L 930 326 L 930 322 L 931 321 L 932 310 L 933 309 L 933 301 L 934 300 L 934 286 L 935 285 L 934 256 L 933 255 L 932 241 L 931 240 L 931 236 L 930 235 L 929 227 L 928 226 L 928 222 L 926 218 L 926 215 L 920 197 L 907 169 L 901 159 L 891 144 L 879 129 L 850 100 L 826 83 L 802 70 L 800 70 L 785 63 L 770 58 L 767 58 L 763 56 L 755 55 L 750 53 L 745 53 L 744 52 L 739 52 L 738 51 L 732 51 L 731 50 L 721 50 L 720 49 L 687 49 L 686 50 L 669 51 L 668 52 L 663 52 L 662 53 L 658 53 L 657 54 L 653 54 L 644 57 L 641 57 L 620 64 L 592 77 L 577 86 Q 558 98 543 113 L 526 131 L 515 145 L 502 165 L 491 187 Q 492 189 489 188 L 479 167 L 467 148 L 453 130 L 440 117 L 440 115 L 439 115 L 428 104 L 404 86 L 389 78 L 387 76 L 361 64 L 340 57 L 329 55 L 328 54 L 324 54 L 323 53 L 319 53 L 318 52 L 313 52 L 312 51 L 295 50 L 294 49 L 261 49 Z " /><path fill="rgb(255,255,255)" stroke="rgb(255,255,255)" stroke-width="1" opacity="0" d="M 0 0 L 259 0.5 L 246.5 1 L 245.5 2 L 237.5 2 L 236.5 3 L 230.5 3 L 229.5 4 L 224.5 4 L 223.5 5 L 214.5 6 L 213.5 7 L 198.5 10 L 177.5 17 L 162.5 24 L 160.5 24 L 135.5 37 L 112.5 52 Q 87.33 70.33 67 93.5 L 54 109.5 L 41 128.5 L 32 145.5 L 30 147.5 L 21 166.5 L 21 168.5 L 19 171.5 L 19 173.5 L 17 176.5 L 16 181.5 L 12 190.5 L 12 193.5 L 9 200.5 L 9 203.5 L 6 212.5 L 6 216.5 L 5 217.5 L 5 221.5 L 3 227.5 L 3 232.5 L 2 233.5 L 2 240.5 L 1 241.5 L 0.5 251 L 0 0 Z " /><path fill="rgb(255,255,255)" stroke="rgb(255,255,255)" stroke-width="1" opacity="0" d="M 288.5 0 L 692 0.5 L 679.5 1 L 678.5 2 L 663.5 3 L 662.5 4 L 657.5 4 L 656.5 5 L 652.5 5 L 651.5 6 L 647.5 6 L 646.5 7 L 631.5 10 L 627.5 12 L 624.5 12 L 612.5 16 L 609.5 18 L 597.5 22 L 588.5 27 L 586.5 27 L 559.5 42 L 543.5 53 Q 521.33 69.33 503 89.5 L 490.5 105 L 488 103.5 Q 475.11 85.39 458.5 71 L 440.5 56 L 420.5 42 L 403.5 33 L 401.5 31 L 382.5 22 L 380.5 22 L 367.5 16 L 355.5 12 L 352.5 12 L 348.5 10 L 345.5 10 L 341.5 8 L 337.5 8 L 332.5 6 L 328.5 6 L 322.5 4 L 317.5 4 L 316.5 3 L 310.5 3 L 309.5 2 L 301.5 2 L 300.5 1 L 288.5 1 L 288.5 0 Z " /><path fill="rgb(255,255,255)" stroke="rgb(255,255,255)" stroke-width="1" opacity="0" d="M 721.5 0 L 980 0 L 980 250.5 L 979 250.5 L 978 233.5 L 977 232.5 L 977 227.5 L 976 226.5 L 976 222.5 L 975 221.5 L 975 217.5 L 974 216.5 L 974 212.5 L 973 211.5 L 972 204.5 L 970 200.5 L 968 190.5 L 964 181.5 L 963 176.5 L 950 147.5 L 948 145.5 L 941 131.5 L 926 109.5 L 913 93.5 L 887.5 68 L 875.5 58 L 854.5 43 L 839.5 34 L 812.5 21 L 810.5 21 L 802.5 17 L 781.5 10 L 778.5 10 L 777.5 9 L 774.5 9 L 765.5 6 L 761.5 6 L 755.5 4 L 750.5 4 L 749.5 3 L 743.5 3 L 742.5 2 L 734.5 2 L 733.5 1 L 721.5 1 L 721.5 0 Z " /><path fill="rgb(255,255,255)" stroke="rgb(255,255,255)" stroke-width="1" opacity="0" d="M 276.5 49 L 278.5 50 L 297.5 50 L 298.5 51 L 306.5 51 L 307.5 52 L 319.5 53 L 324.5 55 L 328.5 55 L 329.5 56 L 340.5 58 L 358.5 64 L 368.5 69 L 370.5 69 L 390.5 79 L 409.5 91 L 427.5 105 L 452 129.5 L 464 144.5 L 474 159.5 L 486 181.5 L 486 183.5 L 489 190 Q 491.67 191.13 491 188.5 L 499 171.5 L 511 151.5 L 527 130.5 L 542.5 114 L 570.5 91 L 589.5 79 L 611.5 68 L 613.5 68 L 621.5 64 L 636.5 59 L 639.5 59 L 643.5 57 L 646.5 57 L 651.5 55 L 655.5 55 L 660.5 53 L 672.5 52 L 673.5 51 L 681.5 51 L 682.5 50 L 701.5 50 L 703.5 49 L 704.5 50 L 724.5 50 L 725.5 51 L 732.5 51 L 733.5 52 L 739.5 52 L 740.5 53 L 745.5 53 L 746.5 54 L 755.5 55 L 756.5 56 L 763.5 57 L 767.5 59 L 770.5 59 L 782.5 63 L 797.5 70 L 799.5 70 L 822.5 82 L 840.5 94 L 856.5 107 L 878 128.5 L 899 156.5 L 905 166.5 L 920 198.5 L 925 213.5 L 925 216.5 L 927 220.5 L 928 228.5 L 930 233.5 L 931 244.5 L 932 245.5 L 932 251.5 L 933 252.5 L 933 263.5 L 934 264.5 L 934 291.5 L 933 292.5 L 933 303.5 L 932 304.5 L 932 310.5 L 931 311.5 L 930 322.5 L 929 323.5 L 927 335.5 L 924 342.5 L 924 345.5 L 921 354.5 L 919 357.5 L 915 369.5 L 906 387.5 L 892 409.5 L 876 429.5 L 760.5 545 L 541.5 763 L 489.5 813 L 103 428.5 L 88 409.5 L 78 394.5 L 65 369.5 L 65 367.5 L 59 354.5 L 55 342.5 L 55 339.5 L 53 335.5 L 52 327.5 L 50 322.5 L 50 318.5 L 49 317.5 L 49 312.5 L 48 311.5 L 48 304.5 L 47 303.5 L 47 293.5 L 46 292.5 L 46 262.5 L 47 261.5 L 47 252.5 L 48 251.5 L 49 238.5 L 50 237.5 L 50 233.5 L 51 232.5 L 51 228.5 L 52 227.5 L 54 216.5 L 60 198.5 L 64 190.5 L 64 188.5 L 75 166.5 L 87 147.5 L 97 134.5 L 124.5 106 L 139.5 94 L 157.5 82 L 180.5 70 L 182.5 70 L 197.5 63 L 209.5 59 L 212.5 59 L 216.5 57 L 219.5 57 L 224.5 55 L 228.5 55 L 229.5 54 L 233.5 54 L 234.5 53 L 246.5 52 L 247.5 51 L 254.5 51 L 255.5 50 L 275.5 50 L 276.5 49 Z " /><path fill="rgb(255,255,255)" stroke="rgb(255,255,255)" stroke-width="1" opacity="0" d="M 0.5 298 L 1 307.5 L 2 308.5 L 2 314.5 L 3 315.5 L 3 320.5 L 4 321.5 L 5 331.5 L 6 332.5 L 6 335.5 L 7 336.5 L 10 351.5 L 16 369.5 L 20 377.5 L 20 379.5 L 34 408.5 L 40 418.5 L 50 433.5 L 64 451.5 L 489 879.5 L 0 880 L 0.5 298 Z " /><path fill="rgb(255,255,255)" stroke="rgb(255,255,255)" stroke-width="1" opacity="0" d="M 979.5 298 L 980 880 L 491 879.5 L 917 450.5 L 939 420.5 L 948 403.5 L 950 401.5 L 959 382.5 L 965 364.5 L 967 361.5 L 967 358.5 L 970 351.5 L 970 348.5 L 974 336.5 L 974 332.5 L 975 331.5 L 975 327.5 L 977 321.5 L 977 315.5 L 978 314.5 L 979.5 298 Z " /><path fill="rgb(191,191,191)" stroke="rgb(191,191,191)" stroke-width="1" opacity="1" d="M 259.5 0 L 288 0.5 L 259.5 1 L 259.5 0 Z " /><path fill="rgb(191,191,191)" stroke="rgb(191,191,191)" stroke-width="1" opacity="1" d="M 692.5 0 L 721 0.5 L 692.5 1 L 692.5 0 Z " /><path fill="rgb(191,191,191)" stroke="rgb(191,191,191)" stroke-width="1" opacity="1" d="M 246.5 1 L 253 1.5 L 246.5 2 L 246.5 1 Z " /><path fill="rgb(191,191,191)" stroke="rgb(191,191,191)" stroke-width="1" opacity="1" d="M 294.5 1 L 301 1.5 L 294.5 2 L 294.5 1 Z " /><path fill="rgb(191,191,191)" stroke="rgb(191,191,191)" stroke-width="1" opacity="1" d="M 679.5 1 L 686 1.5 L 679.5 2 L 679.5 1 Z " /><path fill="rgb(191,191,191)" stroke="rgb(191,191,191)" stroke-width="1" opacity="1" d="M 727.5 1 L 734 1.5 L 727.5 2 L 727.5 1 Z " /><path fill="rgb(191,191,191)" stroke="rgb(191,191,191)" stroke-width="1" opacity="1" d="M 237.5 2 L 242 2.5 L 237.5 3 L 237.5 2 Z " /><path fill="rgb(191,191,191)" stroke="rgb(191,191,191)" stroke-width="1" opacity="1" d="M 305.5 2 L 310 2.5 L 305.5 3 L 305.5 2 Z " /><path fill="rgb(191,191,191)" stroke="rgb(191,191,191)" stroke-width="1" opacity="1" d="M 670.5 2 L 675 2.5 L 670.5 3 L 670.5 2 Z " /><path fill="rgb(191,191,191)" stroke="rgb(191,191,191)" stroke-width="1" opacity="1" d="M 738.5 2 L 743 2.5 L 738.5 3 L 738.5 2 Z " /><path fill="rgb(191,191,191)" stroke="rgb(191,191,191)" stroke-width="1" opacity="1" d="M 230.5 3 L 235 3.5 L 230.5 4 L 230.5 3 Z " /><path fill="rgb(191,191,191)" stroke="rgb(191,191,191)" stroke-width="1" opacity="1" d="M 313.5 3 L 317 3.5 L 313.5 4 L 313.5 3 Z " /><path fill="rgb(191,191,191)" stroke="rgb(191,191,191)" stroke-width="1" opacity="1" d="M 663.5 3 L 667 3.5 L 663.5 4 L 663.5 3 Z " /><path fill="rgb(191,191,191)" stroke="rgb(191,191,191)" stroke-width="1" opacity="1" d="M 745.5 3 L 750 3.5 L 745.5 4 L 745.5 3 Z " /><path fill="rgb(191,191,191)" stroke="rgb(191,191,191)" stroke-width="1" opacity="1" d="M 224.5 4 L 228 4.5 L 224.5 5 L 224.5 4 Z " /><path fill="rgb(191,191,191)" stroke="rgb(191,191,191)" stroke-width="1" opacity="1" d="M 319.5 4 L 323 4.5 L 319.5 5 L 319.5 4 Z " /><path fill="rgb(191,191,191)" stroke="rgb(191,191,191)" stroke-width="1" opacity="1" d="M 657.5 4 L 661 4.5 L 657.5 5 L 657.5 4 Z " /><path fill="rgb(191,191,191)" stroke="rgb(191,191,191)" stroke-width="1" opacity="1" d="M 752.5 4 L 756 4.5 L 752.5 5 L 752.5 4 Z " /><path fill="rgb(191,191,191)" stroke="rgb(191,191,191)" stroke-width="1" opacity="1" d="M 219.5 5 L 223 5.5 L 219.5 6 L 219.5 5 Z " /><path fill="rgb(191,191,191)" stroke="rgb(191,191,191)" stroke-width="1" opacity="1" d="M 325.5 5 L 328 5.5 L 325.5 6 L 325.5 5 Z " /><path fill="rgb(191,191,191)" stroke="rgb(191,191,191)" stroke-width="1" opacity="1" d="M 652.5 5 L 655 5.5 L 652.5 6 L 652.5 5 Z " /><path fill="rgb(191,191,191)" stroke="rgb(191,191,191)" stroke-width="1" opacity="1" d="M 758.5 5 L 761 5.5 L 758.5 6 L 758.5 5 Z " /><path fill="rgb(191,191,191)" stroke="rgb(191,191,191)" stroke-width="1" opacity="1" d="M 214.5 6 L 218 6.5 L 214.5 7 L 214.5 6 Z " /><path fill="rgb(191,191,191)" stroke="rgb(191,191,191)" stroke-width="1" opacity="1" d="M 330.5 6 L 333 6.5 L 330.5 7 L 330.5 6 Z " /><path fill="rgb(191,191,191)" stroke="rgb(191,191,191)" stroke-width="1" opacity="1" d="M 647.5 6 L 650 6.5 L 647.5 7 L 647.5 6 Z " /><path fill="rgb(191,191,191)" stroke="rgb(191,191,191)" stroke-width="1" opacity="1" d="M 762.5 6 L 766 6.5 L 762.5 7 L 762.5 6 Z " /><path fill="rgb(191,191,191)" stroke="rgb(191,191,191)" stroke-width="1" opacity="1" d="M 210.5 7 L 213 7.5 L 210.5 8 L 210.5 7 Z " /><path fill="rgb(191,191,191)" stroke="rgb(191,191,191)" stroke-width="1" opacity="1" d="M 334.5 7 L 337 7.5 L 334.5 8 L 334.5 7 Z " /><path fill="rgb(191,191,191)" stroke="rgb(191,191,191)" stroke-width="1" opacity="1" d="M 643.5 7 L 646 7.5 L 643.5 8 L 643.5 7 Z " /><path fill="rgb(191,191,191)" stroke="rgb(191,191,191)" stroke-width="1" opacity="1" d="M 767.5 7 L 770 7.5 L 767.5 8 L 767.5 7 Z " /><path fill="rgb(191,191,191)" stroke="rgb(191,191,191)" stroke-width="1" opacity="1" d="M 206.5 8 L 209 8.5 L 206.5 9 L 206.5 8 Z " /><path fill="rgb(191,191,191)" stroke="rgb(191,191,191)" stroke-width="1" opacity="1" d="M 339.5 8 L 342 8.5 L 339.5 9 L 339.5 8 Z " /><path fill="rgb(191,191,191)" stroke="rgb(191,191,191)" stroke-width="1" opacity="1" d="M 639.5 8 L 642 8.5 L 639.5 9 L 639.5 8 Z " /><path fill="rgb(191,191,191)" stroke="rgb(191,191,191)" stroke-width="1" opacity="1" d="M 771.5 8 L 774 8.5 L 771.5 9 L 771.5 8 Z " /><path fill="rgb(191,191,191)" stroke="rgb(191,191,191)" stroke-width="1" opacity="1" d="M 202.5 9 L 205 9.5 L 202.5 10 L 202.5 9 Z " /><path fill="rgb(191,191,191)" stroke="rgb(191,191,191)" stroke-width="1" opacity="1" d="M 343.5 9 L 345 9.5 L 343.5 10 L 343.5 9 Z " /><path fill="rgb(191,191,191)" stroke="rgb(191,191,191)" stroke-width="1" opacity="1" d="M 635.5 9 L 637 9.5 L 635.5 10 L 635.5 9 Z " /><path fill="rgb(191,191,191)" stroke="rgb(191,191,191)" stroke-width="1" opacity="1" d="M 775.5 9 L 778 9.5 L 775.5 10 L 775.5 9 Z " /><path fill="rgb(191,191,191)" stroke="rgb(191,191,191)" stroke-width="1" opacity="1" d="M 198.5 10 L 201 10.5 L 195.5 12 L 195.5 11 L 198.5 10 Z " /><path fill="rgb(191,191,191)" stroke="rgb(191,191,191)" stroke-width="1" opacity="1" d="M 346.5 10 L 349 10.5 L 346.5 11 L 346.5 10 Z " /><path fill="rgb(191,191,191)" stroke="rgb(191,191,191)" stroke-width="1" opacity="1" d="M 631.5 10 L 634 10.5 L 631.5 11 L 631.5 10 Z " /><path fill="rgb(191,191,191)" stroke="rgb(191,191,191)" stroke-width="1" opacity="1" d="M 779.5 10 L 782 10.5 L 779.5 11 L 779.5 10 Z " /><path fill="rgb(191,191,191)" stroke="rgb(191,191,191)" stroke-width="1" opacity="1" d="M 350.5 11 L 352 11.5 L 350.5 12 L 350.5 11 Z " /><path fill="rgb(191,191,191)" stroke="rgb(191,191,191)" stroke-width="1" opacity="1" d="M 628.5 11 L 630 11.5 L 628.5 12 L 628.5 11 Z " /><path fill="rgb(191,191,191)" stroke="rgb(191,191,191)" stroke-width="1" opacity="1" d="M 783.5 11 L 785 11.5 L 783.5 12 L 783.5 11 Z " /><path fill="rgb(191,191,191)" stroke="rgb(191,191,191)" stroke-width="1" opacity="1" d="M 192.5 12 L 194 12.5 L 192.5 13 L 192.5 12 Z " /><path fill="rgb(191,191,191)" stroke="rgb(191,191,191)" stroke-width="1" opacity="1" d="M 353.5 12 L 356 12.5 L 353.5 13 L 353.5 12 Z " /><path fill="rgb(191,191,191)" stroke="rgb(191,191,191)" stroke-width="1" opacity="1" d="M 624.5 12 L 627 12.5 L 621.5 14 L 621.5 13 L 624.5 12 Z " /><path fill="rgb(191,191,191)" stroke="rgb(191,191,191)" stroke-width="1" opacity="1" d="M 786.5 12 L 788 12.5 L 786.5 13 L 786.5 12 Z " /><path fill="rgb(191,191,191)" stroke="rgb(191,191,191)" stroke-width="1" opacity="1" d="M 189.5 13 L 191 13.5 L 189.5 14 L 189.5 13 Z " /><path fill="rgb(191,191,191)" stroke="rgb(191,191,191)" stroke-width="1" opacity="1" d="M 357.5 13 L 359 13.5 L 357.5 14 L 357.5 13 Z " /><path fill="rgb(191,191,191)" stroke="rgb(191,191,191)" stroke-width="1" opacity="1" d="M 789.5 13 L 791 13.5 L 789.5 14 L 789.5 13 Z " /><path fill="rgb(191,191,191)" stroke="rgb(191,191,191)" stroke-width="1" opacity="1" d="M 186.5 14 L 188 14.5 L 186.5 15 L 186.5 14 Z " /><path fill="rgb(191,191,191)" stroke="rgb(191,191,191)" stroke-width="1" opacity="1" d="M 360.5 14 L 362 14.5 L 360.5 15 L 360.5 14 Z " /><path fill="rgb(191,191,191)" stroke="rgb(191,191,191)" stroke-width="1" opacity="1" d="M 618.5 14 L 620 14.5 L 618.5 15 L 618.5 14 Z " /><path fill="rgb(191,191,191)" stroke="rgb(191,191,191)" stroke-width="1" opacity="1" d="M 792.5 14 L 794 14.5 L 792.5 15 L 792.5 14 Z " /><path fill="rgb(191,191,191)" stroke="rgb(191,191,191)" stroke-width="1" opacity="1" d="M 183.5 15 L 185 15.5 L 183.5 16 L 183.5 15 Z " /><path fill="rgb(191,191,191)" stroke="rgb(191,191,191)" stroke-width="1" opacity="1" d="M 363.5 15 L 370 17.5 L 368.5 18 L 363.5 16 L 363.5 15 Z " /><path fill="rgb(191,191,191)" stroke="rgb(191,191,191)" stroke-width="1" opacity="1" d="M 615.5 15 L 617 15.5 L 610.5 18 L 610.5 17 L 615.5 15 Z " /><path fill="rgb(191,191,191)" stroke="rgb(191,191,191)" stroke-width="1" opacity="1" d="M 795.5 15 L 797 15.5 L 795.5 16 L 795.5 15 Z " /><path fill="rgb(191,191,191)" stroke="rgb(191,191,191)" stroke-width="1" opacity="1" d="M 180.5 16 L 182 16.5 L 180.5 17 L 180.5 16 Z " /><path fill="rgb(191,191,191)" stroke="rgb(191,191,191)" stroke-width="1" opacity="1" d="M 798.5 16 L 800 16.5 L 798.5 17 L 798.5 16 Z " /><path fill="rgb(191,191,191)" stroke="rgb(191,191,191)" stroke-width="1" opacity="1" d="M 177.5 17 L 179 17.5 L 175.5 19 L 175.5 18 L 177.5 17 Z " /><path fill="rgb(191,191,191)" stroke="rgb(191,191,191)" stroke-width="1" opacity="1" d="M 801.5 17 L 805 18.5 L 803.5 19 L 801 17.5 L 801.5 17 Z " /><path fill="rgb(191,191,191)" stroke="rgb(191,191,191)" stroke-width="1" opacity="1" d="M 371.5 18 L 373 18.5 L 371.5 19 L 371.5 18 Z " /><path fill="rgb(191,191,191)" stroke="rgb(191,191,191)" stroke-width="1" opacity="1" d="M 607.5 18 L 609 18.5 L 607.5 19 L 607.5 18 Z " /><path fill="rgb(191,191,191)" stroke="rgb(191,191,191)" stroke-width="1" opacity="1" d="M 172.5 19 L 174 19.5 L 170.5 21 L 170.5 20 L 172.5 19 Z " /><path fill="rgb(191,191,191)" stroke="rgb(191,191,191)" stroke-width="1" opacity="1" d="M 374.5 19 L 374.5 20 L 374.5 19 Z " /><path fill="rgb(191,191,191)" stroke="rgb(191,191,191)" stroke-width="1" opacity="1" d="M 605.5 19 L 605.5 20 L 605.5 19 Z " /><path fill="rgb(191,191,191)" stroke="rgb(191,191,191)" stroke-width="1" opacity="1" d="M 806.5 19 L 808 19.5 L 806.5 20 L 806.5 19 Z " /><path fill="rgb(191,191,191)" stroke="rgb(191,191,191)" stroke-width="1" opacity="1" d="M 376.5 20 L 378 20.5 L 376.5 21 L 376.5 20 Z " /><path fill="rgb(191,191,191)" stroke="rgb(191,191,191)" stroke-width="1" opacity="1" d="M 602.5 20 L 604 20.5 L 600.5 22 L 600.5 21 L 602.5 20 Z " /><path fill="rgb(191,191,191)" stroke="rgb(191,191,191)" stroke-width="1" opacity="1" d="M 809.5 20 L 809.5 21 L 809.5 20 Z " /><path fill="rgb(191,191,191)" stroke="rgb(191,191,191)" stroke-width="1" opacity="1" d="M 167.5 21 L 169 21.5 L 165.5 23 L 165.5 22 L 167.5 21 Z " /><path fill="rgb(191,191,191)" stroke="rgb(191,191,191)" stroke-width="1" opacity="1" d="M 379.5 21 L 379.5 22 L 379.5 21 Z " /><path fill="rgb(191,191,191)" stroke="rgb(191,191,191)" stroke-width="1" opacity="1" d="M 811.5 21 L 815 22.5 L 813.5 23 L 811 21.5 L 811.5 21 Z " /><path fill="rgb(191,191,191)" stroke="rgb(191,191,191)" stroke-width="1" opacity="1" d="M 381.5 22 L 387 24.5 L 385.5 25 L 381.5 23 L 381.5 22 Z " /><path fill="rgb(191,191,191)" stroke="rgb(191,191,191)" stroke-width="1" opacity="1" d="M 597.5 22 L 599 22.5 L 593.5 25 L 593.5 24 L 597.5 22 Z " /><path fill="rgb(191,191,191)" stroke="rgb(191,191,191)" stroke-width="1" opacity="1" d="M 163.5 23 L 163.5 24 L 163.5 23 Z " /><path fill="rgb(191,191,191)" stroke="rgb(191,191,191)" stroke-width="1" opacity="1" d="M 816.5 23 L 816.5 24 L 816.5 23 Z " /><path fill="rgb(191,191,191)" stroke="rgb(191,191,191)" stroke-width="1" opacity="1" d="M 160.5 24 L 162 24.5 L 141.5 35 Q 140 34 142.5 33 L 160.5 24 Z " /><path fill="rgb(191,191,191)" stroke="rgb(191,191,191)" stroke-width="1" opacity="1" d="M 818.5 24 L 828 28.5 L 826.5 29 L 818.5 25 L 818.5 24 Z " /><path fill="rgb(191,191,191)" stroke="rgb(191,191,191)" stroke-width="1" opacity="1" d="M 388.5 25 L 388.5 26 L 388.5 25 Z " /><path fill="rgb(191,191,191)" stroke="rgb(191,191,191)" stroke-width="1" opacity="1" d="M 591.5 25 L 591.5 26 L 591.5 25 Z " /><path fill="rgb(191,191,191)" stroke="rgb(191,191,191)" stroke-width="1" opacity="1" d="M 390.5 26 L 403 32.5 L 401.5 32 L 390.5 27 L 390.5 26 Z " /><path fill="rgb(191,191,191)" stroke="rgb(191,191,191)" stroke-width="1" opacity="1" d="M 589.5 26 L 589.5 27 L 589.5 26 Z " /><path fill="rgb(191,191,191)" stroke="rgb(191,191,191)" stroke-width="1" opacity="1" d="M 586.5 27 L 588 27.5 L 577.5 33 Q 576 32 578.5 31 L 586.5 27 Z " /><path fill="rgb(191,191,191)" stroke="rgb(191,191,191)" stroke-width="1" opacity="1" d="M 829.5 29 L 841 35.5 L 839.5 35 L 830.5 31 Q 828 30 829.5 29 Z " /><path fill="rgb(191,191,191)" stroke="rgb(191,191,191)" stroke-width="1" opacity="1" d="M 404.5 33 L 404.5 34 L 404.5 33 Z " /><path fill="rgb(191,191,191)" stroke="rgb(191,191,191)" stroke-width="1" opacity="1" d="M 575.5 33 Q 577 34 574.5 35 L 568.5 38 Q 567 37 569.5 36 L 575.5 33 Z " /><path fill="rgb(191,191,191)" stroke="rgb(191,191,191)" stroke-width="1" opacity="1" d="M 406.5 34 L 412 37.5 L 410.5 37 Q 406.5 36.5 406.5 34 Z " /><path fill="rgb(191,191,191)" stroke="rgb(191,191,191)" stroke-width="1" opacity="1" d="M 139.5 35 L 139.5 36 L 139.5 35 Z " /><path fill="rgb(191,191,191)" stroke="rgb(191,191,191)" stroke-width="1" opacity="1" d="M 137.5 36 Q 139 37 136.5 38 L 134.5 39 Q 133 38 135.5 37 L 137.5 36 Z " /><path fill="rgb(191,191,191)" stroke="rgb(191,191,191)" stroke-width="1" opacity="1" d="M 842.5 36 L 846 38.5 L 844.5 38 Q 840.69 37.31 842.5 36 Z " /><path fill="rgb(191,191,191)" stroke="rgb(191,191,191)" stroke-width="1" opacity="1" d="M 413.5 38 L 417 40.5 L 415.5 40 Q 411.69 39.31 413.5 38 Z " /><path fill="rgb(191,191,191)" stroke="rgb(191,191,191)" stroke-width="1" opacity="1" d="M 566.5 38 Q 568 39 565.5 40 L 563.5 41 Q 562 40 564.5 39 L 566.5 38 Z " /><path fill="rgb(191,191,191)" stroke="rgb(191,191,191)" stroke-width="1" opacity="1" d="M 132.5 39 Q 134 40 131.5 41 Q 123.4 44.4 117.5 50 L 117 49.5 L 119.5 47 L 132.5 39 Z " /><path fill="rgb(191,191,191)" stroke="rgb(191,191,191)" stroke-width="1" opacity="1" d="M 847.5 39 L 851 41.5 L 849.5 41 Q 845.69 40.31 847.5 39 Z " /><path fill="rgb(191,191,191)" stroke="rgb(191,191,191)" stroke-width="1" opacity="1" d="M 418.5 41 L 432 50.5 L 431.5 51 L 429.5 49 L 419.5 43 Q 417 42 418.5 41 Z " /><path fill="rgb(191,191,191)" stroke="rgb(191,191,191)" stroke-width="1" opacity="1" d="M 561.5 41 Q 563 42 560.5 43 L 548.5 51 L 548 50.5 L 550.5 48 L 561.5 41 Z " /><path fill="rgb(191,191,191)" stroke="rgb(191,191,191)" stroke-width="1" opacity="1" d="M 852.5 42 L 863 49.5 L 862.5 50 L 860.5 48 L 853.5 44 Q 851 43 852.5 42 Z " /><path fill="rgb(191,191,191)" stroke="rgb(191,191,191)" stroke-width="1" opacity="1" d="M 260.5 49 L 276 49.5 L 260.5 50 L 260.5 49 Z " /><path fill="rgb(191,191,191)" stroke="rgb(191,191,191)" stroke-width="1" opacity="1" d="M 278.5 49 L 294 49.5 L 278.5 50 L 278.5 49 Z " /><path fill="rgb(191,191,191)" stroke="rgb(191,191,191)" stroke-width="1" opacity="1" d="M 686.5 49 L 702 49.5 L 686.5 50 L 686.5 49 Z " /><path fill="rgb(191,191,191)" stroke="rgb(191,191,191)" stroke-width="1" opacity="1" d="M 704.5 49 L 720 49.5 L 704.5 50 L 704.5 49 Z " /><path fill="rgb(191,191,191)" stroke="rgb(191,191,191)" stroke-width="1" opacity="1" d="M 115.5 50 L 116 50.5 L 113.5 53 Q 88.41 69.91 69 92.5 L 58.5 105 L 58 104.5 L 62 100.5 L 67 93.5 L 92.5 68 L 115.5 50 Z " /><path fill="rgb(191,191,191)" stroke="rgb(191,191,191)" stroke-width="1" opacity="1" d="M 249.5 50 L 255 50.5 L 249.5 51 L 249.5 50 Z " /><path fill="rgb(191,191,191)" stroke="rgb(191,191,191)" stroke-width="1" opacity="1" d="M 298.5 50 L 304 50.5 L 298.5 51 L 298.5 50 Z " /><path fill="rgb(191,191,191)" stroke="rgb(191,191,191)" stroke-width="1" opacity="1" d="M 676.5 50 L 682 50.5 L 676.5 51 L 676.5 50 Z " /><path fill="rgb(191,191,191)" stroke="rgb(191,191,191)" stroke-width="1" opacity="1" d="M 725.5 50 L 731 50.5 L 725.5 51 L 725.5 50 Z " /><path fill="rgb(191,191,191)" stroke="rgb(191,191,191)" stroke-width="1" opacity="1" d="M 864.5 50 Q 891.55 68.95 913 93.5 L 922 104.5 L 921.5 105 L 917 100.5 L 912 93.5 L 887.5 69 L 866.5 53 L 864 50.5 L 864.5 50 Z " /><path fill="rgb(191,191,191)" stroke="rgb(191,191,191)" stroke-width="1" opacity="1" d="M 241.5 51 L 247 51.5 L 241.5 52 L 241.5 51 Z " /><path fill="rgb(191,191,191)" stroke="rgb(191,191,191)" stroke-width="1" opacity="1" d="M 307.5 51 L 312 51.5 L 307.5 52 L 307.5 51 Z " /><path fill="rgb(191,191,191)" stroke="rgb(191,191,191)" stroke-width="1" opacity="1" d="M 433.5 51 L 444 59.5 L 443.5 60 L 440.5 57 L 435.5 54 L 433 51.5 L 433.5 51 Z " /><path fill="rgb(191,191,191)" stroke="rgb(191,191,191)" stroke-width="1" opacity="1" d="M 546.5 51 L 547 51.5 L 544.5 54 L 529.5 65 L 505 88.5 L 490.5 106 L 487 103.5 Q 474.55 85.95 458.5 72 L 445 60.5 L 445.5 60 L 449.5 64 Q 464.91 75.09 477 89.5 L 489.5 105 L 492 103.5 Q 504.89 85.39 521.5 71 L 546.5 51 Z " /><path fill="rgb(191,191,191)" stroke="rgb(191,191,191)" stroke-width="1" opacity="1" d="M 668.5 51 L 673 51.5 L 668.5 52 L 668.5 51 Z " /><path fill="rgb(191,191,191)" stroke="rgb(191,191,191)" stroke-width="1" opacity="1" d="M 733.5 51 L 738 51.5 L 733.5 52 L 733.5 51 Z " /><path fill="rgb(191,191,191)" stroke="rgb(191,191,191)" stroke-width="1" opacity="1" d="M 236.5 52 L 240 52.5 L 236.5 53 L 236.5 52 Z " /><path fill="rgb(191,191,191)" stroke="rgb(191,191,191)" stroke-width="1" opacity="1" d="M 314.5 52 L 318 52.5 L 314.5 53 L 314.5 52 Z " /><path fill="rgb(191,191,191)" stroke="rgb(191,191,191)" stroke-width="1" opacity="1" d="M 662.5 52 L 666 52.5 L 662.5 53 L 662.5 52 Z " /><path fill="rgb(191,191,191)" stroke="rgb(191,191,191)" stroke-width="1" opacity="1" d="M 740.5 52 L 744 52.5 L 740.5 53 L 740.5 52 Z " /><path fill="rgb(191,191,191)" stroke="rgb(191,191,191)" stroke-width="1" opacity="1" d="M 230.5 53 L 234 53.5 L 230.5 54 L 230.5 53 Z " /><path fill="rgb(191,191,191)" stroke="rgb(191,191,191)" stroke-width="1" opacity="1" d="M 320.5 53 L 323 53.5 L 320.5 54 L 320.5 53 Z " /><path fill="rgb(191,191,191)" stroke="rgb(191,191,191)" stroke-width="1" opacity="1" d="M 657.5 53 L 660 53.5 L 657.5 54 L 657.5 53 Z " /><path fill="rgb(191,191,191)" stroke="rgb(191,191,191)" stroke-width="1" opacity="1" d="M 746.5 53 L 750 53.5 L 746.5 54 L 746.5 53 Z " /><path fill="rgb(191,191,191)" stroke="rgb(191,191,191)" stroke-width="1" opacity="1" d="M 226.5 54 L 229 54.5 L 226.5 55 L 226.5 54 Z " /><path fill="rgb(191,191,191)" stroke="rgb(191,191,191)" stroke-width="1" opacity="1" d="M 324.5 54 L 328 54.5 L 324.5 55 L 324.5 54 Z " /><path fill="rgb(191,191,191)" stroke="rgb(191,191,191)" stroke-width="1" opacity="1" d="M 652.5 54 L 656 54.5 L 652.5 55 L 652.5 54 Z " /><path fill="rgb(191,191,191)" stroke="rgb(191,191,191)" stroke-width="1" opacity="1" d="M 751.5 54 L 754 54.5 L 751.5 55 L 751.5 54 Z " /><path fill="rgb(191,191,191)" stroke="rgb(191,191,191)" stroke-width="1" opacity="1" d="M 221.5 55 L 224 55.5 L 221.5 56 L 221.5 55 Z " /><path fill="rgb(191,191,191)" stroke="rgb(191,191,191)" stroke-width="1" opacity="1" d="M 329.5 55 L 332 55.5 L 329.5 56 L 329.5 55 Z " /><path fill="rgb(191,191,191)" stroke="rgb(191,191,191)" stroke-width="1" opacity="1" d="M 648.5 55 L 651 55.5 L 648.5 56 L 648.5 55 Z " /><path fill="rgb(191,191,191)" stroke="rgb(191,191,191)" stroke-width="1" opacity="1" d="M 756.5 55 L 759 55.5 L 756.5 56 L 756.5 55 Z " /><path fill="rgb(191,191,191)" stroke="rgb(191,191,191)" stroke-width="1" opacity="1" d="M 217.5 56 L 220 56.5 L 217.5 57 L 217.5 56 Z " /><path fill="rgb(191,191,191)" stroke="rgb(191,191,191)" stroke-width="1" opacity="1" d="M 333.5 56 L 336 56.5 L 333.5 57 L 333.5 56 Z " /><path fill="rgb(191,191,191)" stroke="rgb(191,191,191)" stroke-width="1" opacity="1" d="M 644.5 56 L 647 56.5 L 644.5 57 L 644.5 56 Z " /><path fill="rgb(191,191,191)" stroke="rgb(191,191,191)" stroke-width="1" opacity="1" d="M 760.5 56 L 763 56.5 L 760.5 57 L 760.5 56 Z " /><path fill="rgb(191,191,191)" stroke="rgb(191,191,191)" stroke-width="1" opacity="1" d="M 214.5 57 L 216 57.5 L 214.5 58 L 214.5 57 Z " /><path fill="rgb(191,191,191)" stroke="rgb(191,191,191)" stroke-width="1" opacity="1" d="M 337.5 57 L 340 57.5 L 337.5 58 L 337.5 57 Z " /><path fill="rgb(191,191,191)" stroke="rgb(191,191,191)" stroke-width="1" opacity="1" d="M 640.5 57 L 643 57.5 L 637.5 59 L 637.5 58 L 640.5 57 Z " /><path fill="rgb(191,191,191)" stroke="rgb(191,191,191)" stroke-width="1" opacity="1" d="M 764.5 57 L 766 57.5 L 764.5 58 L 764.5 57 Z " /><path fill="rgb(191,191,191)" stroke="rgb(191,191,191)" stroke-width="1" opacity="1" d="M 210.5 58 L 213 58.5 L 210.5 59 L 210.5 58 Z " /><path fill="rgb(191,191,191)" stroke="rgb(191,191,191)" stroke-width="1" opacity="1" d="M 341.5 58 L 343 58.5 L 341.5 59 L 341.5 58 Z " /><path fill="rgb(191,191,191)" stroke="rgb(191,191,191)" stroke-width="1" opacity="1" d="M 767.5 58 L 770 58.5 L 767.5 59 L 767.5 58 Z " /><path fill="rgb(191,191,191)" stroke="rgb(191,191,191)" stroke-width="1" opacity="1" d="M 207.5 59 L 209 59.5 L 207.5 60 L 207.5 59 Z " /><path fill="rgb(191,191,191)" stroke="rgb(191,191,191)" stroke-width="1" opacity="1" d="M 344.5 59 L 346 59.5 L 344.5 60 L 344.5 59 Z " /><path fill="rgb(191,191,191)" stroke="rgb(191,191,191)" stroke-width="1" opacity="1" d="M 634.5 59 L 636 59.5 L 634.5 60 L 634.5 59 Z " /><path fill="rgb(191,191,191)" stroke="rgb(191,191,191)" stroke-width="1" opacity="1" d="M 771.5 59 L 773 59.5 L 771.5 60 L 771.5 59 Z " /><path fill="rgb(191,191,191)" stroke="rgb(191,191,191)" stroke-width="1" opacity="1" d="M 204.5 60 L 206 60.5 L 204.5 61 L 204.5 60 Z " /><path fill="rgb(191,191,191)" stroke="rgb(191,191,191)" stroke-width="1" opacity="1" d="M 347.5 60 L 349 60.5 L 347.5 61 L 347.5 60 Z " /><path fill="rgb(191,191,191)" stroke="rgb(191,191,191)" stroke-width="1" opacity="1" d="M 631.5 60 L 633 60.5 L 631.5 61 L 631.5 60 Z " /><path fill="rgb(191,191,191)" stroke="rgb(191,191,191)" stroke-width="1" opacity="1" d="M 774.5 60 L 776 60.5 L 774.5 61 L 774.5 60 Z " /><path fill="rgb(191,191,191)" stroke="rgb(191,191,191)" stroke-width="1" opacity="1" d="M 201.5 61 L 203 61.5 L 201.5 62 L 201.5 61 Z " /><path fill="rgb(191,191,191)" stroke="rgb(191,191,191)" stroke-width="1" opacity="1" d="M 350.5 61 L 352 61.5 L 350.5 62 L 350.5 61 Z " /><path fill="rgb(191,191,191)" stroke="rgb(191,191,191)" stroke-width="1" opacity="1" d="M 628.5 61 L 630 61.5 L 628.5 62 L 628.5 61 Z " /><path fill="rgb(191,191,191)" stroke="rgb(191,191,191)" stroke-width="1" opacity="1" d="M 777.5 61 L 779 61.5 L 777.5 62 L 777.5 61 Z " /><path fill="rgb(191,191,191)" stroke="rgb(191,191,191)" stroke-width="1" opacity="1" d="M 198.5 62 L 200 62.5 L 198.5 63 L 198.5 62 Z " /><path fill="rgb(191,191,191)" stroke="rgb(191,191,191)" stroke-width="1" opacity="1" d="M 353.5 62 L 355 62.5 L 353.5 63 L 353.5 62 Z " /><path fill="rgb(191,191,191)" stroke="rgb(191,191,191)" stroke-width="1" opacity="1" d="M 625.5 62 L 627 62.5 L 625.5 63 L 625.5 62 Z " /><path fill="rgb(191,191,191)" stroke="rgb(191,191,191)" stroke-width="1" opacity="1" d="M 780.5 62 L 782 62.5 L 780.5 63 L 780.5 62 Z " /><path fill="rgb(191,191,191)" stroke="rgb(191,191,191)" stroke-width="1" opacity="1" d="M 195.5 63 L 197 63.5 L 193.5 65 L 193.5 64 L 195.5 63 Z " /><path fill="rgb(191,191,191)" stroke="rgb(191,191,191)" stroke-width="1" opacity="1" d="M 356.5 63 L 358 63.5 L 356.5 64 L 356.5 63 Z " /><path fill="rgb(191,191,191)" stroke="rgb(191,191,191)" stroke-width="1" opacity="1" d="M 622.5 63 L 624 63.5 L 622.5 64 L 622.5 63 Z " /><path fill="rgb(191,191,191)" stroke="rgb(191,191,191)" stroke-width="1" opacity="1" d="M 783.5 63 L 787 64.5 L 785.5 65 L 783 63.5 L 783.5 63 Z " /><path fill="rgb(191,191,191)" stroke="rgb(191,191,191)" stroke-width="1" opacity="1" d="M 359.5 64 L 363 65.5 L 361.5 66 L 359 64.5 L 359.5 64 Z " /><path fill="rgb(191,191,191)" stroke="rgb(191,191,191)" stroke-width="1" opacity="1" d="M 619.5 64 L 621 64.5 L 617.5 66 L 617.5 65 L 619.5 64 Z " /><path fill="rgb(191,191,191)" stroke="rgb(191,191,191)" stroke-width="1" opacity="1" d="M 190.5 65 L 192 65.5 L 188.5 67 L 188.5 66 L 190.5 65 Z " /><path fill="rgb(191,191,191)" stroke="rgb(191,191,191)" stroke-width="1" opacity="1" d="M 788.5 65 L 799 69.5 L 797.5 70 Q 794.14 66.86 788.5 66 L 788.5 65 Z " /><path fill="rgb(191,191,191)" stroke="rgb(191,191,191)" stroke-width="1" opacity="1" d="M 364.5 66 L 370 68.5 L 368.5 69 L 364.5 67 L 364.5 66 Z " /><path fill="rgb(191,191,191)" stroke="rgb(191,191,191)" stroke-width="1" opacity="1" d="M 614.5 66 L 616 66.5 L 612.5 68 L 612.5 67 L 614.5 66 Z " /><path fill="rgb(191,191,191)" stroke="rgb(191,191,191)" stroke-width="1" opacity="1" d="M 185.5 67 L 187 67.5 L 181.5 70 L 181.5 69 L 185.5 67 Z " /><path fill="rgb(191,191,191)" stroke="rgb(191,191,191)" stroke-width="1" opacity="1" d="M 610.5 68 L 610.5 69 L 610.5 68 Z " /><path fill="rgb(191,191,191)" stroke="rgb(191,191,191)" stroke-width="1" opacity="1" d="M 371.5 69 L 371.5 70 L 371.5 69 Z " /><path fill="rgb(191,191,191)" stroke="rgb(191,191,191)" stroke-width="1" opacity="1" d="M 608.5 69 L 608.5 70 L 608.5 69 Z " /><path fill="rgb(191,191,191)" stroke="rgb(191,191,191)" stroke-width="1" opacity="1" d="M 179.5 70 L 179.5 71 L 179.5 70 Z " /><path fill="rgb(191,191,191)" stroke="rgb(191,191,191)" stroke-width="1" opacity="1" d="M 373.5 70 L 388 77.5 L 386.5 77 L 373.5 71 L 373.5 70 Z " /><path fill="rgb(191,191,191)" stroke="rgb(191,191,191)" stroke-width="1" opacity="1" d="M 605.5 70 L 607 70.5 L 590.5 79 Q 589 78 591.5 77 L 605.5 70 Z " /><path fill="rgb(191,191,191)" stroke="rgb(191,191,191)" stroke-width="1" opacity="1" d="M 800.5 70 L 815 77.5 L 813.5 77 L 800.5 71 L 800.5 70 Z " /><path fill="rgb(191,191,191)" stroke="rgb(191,191,191)" stroke-width="1" opacity="1" d="M 176.5 71 L 178 71.5 L 165.5 78 Q 164 77 166.5 76 L 176.5 71 Z " /><path fill="rgb(191,191,191)" stroke="rgb(191,191,191)" stroke-width="1" opacity="1" d="M 163.5 78 Q 165 79 162.5 80 L 158.5 82 Q 157 81 159.5 80 L 163.5 78 Z " /><path fill="rgb(191,191,191)" stroke="rgb(191,191,191)" stroke-width="1" opacity="1" d="M 389.5 78 L 389.5 79 L 389.5 78 Z " /><path fill="rgb(191,191,191)" stroke="rgb(191,191,191)" stroke-width="1" opacity="1" d="M 816.5 78 L 822 81.5 L 820.5 81 Q 816.5 80.5 816.5 78 Z " /><path fill="rgb(191,191,191)" stroke="rgb(191,191,191)" stroke-width="1" opacity="1" d="M 391.5 79 L 395 81.5 L 393.5 81 Q 389.69 80.31 391.5 79 Z " /><path fill="rgb(191,191,191)" stroke="rgb(191,191,191)" stroke-width="1" opacity="1" d="M 588.5 79 Q 590 80 587.5 81 L 585.5 82 Q 584 81 586.5 80 L 588.5 79 Z " /><path fill="rgb(191,191,191)" stroke="rgb(191,191,191)" stroke-width="1" opacity="1" d="M 156.5 82 Q 158 83 155.5 84 L 140.5 94 L 140 93.5 L 142.5 91 L 156.5 82 Z " /><path fill="rgb(191,191,191)" stroke="rgb(191,191,191)" stroke-width="1" opacity="1" d="M 396.5 82 L 400 84.5 L 398.5 84 Q 394.69 83.31 396.5 82 Z " /><path fill="rgb(191,191,191)" stroke="rgb(191,191,191)" stroke-width="1" opacity="1" d="M 583.5 82 Q 585 83 582.5 84 L 580.5 85 Q 579 84 581.5 83 L 583.5 82 Z " /><path fill="rgb(191,191,191)" stroke="rgb(191,191,191)" stroke-width="1" opacity="1" d="M 823.5 82 L 840 93.5 L 839.5 94 L 837.5 92 L 824.5 84 Q 822 83 823.5 82 Z " /><path fill="rgb(191,191,191)" stroke="rgb(191,191,191)" stroke-width="1" opacity="1" d="M 401.5 85 L 409 90.5 L 408.5 91 L 406.5 89 Q 401.92 87.83 401.5 85 Z " /><path fill="rgb(191,191,191)" stroke="rgb(191,191,191)" stroke-width="1" opacity="1" d="M 578.5 85 Q 580 86 577.5 87 L 558.5 100 L 536 120.5 L 527 130.5 L 511.5 151 L 511 150.5 L 513 148.5 L 515 144.5 L 526 130.5 L 542.5 113 L 558.5 99 L 578.5 85 Z " /><path fill="rgb(191,191,191)" stroke="rgb(191,191,191)" stroke-width="1" opacity="1" d="M 410.5 91 L 427.5 104 L 438.5 115 L 440 115 L 440 116.5 Q 451.72 126.78 461 139.5 L 460.5 140 L 457 136.5 L 452 129.5 L 427.5 105 L 412.5 94 L 410 91.5 L 410.5 91 Z " /><path fill="rgb(191,191,191)" stroke="rgb(191,191,191)" stroke-width="1" opacity="1" d="M 138.5 94 L 139 94.5 L 136.5 97 L 136 96.5 L 138.5 94 Z " /><path fill="rgb(191,191,191)" stroke="rgb(191,191,191)" stroke-width="1" opacity="1" d="M 841.5 94 Q 862.25 109.25 879 128.5 L 897 152.5 Q 896 154 895 151.5 Q 878.86 126.14 856.5 107 L 844.5 98 L 841 94.5 L 841.5 94 Z " /><path fill="rgb(191,191,191)" stroke="rgb(191,191,191)" stroke-width="1" opacity="1" d="M 134.5 97 L 135 97.5 L 131.5 101 L 124.5 106 L 102 128.5 L 87.5 147 L 87 146.5 L 89 144.5 L 101 128.5 L 124.5 105 L 134.5 97 Z " /><path fill="rgb(191,191,191)" stroke="rgb(191,191,191)" stroke-width="1" opacity="1" d="M 57.5 106 L 58 106.5 L 55 109.5 L 52.5 113 L 52 112.5 L 54 110.5 L 57.5 106 Z " /><path fill="rgb(191,191,191)" stroke="rgb(191,191,191)" stroke-width="1" opacity="1" d="M 922.5 106 L 928 112.5 L 927.5 113 L 925 110.5 L 922 106.5 L 922.5 106 Z " /><path fill="rgb(191,191,191)" stroke="rgb(191,191,191)" stroke-width="1" opacity="1" d="M 51.5 114 L 52 114.5 L 50 116.5 L 40.5 131 L 41 129.5 L 51.5 114 Z " /><path fill="rgb(191,191,191)" stroke="rgb(191,191,191)" stroke-width="1" opacity="1" d="M 928.5 114 L 935 122.5 L 934.5 123 L 932 120.5 L 928 114.5 L 928.5 114 Z " /><path fill="rgb(191,191,191)" stroke="rgb(191,191,191)" stroke-width="1" opacity="1" d="M 935.5 124 L 943 135.5 Q 942 137 941 134.5 L 935 124.5 L 935.5 124 Z " /><path fill="rgb(191,191,191)" stroke="rgb(191,191,191)" stroke-width="1" opacity="1" d="M 39.5 132 L 39 133.5 L 37.5 136 L 38 134.5 L 39.5 132 Z " /><path fill="rgb(191,191,191)" stroke="rgb(191,191,191)" stroke-width="1" opacity="1" d="M 36.5 137 L 36 138.5 L 33.5 143 L 34 141.5 L 36.5 137 Z " /><path fill="rgb(191,191,191)" stroke="rgb(191,191,191)" stroke-width="1" opacity="1" d="M 943.5 137 L 947 142.5 Q 946 144 945 141.5 L 943 137.5 L 943.5 137 Z " /><path fill="rgb(191,191,191)" stroke="rgb(191,191,191)" stroke-width="1" opacity="1" d="M 461.5 141 L 464 143.5 L 463.5 144 L 461 141.5 L 461.5 141 Z " /><path fill="rgb(191,191,191)" stroke="rgb(191,191,191)" stroke-width="1" opacity="1" d="M 32.5 144 L 32.5 145 L 32.5 144 Z " /><path fill="rgb(191,191,191)" stroke="rgb(191,191,191)" stroke-width="1" opacity="1" d="M 947.5 144 L 947.5 145 L 947.5 144 Z " /><path fill="rgb(191,191,191)" stroke="rgb(191,191,191)" stroke-width="1" opacity="1" d="M 464.5 145 L 474 158.5 Q 473 160 472 157.5 L 464 145.5 L 464.5 145 Z " /><path fill="rgb(191,191,191)" stroke="rgb(191,191,191)" stroke-width="1" opacity="1" d="M 31.5 146 L 31 147.5 L 26.5 157 L 26 155.5 L 31.5 146 Z " /><path fill="rgb(191,191,191)" stroke="rgb(191,191,191)" stroke-width="1" opacity="1" d="M 948.5 146 L 955 158.5 L 954 158.5 L 948 146.5 L 948.5 146 Z " /><path fill="rgb(191,191,191)" stroke="rgb(191,191,191)" stroke-width="1" opacity="1" d="M 86.5 148 L 87 148.5 L 85 150.5 L 81.5 156 L 82 154.5 L 86.5 148 Z " /><path fill="rgb(191,191,191)" stroke="rgb(191,191,191)" stroke-width="1" opacity="1" d="M 510.5 152 Q 512 153 509.5 154 Q 508 153 510.5 152 Z " /><path fill="rgb(191,191,191)" stroke="rgb(191,191,191)" stroke-width="1" opacity="1" d="M 897.5 154 Q 900 155 898.5 156 Q 896 155 897.5 154 Z " /><path fill="rgb(191,191,191)" stroke="rgb(191,191,191)" stroke-width="1" opacity="1" d="M 508.5 155 L 508 156.5 L 499.5 171 L 500 169.5 L 502 164.5 L 508.5 155 Z " /><path fill="rgb(191,191,191)" stroke="rgb(191,191,191)" stroke-width="1" opacity="1" d="M 80.5 157 Q 82 158 79.5 159 Q 78 158 80.5 157 Z " /><path fill="rgb(191,191,191)" stroke="rgb(191,191,191)" stroke-width="1" opacity="1" d="M 899.5 157 L 902 160.5 Q 901 162 900 159.5 L 899.5 157 Z " /><path fill="rgb(191,191,191)" stroke="rgb(191,191,191)" stroke-width="1" opacity="1" d="M 25.5 158 L 25.5 159 L 25.5 158 Z " /><path fill="rgb(191,191,191)" stroke="rgb(191,191,191)" stroke-width="1" opacity="1" d="M 24.5 160 L 24.5 161 L 24.5 160 Z " /><path fill="rgb(191,191,191)" stroke="rgb(191,191,191)" stroke-width="1" opacity="1" d="M 78.5 160 L 78 161.5 L 75.5 166 L 76 164.5 L 78.5 160 Z " /><path fill="rgb(191,191,191)" stroke="rgb(191,191,191)" stroke-width="1" opacity="1" d="M 474.5 160 L 477 163.5 Q 476 165 475 162.5 L 474.5 160 Z " /><path fill="rgb(191,191,191)" stroke="rgb(191,191,191)" stroke-width="1" opacity="1" d="M 955.5 160 L 955.5 161 L 955.5 160 Z " /><path fill="rgb(191,191,191)" stroke="rgb(191,191,191)" stroke-width="1" opacity="1" d="M 23.5 162 L 24 163.5 L 21.5 168 L 21 166.5 L 23.5 162 Z " /><path fill="rgb(191,191,191)" stroke="rgb(191,191,191)" stroke-width="1" opacity="1" d="M 902.5 162 L 905 165.5 Q 904 167 903 164.5 L 902.5 162 Z " /><path fill="rgb(191,191,191)" stroke="rgb(191,191,191)" stroke-width="1" opacity="1" d="M 956.5 162 L 959 167.5 L 958 167.5 L 956 163.5 L 956.5 162 Z " /><path fill="rgb(191,191,191)" stroke="rgb(191,191,191)" stroke-width="1" opacity="1" d="M 477.5 165 L 482 172.5 Q 481 174 480 171.5 L 477 165.5 L 477.5 165 Z " /><path fill="rgb(191,191,191)" stroke="rgb(191,191,191)" stroke-width="1" opacity="1" d="M 74.5 167 L 74 168.5 L 65.5 186 L 65 184.5 L 74.5 167 Z " /><path fill="rgb(191,191,191)" stroke="rgb(191,191,191)" stroke-width="1" opacity="1" d="M 905.5 167 L 914 183.5 L 913 183.5 L 905 167.5 L 905.5 167 Z " /><path fill="rgb(191,191,191)" stroke="rgb(191,191,191)" stroke-width="1" opacity="1" d="M 20.5 169 L 21 170.5 L 19.5 173 L 19 171.5 L 20.5 169 Z " /><path fill="rgb(191,191,191)" stroke="rgb(191,191,191)" stroke-width="1" opacity="1" d="M 959.5 169 L 961 172.5 L 960 172.5 Q 958.29 170.96 959.5 169 Z " /><path fill="rgb(191,191,191)" stroke="rgb(191,191,191)" stroke-width="1" opacity="1" d="M 498.5 172 L 498.5 173 L 498.5 172 Z " /><path fill="rgb(191,191,191)" stroke="rgb(191,191,191)" stroke-width="1" opacity="1" d="M 18.5 174 L 19 175.5 L 17.5 178 L 17 176.5 L 18.5 174 Z " /><path fill="rgb(191,191,191)" stroke="rgb(191,191,191)" stroke-width="1" opacity="1" d="M 482.5 174 L 482.5 175 L 482.5 174 Z " /><path fill="rgb(191,191,191)" stroke="rgb(191,191,191)" stroke-width="1" opacity="1" d="M 497.5 174 L 497.5 175 L 497.5 174 Z " /><path fill="rgb(191,191,191)" stroke="rgb(191,191,191)" stroke-width="1" opacity="1" d="M 961.5 174 L 963 177.5 L 962 177.5 Q 960.29 175.96 961.5 174 Z " /><path fill="rgb(191,191,191)" stroke="rgb(191,191,191)" stroke-width="1" opacity="1" d="M 483.5 176 L 483.5 177 L 483.5 176 Z " /><path fill="rgb(191,191,191)" stroke="rgb(191,191,191)" stroke-width="1" opacity="1" d="M 496.5 176 L 496.5 177 L 496.5 176 Z " /><path fill="rgb(191,191,191)" stroke="rgb(191,191,191)" stroke-width="1" opacity="1" d="M 484.5 178 L 484.5 179 L 484.5 178 Z " /><path fill="rgb(191,191,191)" stroke="rgb(191,191,191)" stroke-width="1" opacity="1" d="M 495.5 178 L 495.5 179 L 495.5 178 Z " /><path fill="rgb(191,191,191)" stroke="rgb(191,191,191)" stroke-width="1" opacity="1" d="M 16.5 179 L 17 180.5 L 16 180.5 L 16.5 179 Z " /><path fill="rgb(191,191,191)" stroke="rgb(191,191,191)" stroke-width="1" opacity="1" d="M 963.5 179 L 964 180.5 L 963 180.5 L 963.5 179 Z " /><path fill="rgb(191,191,191)" stroke="rgb(191,191,191)" stroke-width="1" opacity="1" d="M 485.5 180 L 485.5 181 L 485.5 180 Z " /><path fill="rgb(191,191,191)" stroke="rgb(191,191,191)" stroke-width="1" opacity="1" d="M 494.5 180 L 494.5 181 L 494.5 180 Z " /><path fill="rgb(191,191,191)" stroke="rgb(191,191,191)" stroke-width="1" opacity="1" d="M 15.5 182 L 16 183.5 L 12.5 193 L 12 190.5 L 15.5 182 Z " /><path fill="rgb(191,191,191)" stroke="rgb(191,191,191)" stroke-width="1" opacity="1" d="M 486.5 182 L 489 188 Q 491.67 189.13 491 186.5 L 493.5 182 L 494 183.5 L 491 190 Q 488.33 191.13 489 188.5 L 486 183.5 L 486.5 182 Z " /><path fill="rgb(191,191,191)" stroke="rgb(191,191,191)" stroke-width="1" opacity="1" d="M 964.5 182 L 968 192.5 L 967 192.5 L 964 183.5 L 964.5 182 Z " /><path fill="rgb(191,191,191)" stroke="rgb(191,191,191)" stroke-width="1" opacity="1" d="M 914.5 185 L 914.5 186 L 914.5 185 Z " /><path fill="rgb(191,191,191)" stroke="rgb(191,191,191)" stroke-width="1" opacity="1" d="M 64.5 187 L 64.5 188 L 64.5 187 Z " /><path fill="rgb(191,191,191)" stroke="rgb(191,191,191)" stroke-width="1" opacity="1" d="M 915.5 187 L 915.5 188 L 915.5 187 Z " /><path fill="rgb(191,191,191)" stroke="rgb(191,191,191)" stroke-width="1" opacity="1" d="M 63.5 189 L 64 190.5 L 62.5 193 L 62 191.5 L 63.5 189 Z " /><path fill="rgb(191,191,191)" stroke="rgb(191,191,191)" stroke-width="1" opacity="1" d="M 916.5 189 L 918 192.5 L 917 192.5 Q 915.29 190.96 916.5 189 Z " /><path fill="rgb(191,191,191)" stroke="rgb(191,191,191)" stroke-width="1" opacity="1" d="M 11.5 194 L 12 195.5 L 11 195.5 L 11.5 194 Z " /><path fill="rgb(191,191,191)" stroke="rgb(191,191,191)" stroke-width="1" opacity="1" d="M 61.5 194 L 62 195.5 L 60.5 198 L 60 196.5 L 61.5 194 Z " /><path fill="rgb(191,191,191)" stroke="rgb(191,191,191)" stroke-width="1" opacity="1" d="M 918.5 194 L 920 197.5 L 919 197.5 Q 917.29 195.96 918.5 194 Z " /><path fill="rgb(191,191,191)" stroke="rgb(191,191,191)" stroke-width="1" opacity="1" d="M 968.5 194 L 969 195.5 L 968 195.5 L 968.5 194 Z " /><path fill="rgb(191,191,191)" stroke="rgb(191,191,191)" stroke-width="1" opacity="1" d="M 10.5 197 L 11 198.5 L 10 198.5 L 10.5 197 Z " /><path fill="rgb(191,191,191)" stroke="rgb(191,191,191)" stroke-width="1" opacity="1" d="M 969.5 197 L 970 199.5 L 969 199.5 L 969.5 197 Z " /><path fill="rgb(191,191,191)" stroke="rgb(191,191,191)" stroke-width="1" opacity="1" d="M 59.5 199 L 60 200.5 L 59 200.5 L 59.5 199 Z " /><path fill="rgb(191,191,191)" stroke="rgb(191,191,191)" stroke-width="1" opacity="1" d="M 920.5 199 L 921 200.5 L 920 200.5 L 920.5 199 Z " /><path fill="rgb(191,191,191)" stroke="rgb(191,191,191)" stroke-width="1" opacity="1" d="M 9.5 200 L 10 202.5 L 9 202.5 L 9.5 200 Z " /><path fill="rgb(191,191,191)" stroke="rgb(191,191,191)" stroke-width="1" opacity="1" d="M 970.5 201 L 971 202.5 L 970 202.5 L 970.5 201 Z " /><path fill="rgb(191,191,191)" stroke="rgb(191,191,191)" stroke-width="1" opacity="1" d="M 58.5 202 L 59 203.5 L 55.5 213 L 55 210.5 L 58.5 202 Z " /><path fill="rgb(191,191,191)" stroke="rgb(191,191,191)" stroke-width="1" opacity="1" d="M 921.5 202 L 922 203.5 L 921 203.5 L 921.5 202 Z " /><path fill="rgb(191,191,191)" stroke="rgb(191,191,191)" stroke-width="1" opacity="1" d="M 8.5 204 L 9 206.5 L 8 206.5 L 8.5 204 Z " /><path fill="rgb(191,191,191)" stroke="rgb(191,191,191)" stroke-width="1" opacity="1" d="M 971.5 204 L 972 206.5 L 971 206.5 L 971.5 204 Z " /><path fill="rgb(191,191,191)" stroke="rgb(191,191,191)" stroke-width="1" opacity="1" d="M 922.5 205 L 923 206.5 L 922 206.5 L 922.5 205 Z " /><path fill="rgb(191,191,191)" stroke="rgb(191,191,191)" stroke-width="1" opacity="1" d="M 7.5 208 L 8 210.5 L 7 210.5 L 7.5 208 Z " /><path fill="rgb(191,191,191)" stroke="rgb(191,191,191)" stroke-width="1" opacity="1" d="M 923.5 208 L 924 209.5 L 923 209.5 L 923.5 208 Z " /><path fill="rgb(191,191,191)" stroke="rgb(191,191,191)" stroke-width="1" opacity="1" d="M 972.5 208 L 973 210.5 L 972 210.5 L 972.5 208 Z " /><path fill="rgb(191,191,191)" stroke="rgb(191,191,191)" stroke-width="1" opacity="1" d="M 924.5 211 L 925 212.5 L 924 212.5 L 924.5 211 Z " /><path fill="rgb(191,191,191)" stroke="rgb(191,191,191)" stroke-width="1" opacity="1" d="M 6.5 212 L 7 214.5 L 6 214.5 L 6.5 212 Z " /><path fill="rgb(191,191,191)" stroke="rgb(191,191,191)" stroke-width="1" opacity="1" d="M 973.5 212 L 974 214.5 L 973 214.5 L 973.5 212 Z " /><path fill="rgb(191,191,191)" stroke="rgb(191,191,191)" stroke-width="1" opacity="1" d="M 54.5 214 L 55 215.5 L 54 215.5 L 54.5 214 Z " /><path fill="rgb(191,191,191)" stroke="rgb(191,191,191)" stroke-width="1" opacity="1" d="M 925.5 214 L 926 216.5 L 925 216.5 L 925.5 214 Z " /><path fill="rgb(191,191,191)" stroke="rgb(191,191,191)" stroke-width="1" opacity="1" d="M 5.5 217 L 6 219.5 L 5 219.5 L 5.5 217 Z " /><path fill="rgb(191,191,191)" stroke="rgb(191,191,191)" stroke-width="1" opacity="1" d="M 53.5 217 L 54 219.5 L 53 219.5 L 53.5 217 Z " /><path fill="rgb(191,191,191)" stroke="rgb(191,191,191)" stroke-width="1" opacity="1" d="M 974.5 217 L 975 219.5 L 974 219.5 L 974.5 217 Z " /><path fill="rgb(191,191,191)" stroke="rgb(191,191,191)" stroke-width="1" opacity="1" d="M 926.5 218 L 927 219.5 L 926 219.5 L 926.5 218 Z " /><path fill="rgb(191,191,191)" stroke="rgb(191,191,191)" stroke-width="1" opacity="1" d="M 52.5 221 L 53 223.5 L 52 223.5 L 52.5 221 Z " /><path fill="rgb(191,191,191)" stroke="rgb(191,191,191)" stroke-width="1" opacity="1" d="M 927.5 221 L 928 223.5 L 927 223.5 L 927.5 221 Z " /><path fill="rgb(191,191,191)" stroke="rgb(191,191,191)" stroke-width="1" opacity="1" d="M 4.5 222 L 5 224.5 L 4 224.5 L 4.5 222 Z " /><path fill="rgb(191,191,191)" stroke="rgb(191,191,191)" stroke-width="1" opacity="1" d="M 975.5 222 L 976 224.5 L 975 224.5 L 975.5 222 Z " /><path fill="rgb(191,191,191)" stroke="rgb(191,191,191)" stroke-width="1" opacity="1" d="M 51.5 225 L 52 227.5 L 51 227.5 L 51.5 225 Z " /><path fill="rgb(191,191,191)" stroke="rgb(191,191,191)" stroke-width="1" opacity="1" d="M 928.5 226 L 929 228.5 L 928 228.5 L 928.5 226 Z " /><path fill="rgb(191,191,191)" stroke="rgb(191,191,191)" stroke-width="1" opacity="1" d="M 3.5 227 L 4 230.5 L 3 230.5 L 3.5 227 Z " /><path fill="rgb(191,191,191)" stroke="rgb(191,191,191)" stroke-width="1" opacity="1" d="M 976.5 227 L 977 230.5 L 976 230.5 L 976.5 227 Z " /><path fill="rgb(191,191,191)" stroke="rgb(191,191,191)" stroke-width="1" opacity="1" d="M 50.5 229 L 51 232.5 L 50 232.5 L 50.5 229 Z " /><path fill="rgb(191,191,191)" stroke="rgb(191,191,191)" stroke-width="1" opacity="1" d="M 929.5 230 L 930 232.5 L 929 232.5 L 929.5 230 Z " /><path fill="rgb(191,191,191)" stroke="rgb(191,191,191)" stroke-width="1" opacity="1" d="M 2.5 233 L 3 237.5 L 2 237.5 L 2.5 233 Z " /><path fill="rgb(191,191,191)" stroke="rgb(191,191,191)" stroke-width="1" opacity="1" d="M 977.5 233 L 978 237.5 L 977 237.5 L 977.5 233 Z " /><path fill="rgb(191,191,191)" stroke="rgb(191,191,191)" stroke-width="1" opacity="1" d="M 49.5 234 L 50 237.5 L 49 237.5 L 49.5 234 Z " /><path fill="rgb(191,191,191)" stroke="rgb(191,191,191)" stroke-width="1" opacity="1" d="M 930.5 235 L 931 238.5 L 930 238.5 L 930.5 235 Z " /><path fill="rgb(191,191,191)" stroke="rgb(191,191,191)" stroke-width="1" opacity="1" d="M 48.5 240 L 49 243.5 L 48 243.5 L 48.5 240 Z " /><path fill="rgb(191,191,191)" stroke="rgb(191,191,191)" stroke-width="1" opacity="1" d="M 931.5 240 L 932 244.5 L 931 244.5 L 931.5 240 Z " /><path fill="rgb(191,191,191)" stroke="rgb(191,191,191)" stroke-width="1" opacity="1" d="M 1.5 241 L 2 246.5 L 1 246.5 L 1.5 241 Z " /><path fill="rgb(191,191,191)" stroke="rgb(191,191,191)" stroke-width="1" opacity="1" d="M 978.5 241 L 979 246.5 L 978 246.5 L 978.5 241 Z " /><path fill="rgb(191,191,191)" stroke="rgb(191,191,191)" stroke-width="1" opacity="1" d="M 47.5 246 L 48 251.5 L 47 251.5 L 47.5 246 Z " /><path fill="rgb(191,191,191)" stroke="rgb(191,191,191)" stroke-width="1" opacity="1" d="M 932.5 247 L 933 251.5 L 932 251.5 L 932.5 247 Z " /><path fill="rgb(191,191,191)" stroke="rgb(191,191,191)" stroke-width="1" opacity="1" d="M 0.5 251 L 1 259.5 L 0 259.5 L 0.5 251 Z " /><path fill="rgb(191,191,191)" stroke="rgb(191,191,191)" stroke-width="1" opacity="1" d="M 979.5 251 L 980 259.5 L 979 259.5 L 979.5 251 Z " /><path fill="rgb(191,191,191)" stroke="rgb(191,191,191)" stroke-width="1" opacity="1" d="M 46.5 254 L 47 261.5 L 46 261.5 L 46.5 254 Z " /><path fill="rgb(191,191,191)" stroke="rgb(191,191,191)" stroke-width="1" opacity="1" d="M 933.5 255 L 934 263.5 L 933 263.5 L 933.5 255 Z " /><path fill="rgb(191,191,191)" stroke="rgb(191,191,191)" stroke-width="1" opacity="1" d="M 45.5 268 L 46 286.5 L 45 286.5 L 45.5 268 Z " /><path fill="rgb(191,191,191)" stroke="rgb(191,191,191)" stroke-width="1" opacity="1" d="M 934.5 271 L 935 284.5 L 934 284.5 L 934.5 271 Z " /><path fill="rgb(191,191,191)" stroke="rgb(191,191,191)" stroke-width="1" opacity="1" d="M 0.5 288 L 1 297.5 L 0 297.5 L 0.5 288 Z " /><path fill="rgb(191,191,191)" stroke="rgb(191,191,191)" stroke-width="1" opacity="1" d="M 979.5 289 L 980 297.5 L 979 297.5 L 979.5 289 Z " /><path fill="rgb(191,191,191)" stroke="rgb(191,191,191)" stroke-width="1" opacity="1" d="M 933.5 292 L 934 299.5 L 933 299.5 L 933.5 292 Z " /><path fill="rgb(191,191,191)" stroke="rgb(191,191,191)" stroke-width="1" opacity="1" d="M 46.5 293 L 47 300.5 L 46 300.5 L 46.5 293 Z " /><path fill="rgb(191,191,191)" stroke="rgb(191,191,191)" stroke-width="1" opacity="1" d="M 1.5 302 L 2 307.5 L 1 307.5 L 1.5 302 Z " /><path fill="rgb(191,191,191)" stroke="rgb(191,191,191)" stroke-width="1" opacity="1" d="M 978.5 302 L 979 307.5 L 978 307.5 L 978.5 302 Z " /><path fill="rgb(191,191,191)" stroke="rgb(191,191,191)" stroke-width="1" opacity="1" d="M 47.5 304 L 48 308.5 L 47 308.5 L 47.5 304 Z " /><path fill="rgb(191,191,191)" stroke="rgb(191,191,191)" stroke-width="1" opacity="1" d="M 932.5 304 L 933 308.5 L 932 308.5 L 932.5 304 Z " /><path fill="rgb(191,191,191)" stroke="rgb(191,191,191)" stroke-width="1" opacity="1" d="M 2.5 310 L 3 314.5 L 2 314.5 L 2.5 310 Z " /><path fill="rgb(191,191,191)" stroke="rgb(191,191,191)" stroke-width="1" opacity="1" d="M 977.5 310 L 978 314.5 L 977 314.5 L 977.5 310 Z " /><path fill="rgb(191,191,191)" stroke="rgb(191,191,191)" stroke-width="1" opacity="1" d="M 931.5 311 L 932 314.5 L 931 314.5 L 931.5 311 Z " /><path fill="rgb(191,191,191)" stroke="rgb(191,191,191)" stroke-width="1" opacity="1" d="M 48.5 312 L 49 315.5 L 48 315.5 L 48.5 312 Z " /><path fill="rgb(191,191,191)" stroke="rgb(191,191,191)" stroke-width="1" opacity="1" d="M 3.5 317 L 4 320.5 L 3 320.5 L 3.5 317 Z " /><path fill="rgb(191,191,191)" stroke="rgb(191,191,191)" stroke-width="1" opacity="1" d="M 930.5 317 L 931 320.5 L 930 320.5 L 930.5 317 Z " /><path fill="rgb(191,191,191)" stroke="rgb(191,191,191)" stroke-width="1" opacity="1" d="M 976.5 317 L 977 321.5 L 976 321.5 L 976.5 317 Z " /><path fill="rgb(191,191,191)" stroke="rgb(191,191,191)" stroke-width="1" opacity="1" d="M 49.5 318 L 50 321.5 L 49 321.5 L 49.5 318 Z " /><path fill="rgb(191,191,191)" stroke="rgb(191,191,191)" stroke-width="1" opacity="1" d="M 4.5 323 L 5 326.5 L 4 326.5 L 4.5 323 Z " /><path fill="rgb(191,191,191)" stroke="rgb(191,191,191)" stroke-width="1" opacity="1" d="M 50.5 323 L 51 325.5 L 50 325.5 L 50.5 323 Z " /><path fill="rgb(191,191,191)" stroke="rgb(191,191,191)" stroke-width="1" opacity="1" d="M 929.5 323 L 930 325.5 L 929 325.5 L 929.5 323 Z " /><path fill="rgb(191,191,191)" stroke="rgb(191,191,191)" stroke-width="1" opacity="1" d="M 975.5 323 L 976 326.5 L 975 326.5 L 975.5 323 Z " /><path fill="rgb(191,191,191)" stroke="rgb(191,191,191)" stroke-width="1" opacity="1" d="M 51.5 327 L 52 330.5 L 51 330.5 L 51.5 327 Z " /><path fill="rgb(191,191,191)" stroke="rgb(191,191,191)" stroke-width="1" opacity="1" d="M 928.5 327 L 929 329.5 L 928 329.5 L 928.5 327 Z " /><path fill="rgb(191,191,191)" stroke="rgb(191,191,191)" stroke-width="1" opacity="1" d="M 5.5 328 L 6 331.5 L 5 331.5 L 5.5 328 Z " /><path fill="rgb(191,191,191)" stroke="rgb(191,191,191)" stroke-width="1" opacity="1" d="M 974.5 329 L 975 331.5 L 974 331.5 L 974.5 329 Z " /><path fill="rgb(191,191,191)" stroke="rgb(191,191,191)" stroke-width="1" opacity="1" d="M 52.5 332 L 53 334.5 L 52 334.5 L 52.5 332 Z " /><path fill="rgb(191,191,191)" stroke="rgb(191,191,191)" stroke-width="1" opacity="1" d="M 927.5 332 L 928 333.5 L 927 333.5 L 927.5 332 Z " /><path fill="rgb(191,191,191)" stroke="rgb(191,191,191)" stroke-width="1" opacity="1" d="M 6.5 333 L 7 335.5 L 6 335.5 L 6.5 333 Z " /><path fill="rgb(191,191,191)" stroke="rgb(191,191,191)" stroke-width="1" opacity="1" d="M 973.5 333 L 974 336.5 L 973 336.5 L 973.5 333 Z " /><path fill="rgb(191,191,191)" stroke="rgb(191,191,191)" stroke-width="1" opacity="1" d="M 53.5 336 L 54 337.5 L 53 337.5 L 53.5 336 Z " /><path fill="rgb(191,191,191)" stroke="rgb(191,191,191)" stroke-width="1" opacity="1" d="M 926.5 336 L 927 337.5 L 926 337.5 L 926.5 336 Z " /><path fill="rgb(191,191,191)" stroke="rgb(191,191,191)" stroke-width="1" opacity="1" d="M 7.5 337 L 8 339.5 L 7 339.5 L 7.5 337 Z " /><path fill="rgb(191,191,191)" stroke="rgb(191,191,191)" stroke-width="1" opacity="1" d="M 972.5 338 L 973 340.5 L 972 340.5 L 972.5 338 Z " /><path fill="rgb(191,191,191)" stroke="rgb(191,191,191)" stroke-width="1" opacity="1" d="M 54.5 339 L 55 341.5 L 54 341.5 L 54.5 339 Z " /><path fill="rgb(191,191,191)" stroke="rgb(191,191,191)" stroke-width="1" opacity="1" d="M 925.5 339 L 926 341.5 L 924.5 345 L 924 342.5 L 925.5 339 Z " /><path fill="rgb(191,191,191)" stroke="rgb(191,191,191)" stroke-width="1" opacity="1" d="M 8.5 342 L 9 343.5 L 8 343.5 L 8.5 342 Z " /><path fill="rgb(191,191,191)" stroke="rgb(191,191,191)" stroke-width="1" opacity="1" d="M 971.5 342 L 972 344.5 L 971 344.5 L 971.5 342 Z " /><path fill="rgb(191,191,191)" stroke="rgb(191,191,191)" stroke-width="1" opacity="1" d="M 55.5 343 L 56 344.5 L 55 344.5 L 55.5 343 Z " /><path fill="rgb(191,191,191)" stroke="rgb(191,191,191)" stroke-width="1" opacity="1" d="M 9.5 345 L 10 347.5 L 9 347.5 L 9.5 345 Z " /><path fill="rgb(191,191,191)" stroke="rgb(191,191,191)" stroke-width="1" opacity="1" d="M 56.5 346 L 57 347.5 L 56 347.5 L 56.5 346 Z " /><path fill="rgb(191,191,191)" stroke="rgb(191,191,191)" stroke-width="1" opacity="1" d="M 923.5 346 L 924 347.5 L 923 347.5 L 923.5 346 Z " /><path fill="rgb(191,191,191)" stroke="rgb(191,191,191)" stroke-width="1" opacity="1" d="M 970.5 346 L 971 347.5 L 970 347.5 L 970.5 346 Z " /><path fill="rgb(191,191,191)" stroke="rgb(191,191,191)" stroke-width="1" opacity="1" d="M 10.5 349 L 12 354.5 L 11 354.5 L 10 351.5 L 10.5 349 Z " /><path fill="rgb(191,191,191)" stroke="rgb(191,191,191)" stroke-width="1" opacity="1" d="M 57.5 349 L 58 350.5 L 57 350.5 L 57.5 349 Z " /><path fill="rgb(191,191,191)" stroke="rgb(191,191,191)" stroke-width="1" opacity="1" d="M 922.5 349 L 923 350.5 L 922 350.5 L 922.5 349 Z " /><path fill="rgb(191,191,191)" stroke="rgb(191,191,191)" stroke-width="1" opacity="1" d="M 969.5 349 L 970 351.5 L 969 351.5 L 969.5 349 Z " /><path fill="rgb(191,191,191)" stroke="rgb(191,191,191)" stroke-width="1" opacity="1" d="M 58.5 352 L 59 353.5 L 58 353.5 L 58.5 352 Z " /><path fill="rgb(191,191,191)" stroke="rgb(191,191,191)" stroke-width="1" opacity="1" d="M 921.5 352 L 922 353.5 L 921 353.5 L 921.5 352 Z " /><path fill="rgb(191,191,191)" stroke="rgb(191,191,191)" stroke-width="1" opacity="1" d="M 968.5 353 L 969 354.5 L 968 354.5 L 968.5 353 Z " /><path fill="rgb(191,191,191)" stroke="rgb(191,191,191)" stroke-width="1" opacity="1" d="M 59.5 355 L 62 361.5 L 61 361.5 L 59 356.5 L 59.5 355 Z " /><path fill="rgb(191,191,191)" stroke="rgb(191,191,191)" stroke-width="1" opacity="1" d="M 920.5 355 L 921 356.5 L 919.5 359 L 919 357.5 L 920.5 355 Z " /><path fill="rgb(191,191,191)" stroke="rgb(191,191,191)" stroke-width="1" opacity="1" d="M 12.5 356 L 13 357.5 L 12 357.5 L 12.5 356 Z " /><path fill="rgb(191,191,191)" stroke="rgb(191,191,191)" stroke-width="1" opacity="1" d="M 967.5 356 L 968 357.5 L 967 357.5 L 967.5 356 Z " /><path fill="rgb(191,191,191)" stroke="rgb(191,191,191)" stroke-width="1" opacity="1" d="M 13.5 359 L 14 360.5 L 13 360.5 L 13.5 359 Z " /><path fill="rgb(191,191,191)" stroke="rgb(191,191,191)" stroke-width="1" opacity="1" d="M 966.5 359 L 967 361.5 L 965.5 364 L 965 362.5 L 966.5 359 Z " /><path fill="rgb(191,191,191)" stroke="rgb(191,191,191)" stroke-width="1" opacity="1" d="M 918.5 360 L 919 361.5 L 917.5 364 L 917 362.5 L 918.5 360 Z " /><path fill="rgb(191,191,191)" stroke="rgb(191,191,191)" stroke-width="1" opacity="1" d="M 14.5 362 L 15 363.5 L 14 363.5 L 14.5 362 Z " /><path fill="rgb(191,191,191)" stroke="rgb(191,191,191)" stroke-width="1" opacity="1" d="M 62.5 363 L 65 368.5 L 64 368.5 L 62 364.5 L 62.5 363 Z " /><path fill="rgb(191,191,191)" stroke="rgb(191,191,191)" stroke-width="1" opacity="1" d="M 15.5 365 L 16 366.5 L 15 366.5 L 15.5 365 Z " /><path fill="rgb(191,191,191)" stroke="rgb(191,191,191)" stroke-width="1" opacity="1" d="M 916.5 365 L 917 366.5 L 915.5 369 L 915 367.5 L 916.5 365 Z " /><path fill="rgb(191,191,191)" stroke="rgb(191,191,191)" stroke-width="1" opacity="1" d="M 964.5 365 L 965 366.5 L 964 366.5 L 964.5 365 Z " /><path fill="rgb(191,191,191)" stroke="rgb(191,191,191)" stroke-width="1" opacity="1" d="M 16.5 368 L 18 371.5 L 17 371.5 Q 15.29 369.96 16.5 368 Z " /><path fill="rgb(191,191,191)" stroke="rgb(191,191,191)" stroke-width="1" opacity="1" d="M 963.5 368 L 964 369.5 L 963 369.5 L 963.5 368 Z " /><path fill="rgb(191,191,191)" stroke="rgb(191,191,191)" stroke-width="1" opacity="1" d="M 65.5 370 L 65.5 371 L 65.5 370 Z " /><path fill="rgb(191,191,191)" stroke="rgb(191,191,191)" stroke-width="1" opacity="1" d="M 914.5 370 L 914.5 371 L 914.5 370 Z " /><path fill="rgb(191,191,191)" stroke="rgb(191,191,191)" stroke-width="1" opacity="1" d="M 962.5 371 L 963 372.5 L 961.5 375 L 961 373.5 L 962.5 371 Z " /><path fill="rgb(191,191,191)" stroke="rgb(191,191,191)" stroke-width="1" opacity="1" d="M 66.5 372 L 74 386.5 Q 73 388 72 385.5 L 66 373.5 L 66.5 372 Z " /><path fill="rgb(191,191,191)" stroke="rgb(191,191,191)" stroke-width="1" opacity="1" d="M 913.5 372 L 913.5 373 L 913.5 372 Z " /><path fill="rgb(191,191,191)" stroke="rgb(191,191,191)" stroke-width="1" opacity="1" d="M 18.5 373 L 20 376.5 L 19 376.5 Q 17.29 374.96 18.5 373 Z " /><path fill="rgb(191,191,191)" stroke="rgb(191,191,191)" stroke-width="1" opacity="1" d="M 912.5 374 L 913 375.5 L 907.5 385 L 908 383.5 L 912.5 374 Z " /><path fill="rgb(191,191,191)" stroke="rgb(191,191,191)" stroke-width="1" opacity="1" d="M 960.5 376 L 961 377.5 L 959.5 380 L 959 378.5 L 960.5 376 Z " /><path fill="rgb(191,191,191)" stroke="rgb(191,191,191)" stroke-width="1" opacity="1" d="M 20.5 378 L 22 381.5 L 21 381.5 Q 19.29 379.96 20.5 378 Z " /><path fill="rgb(191,191,191)" stroke="rgb(191,191,191)" stroke-width="1" opacity="1" d="M 958.5 381 L 959 382.5 L 956.5 387 L 956 385.5 L 958.5 381 Z " /><path fill="rgb(191,191,191)" stroke="rgb(191,191,191)" stroke-width="1" opacity="1" d="M 22.5 383 L 22.5 384 L 22.5 383 Z " /><path fill="rgb(191,191,191)" stroke="rgb(191,191,191)" stroke-width="1" opacity="1" d="M 23.5 385 L 27 392.5 L 26 392.5 L 23 386.5 L 23.5 385 Z " /><path fill="rgb(191,191,191)" stroke="rgb(191,191,191)" stroke-width="1" opacity="1" d="M 906.5 386 L 906.5 387 L 906.5 386 Z " /><path fill="rgb(191,191,191)" stroke="rgb(191,191,191)" stroke-width="1" opacity="1" d="M 74.5 388 L 78 393.5 Q 77 395 76 392.5 L 74 388.5 L 74.5 388 Z " /><path fill="rgb(191,191,191)" stroke="rgb(191,191,191)" stroke-width="1" opacity="1" d="M 905.5 388 L 905 389.5 L 893 409.5 L 877 429.5 L 746.5 560 L 527.5 778 L 489.5 814 L 102 428.5 L 83 403.5 L 83.5 403 L 86 405.5 L 88 409.5 L 103 428.5 L 228.5 554 L 439.5 764 L 490.5 813 L 876 429.5 Q 892.83 410.83 905.5 388 Z " /><path fill="rgb(191,191,191)" stroke="rgb(191,191,191)" stroke-width="1" opacity="1" d="M 955.5 388 L 955.5 389 L 955.5 388 Z " /><path fill="rgb(191,191,191)" stroke="rgb(191,191,191)" stroke-width="1" opacity="1" d="M 954.5 390 L 955 391.5 L 948.5 403 L 949 401.5 L 954.5 390 Z " /><path fill="rgb(191,191,191)" stroke="rgb(191,191,191)" stroke-width="1" opacity="1" d="M 27.5 394 L 27.5 395 L 27.5 394 Z " /><path fill="rgb(191,191,191)" stroke="rgb(191,191,191)" stroke-width="1" opacity="1" d="M 78.5 395 L 83 401.5 Q 82 403 81 400.5 L 78 395.5 L 78.5 395 Z " /><path fill="rgb(191,191,191)" stroke="rgb(191,191,191)" stroke-width="1" opacity="1" d="M 28.5 396 L 28.5 397 L 28.5 396 Z " /><path fill="rgb(191,191,191)" stroke="rgb(191,191,191)" stroke-width="1" opacity="1" d="M 29.5 398 L 29.5 399 L 29.5 398 Z " /><path fill="rgb(191,191,191)" stroke="rgb(191,191,191)" stroke-width="1" opacity="1" d="M 30.5 400 L 36 409.5 Q 35 411 34 408.5 L 30 400.5 L 30.5 400 Z " /><path fill="rgb(191,191,191)" stroke="rgb(191,191,191)" stroke-width="1" opacity="1" d="M 947.5 404 L 947.5 405 L 947.5 404 Z " /><path fill="rgb(191,191,191)" stroke="rgb(191,191,191)" stroke-width="1" opacity="1" d="M 946.5 406 L 946 407.5 L 943.5 412 L 944 410.5 L 946.5 406 Z " /><path fill="rgb(191,191,191)" stroke="rgb(191,191,191)" stroke-width="1" opacity="1" d="M 36.5 411 L 39 414.5 Q 38 416 37 413.5 L 36.5 411 Z " /><path fill="rgb(191,191,191)" stroke="rgb(191,191,191)" stroke-width="1" opacity="1" d="M 942.5 413 L 942 414.5 L 940.5 417 L 941 415.5 L 942.5 413 Z " /><path fill="rgb(191,191,191)" stroke="rgb(191,191,191)" stroke-width="1" opacity="1" d="M 39.5 416 L 44 422.5 Q 43 424 42 421.5 L 39 416.5 L 39.5 416 Z " /><path fill="rgb(191,191,191)" stroke="rgb(191,191,191)" stroke-width="1" opacity="1" d="M 939.5 418 L 939 419.5 Q 931.75 433.25 921.5 444 L 921 443.5 L 924 440.5 L 939.5 418 Z " /><path fill="rgb(191,191,191)" stroke="rgb(191,191,191)" stroke-width="1" opacity="1" d="M 44.5 424 Q 47 425 45.5 426 Q 43 425 44.5 424 Z " /><path fill="rgb(191,191,191)" stroke="rgb(191,191,191)" stroke-width="1" opacity="1" d="M 46.5 427 Q 59.03 445.47 74 461.5 L 489.5 879 L 531 838.5 L 908 459.5 L 920.5 445 L 921 445.5 L 917 449.5 L 909 459.5 L 490.5 880 L 435 825.5 L 72 460.5 L 56 441.5 L 46 427.5 L 46.5 427 Z " /></svg>