<?xml version="1.0" encoding="UTF-8"?>
<!DOCTYPE svg PUBLIC "-//W3C//DTD SVG 1.1//EN" "http://www.w3.org/Graphics/SVG/1.1/DTD/svg11.dtd">
<svg xmlns="http://www.w3.org/2000/svg" version="1.1" width="980px" height="880px" style="shape-rendering:geometricPrecision; text-rendering:geometricPrecision; image-rendering:optimizeQuality; fill-rule:evenodd; clip-rule:evenodd" xmlns:xlink="http://www.w3.org/1999/xlink">
<g><path style="opacity:1" fill="#070707" d="M 258.5,-0.5 C 268.167,-0.5 277.833,-0.5 287.5,-0.5C 330.042,2.23381 370.042,13.9005 407.5,34.5C 407.821,36.0481 408.821,36.7148 410.5,36.5C 412.996,37.5804 415.33,38.9138 417.5,40.5C 417.821,42.0481 418.821,42.7148 420.5,42.5C 439.942,54.9342 457.609,69.6009 473.5,86.5C 473.738,88.4044 474.738,89.7377 476.5,90.5C 480.212,93.2109 483.212,96.5442 485.5,100.5C 485.427,102.027 486.094,103.027 487.5,103.5C 488.833,104.833 490.167,104.833 491.5,103.5C 492.906,103.027 493.573,102.027 493.5,100.5C 494.167,99.1667 495.167,98.1667 496.5,97.5C 498.262,96.7377 499.262,95.4044 499.5,93.5C 500.167,92.1667 501.167,91.1667 502.5,90.5C 504.587,89.4154 505.92,87.7488 506.5,85.5C 508.167,83.1667 510.167,81.1667 512.5,79.5C 516.436,77.2343 519.769,74.2343 522.5,70.5C 522.833,69.5 523.5,68.8333 524.5,68.5C 527.089,67.5806 529.089,65.914 530.5,63.5C 535.737,57.878 541.737,53.2113 548.5,49.5C 550.027,49.573 551.027,48.9063 551.5,47.5C 553.147,45.6736 555.147,44.3403 557.5,43.5C 559.027,43.573 560.027,42.9063 560.5,41.5C 565.316,37.7072 570.65,34.7072 576.5,32.5C 578.027,32.573 579.027,31.9063 579.5,30.5C 589.63,24.7722 600.297,20.1055 611.5,16.5C 614.716,16.6545 617.383,15.6545 619.5,13.5C 619.833,13.5 620.167,13.5 620.5,13.5C 623.152,13.5905 625.485,12.9238 627.5,11.5C 630.152,11.5905 632.485,10.9238 634.5,9.5C 653.157,4.12089 672.157,0.787555 691.5,-0.5C 701.167,-0.5 710.833,-0.5 720.5,-0.5C 767.611,2.64767 811.278,16.6477 851.5,41.5C 852.035,43.4456 853.368,44.4456 855.5,44.5C 856.492,44.3284 857.158,44.6618 857.5,45.5C 858.035,47.4456 859.368,48.4456 861.5,48.5C 879.933,60.2552 896.266,74.5885 910.5,91.5C 910.427,93.0269 911.094,94.0269 912.5,94.5C 913.833,95.1667 914.833,96.1667 915.5,97.5C 915.427,99.0269 916.094,100.027 917.5,100.5C 919.89,101.891 921.557,103.891 922.5,106.5C 922.738,108.404 923.738,109.738 925.5,110.5C 927.547,112.55 929.214,114.883 930.5,117.5C 930.427,119.027 931.094,120.027 932.5,120.5C 934.326,122.147 935.66,124.147 936.5,126.5C 936.427,128.027 937.094,129.027 938.5,129.5C 938.427,131.027 939.094,132.027 940.5,132.5C 950.787,148.327 958.787,165.327 964.5,183.5C 964.12,185.698 964.787,187.365 966.5,188.5C 967.903,192.381 968.903,196.381 969.5,200.5C 969.41,203.152 970.076,205.485 971.5,207.5C 975.354,221.626 978.021,235.96 979.5,250.5C 979.5,266.167 979.5,281.833 979.5,297.5C 973.75,354.988 952.583,405.988 916,450.5C 774.993,593.34 633.493,735.673 491.5,877.5C 489.784,877.371 488.117,877.038 486.5,876.5C 481.5,872.167 476.833,867.5 472.5,862.5C 472.5,860.5 471.5,859.5 469.5,859.5C 467.833,855.833 465.167,853.167 461.5,851.5C 453.759,842.254 445.426,833.421 436.5,825C 435.906,824.536 435.239,824.369 434.5,824.5C 378.5,768.167 322.5,711.833 266.5,655.5C 266.5,653.5 265.5,652.5 263.5,652.5C 263.167,650.167 261.833,648.833 259.5,648.5C 251.091,638.587 242.091,629.087 232.5,620C 231.906,619.536 231.239,619.369 230.5,619.5C 178.5,567.167 126.5,514.833 74.5,462.5C 74.5,460.5 73.5,459.5 71.5,459.5C 59.9519,446.73 49.6186,433.063 40.5,418.5C 40.7148,416.821 40.0481,415.821 38.5,415.5C 38.1667,414.833 37.8333,414.167 37.5,413.5C 37.7148,411.821 37.0481,410.821 35.5,410.5C 15.4427,375.331 3.44269,337.664 -0.5,297.5C -0.5,281.833 -0.5,266.167 -0.5,250.5C 1.09809,234.58 4.09809,218.914 8.5,203.5C 9.92381,201.485 10.5905,199.152 10.5,196.5C 10.8583,193.733 11.525,191.067 12.5,188.5C 14.2132,187.365 14.8799,185.698 14.5,183.5C 20.6987,164.196 29.3654,146.196 40.5,129.5C 41.9063,129.027 42.573,128.027 42.5,126.5C 43.9063,126.027 44.573,125.027 44.5,123.5C 44.427,121.973 45.0937,120.973 46.5,120.5C 47.9063,120.027 48.573,119.027 48.5,117.5C 49.7859,114.883 51.4525,112.55 53.5,110.5C 54.9063,110.027 55.573,109.027 55.5,107.5C 56.7997,104.568 58.7997,102.234 61.5,100.5C 63.2624,99.7377 64.2624,98.4044 64.5,96.5C 64.8333,95.5 65.5,94.8333 66.5,94.5C 68.2624,93.7377 69.2624,92.4044 69.5,90.5C 74.1667,85.1667 79.1667,80.1667 84.5,75.5C 88.1002,73.5698 91.1002,70.9031 93.5,67.5C 93.5,66.8333 93.8333,66.5 94.5,66.5C 97.0892,65.5806 99.0892,63.914 100.5,61.5C 102.749,60.9202 104.415,59.5869 105.5,57.5C 106.579,55.457 108.246,54.1237 110.5,53.5C 112.027,53.573 113.027,52.9063 113.5,51.5C 114.436,50.0256 115.77,49.0256 117.5,48.5C 119.027,48.573 120.027,47.9063 120.5,46.5C 122.027,46.573 123.027,45.9063 123.5,44.5C 125.027,44.573 126.027,43.9063 126.5,42.5C 147.348,28.413 170.015,18.0797 194.5,11.5C 197.152,11.5905 199.485,10.9238 201.5,9.5C 220.157,4.12089 239.157,0.787555 258.5,-0.5 Z M 395.5,81.5 C 395.973,82.9063 396.973,83.573 398.5,83.5C 399.899,84.8897 401.566,85.8897 403.5,86.5C 403.973,87.9063 404.973,88.573 406.5,88.5C 410.614,92.0642 414.948,95.3975 419.5,98.5C 419.973,99.9063 420.973,100.573 422.5,100.5C 422.833,101.5 423.5,102.167 424.5,102.5C 424.973,103.906 425.973,104.573 427.5,104.5C 429.167,106.833 431.167,108.833 433.5,110.5C 436.833,114.5 440.5,118.167 444.5,121.5C 452.562,129.989 459.896,138.989 466.5,148.5C 467.026,150.23 468.026,151.564 469.5,152.5C 470.569,154.969 471.902,157.302 473.5,159.5C 473.932,160.71 474.599,161.71 475.5,162.5C 480.424,171.348 485.091,180.348 489.5,189.5C 523.357,115.831 580.023,70.3305 659.5,53C 694.331,47.0147 728.998,48.1814 763.5,56.5C 765.515,57.9238 767.848,58.5905 770.5,58.5C 785.778,63.9665 800.778,70.2998 815.5,77.5C 815.973,78.9063 816.973,79.573 818.5,79.5C 820.663,81.0828 822.996,82.4161 825.5,83.5C 825.973,84.9063 826.973,85.573 828.5,85.5C 828.973,86.9063 829.973,87.573 831.5,87.5C 831.973,88.9063 832.973,89.573 834.5,89.5C 834.973,90.9063 835.973,91.573 837.5,91.5C 838.945,93.0627 840.611,94.396 842.5,95.5C 842.973,96.9063 843.973,97.573 845.5,97.5C 847.607,99.7267 849.94,101.727 852.5,103.5C 853.262,105.262 854.596,106.262 856.5,106.5C 872.38,121.703 886.38,138.37 898.5,156.5C 898.932,157.71 899.599,158.71 900.5,159.5C 900.833,160.167 901.167,160.833 901.5,161.5C 901.932,162.71 902.599,163.71 903.5,164.5C 933.746,219.56 941.079,277.56 925.5,338.5C 924.076,340.515 923.41,342.848 923.5,345.5C 918.103,359.669 912.103,373.669 905.5,387.5C 904.094,387.973 903.427,388.973 903.5,390.5C 902.662,390.842 902.328,391.508 902.5,392.5C 901.094,392.973 900.427,393.973 900.5,395.5C 899.662,395.842 899.328,396.508 899.5,397.5C 898.094,397.973 897.427,398.973 897.5,400.5C 896.094,400.973 895.427,401.973 895.5,403.5C 894.094,403.973 893.427,404.973 893.5,406.5C 892.094,406.973 891.427,407.973 891.5,409.5C 888.484,412.52 885.817,415.854 883.5,419.5C 882.094,419.973 881.427,420.973 881.5,422.5C 880.167,423.167 879.167,424.167 878.5,425.5C 876.738,426.262 875.738,427.596 875.5,429.5C 867.5,436.833 859.833,444.5 852.5,452.5C 848.833,455.5 845.5,458.833 842.5,462.5C 841.167,463.167 840.167,464.167 839.5,465.5C 832.167,472.167 825.167,479.167 818.5,486.5C 798.833,505.5 779.5,524.833 760.5,544.5C 740.217,563.115 720.551,582.449 701.5,602.5C 667.167,636.167 633.167,670.167 599.5,704.5C 579.833,723.5 560.5,742.833 541.5,762.5C 524.085,778.412 507.085,794.912 490.5,812C 489.423,812.47 488.423,812.303 487.5,811.5C 481.167,804.5 474.5,797.833 467.5,791.5C 458.5,781.833 449.167,772.5 439.5,763.5C 378.5,702.833 317.5,642.167 256.5,581.5C 247.5,571.833 238.167,562.5 228.5,553.5C 186.5,511.833 144.5,470.167 102.5,428.5C 102.573,426.973 101.906,425.973 100.5,425.5C 99.8333,424.167 98.8333,423.167 97.5,422.5C 97.573,420.973 96.9063,419.973 95.5,419.5C 94.2993,417.091 92.6326,415.091 90.5,413.5C 90.2624,411.596 89.2624,410.262 87.5,409.5C 87.573,407.973 86.9063,406.973 85.5,406.5C 84.5514,404.223 83.2181,402.223 81.5,400.5C 81.573,398.973 80.9063,397.973 79.5,397.5C 69.2442,379.992 60.9109,361.659 54.5,342.5C 54.5905,339.848 53.9238,337.515 52.5,335.5C 33.0249,245.437 56.6916,168.937 123.5,106C 187.589,53.3796 259.922,37.3796 340.5,58C 359.67,63.9971 378.004,71.8304 395.5,81.5 Z"/></g>
<g><path style="opacity:1" fill="#676767" d="M 201.5,9.5 C 199.485,10.9238 197.152,11.5905 194.5,11.5C 196.515,10.0762 198.848,9.40953 201.5,9.5 Z"/></g>
<g><path style="opacity:1" fill="#545454" d="M 634.5,9.5 C 632.485,10.9238 630.152,11.5905 627.5,11.5C 629.515,10.0762 631.848,9.40953 634.5,9.5 Z"/></g>
<g><path style="opacity:1" fill="#626262" d="M 627.5,11.5 C 625.485,12.9238 623.152,13.5905 620.5,13.5C 622.515,12.0762 624.848,11.4095 627.5,11.5 Z"/></g>
<g><path style="opacity:1" fill="#656565" d="M 619.5,13.5 C 617.383,15.6545 614.716,16.6545 611.5,16.5C 613.936,15.129 616.603,14.129 619.5,13.5 Z"/></g>
<g><path style="opacity:1" fill="#7b7b7b" d="M 579.5,30.5 C 579.027,31.9063 578.027,32.573 576.5,32.5C 576.973,31.0937 577.973,30.427 579.5,30.5 Z"/></g>
<g><path style="opacity:1" fill="#7e7e7e" d="M 407.5,34.5 C 408.71,34.9321 409.71,35.5987 410.5,36.5C 408.821,36.7148 407.821,36.0481 407.5,34.5 Z"/></g>
<g><path style="opacity:1" fill="#7b7b7b" d="M 417.5,40.5 C 418.71,40.9321 419.71,41.5987 420.5,42.5C 418.821,42.7148 417.821,42.0481 417.5,40.5 Z"/></g>
<g><path style="opacity:1" fill="#838383" d="M 560.5,41.5 C 560.027,42.9063 559.027,43.573 557.5,43.5C 557.973,42.0937 558.973,41.427 560.5,41.5 Z"/></g>
<g><path style="opacity:1" fill="#818181" d="M 851.5,41.5 C 853.23,42.0256 854.564,43.0256 855.5,44.5C 853.368,44.4456 852.035,43.4456 851.5,41.5 Z"/></g>
<g><path style="opacity:1" fill="#8b8b8b" d="M 126.5,42.5 C 126.027,43.9063 125.027,44.573 123.5,44.5C 123.973,43.0937 124.973,42.427 126.5,42.5 Z"/></g>
<g><path style="opacity:1" fill="#898989" d="M 123.5,44.5 C 123.027,45.9063 122.027,46.573 120.5,46.5C 120.973,45.0937 121.973,44.427 123.5,44.5 Z"/></g>
<g><path style="opacity:1" fill="#7c7c7c" d="M 857.5,45.5 C 859.23,46.0256 860.564,47.0256 861.5,48.5C 859.368,48.4456 858.035,47.4456 857.5,45.5 Z"/></g>
<g><path style="opacity:1" fill="#8b8b8b" d="M 120.5,46.5 C 120.027,47.9063 119.027,48.573 117.5,48.5C 117.973,47.0937 118.973,46.427 120.5,46.5 Z"/></g>
<g><path style="opacity:1" fill="#797979" d="M 551.5,47.5 C 551.027,48.9063 550.027,49.573 548.5,49.5C 548.973,48.0937 549.973,47.427 551.5,47.5 Z"/></g>
<g><path style="opacity:1" fill="#828282" d="M 113.5,51.5 C 113.027,52.9063 112.027,53.573 110.5,53.5C 110.973,52.0937 111.973,51.427 113.5,51.5 Z"/></g>
<g><path style="opacity:1" fill="#636363" d="M 763.5,56.5 C 766.152,56.4095 768.485,57.0762 770.5,58.5C 767.848,58.5905 765.515,57.9238 763.5,56.5 Z"/></g>
<g><path style="opacity:1" fill="#606060" d="M 105.5,57.5 C 104.415,59.5869 102.749,60.9202 100.5,61.5C 101.585,59.4131 103.251,58.0798 105.5,57.5 Z"/></g>
<g><path style="opacity:1" fill="#666666" d="M 100.5,61.5 C 99.0892,63.914 97.0892,65.5806 94.5,66.5C 95.9108,64.086 97.9108,62.4194 100.5,61.5 Z"/></g>
<g><path style="opacity:1" fill="#626262" d="M 530.5,63.5 C 529.089,65.914 527.089,67.5806 524.5,68.5C 525.911,66.086 527.911,64.4194 530.5,63.5 Z"/></g>
<g><path style="opacity:1" fill="#565656" d="M 93.5,67.5 C 91.1002,70.9031 88.1002,73.5698 84.5,75.5C 86.8998,72.0969 89.8998,69.4302 93.5,67.5 Z"/></g>
<g><path style="opacity:1" fill="#666666" d="M 522.5,70.5 C 519.769,74.2343 516.436,77.2343 512.5,79.5C 515.231,75.7657 518.564,72.7657 522.5,70.5 Z"/></g>
<g><path style="opacity:1" fill="#8f8f8f" d="M 815.5,77.5 C 817.027,77.427 818.027,78.0937 818.5,79.5C 816.973,79.573 815.973,78.9063 815.5,77.5 Z"/></g>
<g><path style="opacity:1" fill="#8f8f8f" d="M 395.5,81.5 C 397.027,81.427 398.027,82.0937 398.5,83.5C 396.973,83.573 395.973,82.9063 395.5,81.5 Z"/></g>
<g><path style="opacity:1" fill="#8c8c8c" d="M 825.5,83.5 C 827.027,83.427 828.027,84.0937 828.5,85.5C 826.973,85.573 825.973,84.9063 825.5,83.5 Z"/></g>
<g><path style="opacity:1" fill="#a4a4a4" d="M 828.5,85.5 C 830.027,85.427 831.027,86.0937 831.5,87.5C 829.973,87.573 828.973,86.9063 828.5,85.5 Z"/></g>
<g><path style="opacity:1" fill="#777777" d="M 403.5,86.5 C 405.027,86.427 406.027,87.0937 406.5,88.5C 404.973,88.573 403.973,87.9063 403.5,86.5 Z"/></g>
<g><path style="opacity:1" fill="#9d9d9d" d="M 473.5,86.5 C 475.262,87.2623 476.262,88.5956 476.5,90.5C 474.738,89.7377 473.738,88.4044 473.5,86.5 Z"/></g>
<g><path style="opacity:1" fill="#949494" d="M 506.5,85.5 C 505.92,87.7488 504.587,89.4154 502.5,90.5C 503.08,88.2512 504.413,86.5846 506.5,85.5 Z"/></g>
<g><path style="opacity:1" fill="#a2a2a2" d="M 831.5,87.5 C 833.027,87.427 834.027,88.0937 834.5,89.5C 832.973,89.573 831.973,88.9063 831.5,87.5 Z"/></g>
<g><path style="opacity:1" fill="#8e8e8e" d="M 834.5,89.5 C 836.027,89.427 837.027,90.0937 837.5,91.5C 835.973,91.573 834.973,90.9063 834.5,89.5 Z"/></g>
<g><path style="opacity:1" fill="#949494" d="M 69.5,90.5 C 69.2624,92.4044 68.2624,93.7377 66.5,94.5C 66.7376,92.5956 67.7376,91.2623 69.5,90.5 Z"/></g>
<g><path style="opacity:1" fill="#9e9e9e" d="M 910.5,91.5 C 911.906,91.9731 912.573,92.9731 912.5,94.5C 911.094,94.0269 910.427,93.0269 910.5,91.5 Z"/></g>
<g><path style="opacity:1" fill="#787878" d="M 499.5,93.5 C 499.262,95.4044 498.262,96.7377 496.5,97.5C 496.738,95.5956 497.738,94.2623 499.5,93.5 Z"/></g>
<g><path style="opacity:1" fill="#a3a3a3" d="M 842.5,95.5 C 844.027,95.427 845.027,96.0937 845.5,97.5C 843.973,97.573 842.973,96.9063 842.5,95.5 Z"/></g>
<g><path style="opacity:1" fill="#7a7a7a" d="M 64.5,96.5 C 64.2624,98.4044 63.2624,99.7377 61.5,100.5C 61.7376,98.5956 62.7376,97.2623 64.5,96.5 Z"/></g>
<g><path style="opacity:1" fill="#a1a1a1" d="M 419.5,98.5 C 421.027,98.427 422.027,99.0937 422.5,100.5C 420.973,100.573 419.973,99.9063 419.5,98.5 Z"/></g>
<g><path style="opacity:1" fill="#878787" d="M 915.5,97.5 C 916.906,97.9731 917.573,98.9731 917.5,100.5C 916.094,100.027 915.427,99.0269 915.5,97.5 Z"/></g>
<g><path style="opacity:1" fill="#909090" d="M 485.5,100.5 C 486.906,100.973 487.573,101.973 487.5,103.5C 486.094,103.027 485.427,102.027 485.5,100.5 Z"/></g>
<g><path style="opacity:1" fill="#929292" d="M 493.5,100.5 C 493.573,102.027 492.906,103.027 491.5,103.5C 491.427,101.973 492.094,100.973 493.5,100.5 Z"/></g>
<g><path style="opacity:1" fill="#8e8e8e" d="M 424.5,102.5 C 426.027,102.427 427.027,103.094 427.5,104.5C 425.973,104.573 424.973,103.906 424.5,102.5 Z"/></g>
<g><path style="opacity:1" fill="#959595" d="M 852.5,103.5 C 854.404,103.738 855.738,104.738 856.5,106.5C 854.596,106.262 853.262,105.262 852.5,103.5 Z"/></g>
<g><path style="opacity:1" fill="#7b7b7b" d="M 922.5,106.5 C 924.262,107.262 925.262,108.596 925.5,110.5C 923.738,109.738 922.738,108.404 922.5,106.5 Z"/></g>
<g><path style="opacity:1" fill="#9e9e9e" d="M 55.5,107.5 C 55.573,109.027 54.9063,110.027 53.5,110.5C 53.427,108.973 54.0937,107.973 55.5,107.5 Z"/></g>
<g><path style="opacity:1" fill="#a2a2a2" d="M 433.5,110.5 C 438.167,113.167 441.833,116.833 444.5,121.5C 440.5,118.167 436.833,114.5 433.5,110.5 Z"/></g>
<g><path style="opacity:1" fill="#7d7d7d" d="M 48.5,117.5 C 48.573,119.027 47.9063,120.027 46.5,120.5C 46.427,118.973 47.0937,117.973 48.5,117.5 Z"/></g>
<g><path style="opacity:1" fill="#797979" d="M 930.5,117.5 C 931.906,117.973 932.573,118.973 932.5,120.5C 931.094,120.027 930.427,119.027 930.5,117.5 Z"/></g>
<g><path style="opacity:1" fill="#7a7a7a" d="M 44.5,123.5 C 44.573,125.027 43.9063,126.027 42.5,126.5C 42.427,124.973 43.0937,123.973 44.5,123.5 Z"/></g>
<g><path style="opacity:1" fill="#8c8c8c" d="M 42.5,126.5 C 42.573,128.027 41.9063,129.027 40.5,129.5C 40.427,127.973 41.0937,126.973 42.5,126.5 Z"/></g>
<g><path style="opacity:1" fill="#8a8a8a" d="M 936.5,126.5 C 937.906,126.973 938.573,127.973 938.5,129.5C 937.094,129.027 936.427,128.027 936.5,126.5 Z"/></g>
<g><path style="opacity:1" fill="#a4a4a4" d="M 938.5,129.5 C 939.906,129.973 940.573,130.973 940.5,132.5C 939.094,132.027 938.427,131.027 938.5,129.5 Z"/></g>
<g><path style="opacity:1" fill="#7a7a7a" d="M 466.5,148.5 C 468.446,149.035 469.446,150.368 469.5,152.5C 468.026,151.564 467.026,150.23 466.5,148.5 Z"/></g>
<g><path style="opacity:1" fill="#797979" d="M 898.5,156.5 C 900.048,156.821 900.715,157.821 900.5,159.5C 899.599,158.71 898.932,157.71 898.5,156.5 Z"/></g>
<g><path style="opacity:1" fill="#7c7c7c" d="M 473.5,159.5 C 475.048,159.821 475.715,160.821 475.5,162.5C 474.599,161.71 473.932,160.71 473.5,159.5 Z"/></g>
<g><path style="opacity:1" fill="#787878" d="M 901.5,161.5 C 903.048,161.821 903.715,162.821 903.5,164.5C 902.599,163.71 901.932,162.71 901.5,161.5 Z"/></g>
<g><path style="opacity:1" fill="#7f7f7f" d="M 14.5,183.5 C 14.8799,185.698 14.2132,187.365 12.5,188.5C 12.7959,186.597 13.4625,184.93 14.5,183.5 Z"/></g>
<g><path style="opacity:1" fill="#808080" d="M 964.5,183.5 C 965.537,184.93 966.204,186.597 966.5,188.5C 964.787,187.365 964.12,185.698 964.5,183.5 Z"/></g>
<g><path style="opacity:1" fill="#767676" d="M 10.5,196.5 C 10.5905,199.152 9.92381,201.485 8.5,203.5C 8.40953,200.848 9.07619,198.515 10.5,196.5 Z"/></g>
<g><path style="opacity:1" fill="#6a6a6a" d="M 969.5,200.5 C 970.924,202.515 971.59,204.848 971.5,207.5C 970.076,205.485 969.41,203.152 969.5,200.5 Z"/></g>
<g><path style="opacity:1" fill="#686868" d="M 52.5,335.5 C 53.9238,337.515 54.5905,339.848 54.5,342.5C 53.0762,340.485 52.4095,338.152 52.5,335.5 Z"/></g>
<g><path style="opacity:1" fill="#6f6f6f" d="M 925.5,338.5 C 925.59,341.152 924.924,343.485 923.5,345.5C 923.41,342.848 924.076,340.515 925.5,338.5 Z"/></g>
<g><path style="opacity:1" fill="#979797" d="M 905.5,387.5 C 905.573,389.027 904.906,390.027 903.5,390.5C 903.427,388.973 904.094,387.973 905.5,387.5 Z"/></g>
<g><path style="opacity:1" fill="#9a9a9a" d="M 902.5,392.5 C 902.573,394.027 901.906,395.027 900.5,395.5C 900.427,393.973 901.094,392.973 902.5,392.5 Z"/></g>
<g><path style="opacity:1" fill="#909090" d="M 79.5,397.5 C 80.9063,397.973 81.573,398.973 81.5,400.5C 80.0937,400.027 79.427,399.027 79.5,397.5 Z"/></g>
<g><path style="opacity:1" fill="#8f8f8f" d="M 899.5,397.5 C 899.573,399.027 898.906,400.027 897.5,400.5C 897.427,398.973 898.094,397.973 899.5,397.5 Z"/></g>
<g><path style="opacity:1" fill="#909090" d="M 897.5,400.5 C 897.573,402.027 896.906,403.027 895.5,403.5C 895.427,401.973 896.094,400.973 897.5,400.5 Z"/></g>
<g><path style="opacity:1" fill="#8e8e8e" d="M 895.5,403.5 C 895.573,405.027 894.906,406.027 893.5,406.5C 893.427,404.973 894.094,403.973 895.5,403.5 Z"/></g>
<g><path style="opacity:1" fill="#848484" d="M 85.5,406.5 C 86.9063,406.973 87.573,407.973 87.5,409.5C 86.0937,409.027 85.427,408.027 85.5,406.5 Z"/></g>
<g><path style="opacity:1" fill="#878787" d="M 893.5,406.5 C 893.573,408.027 892.906,409.027 891.5,409.5C 891.427,407.973 892.094,406.973 893.5,406.5 Z"/></g>
<g><path style="opacity:1" fill="#777777" d="M 35.5,410.5 C 37.0481,410.821 37.7148,411.821 37.5,413.5C 36.5987,412.71 35.9321,411.71 35.5,410.5 Z"/></g>
<g><path style="opacity:1" fill="#7b7b7b" d="M 87.5,409.5 C 89.2624,410.262 90.2624,411.596 90.5,413.5C 88.7376,412.738 87.7376,411.404 87.5,409.5 Z"/></g>
<g><path style="opacity:1" fill="#777777" d="M 38.5,415.5 C 40.0481,415.821 40.7148,416.821 40.5,418.5C 39.5987,417.71 38.9321,416.71 38.5,415.5 Z"/></g>
<g><path style="opacity:1" fill="#949494" d="M 95.5,419.5 C 96.9063,419.973 97.573,420.973 97.5,422.5C 96.0937,422.027 95.427,421.027 95.5,419.5 Z"/></g>
<g><path style="opacity:1" fill="#8b8b8b" d="M 883.5,419.5 C 883.573,421.027 882.906,422.027 881.5,422.5C 881.427,420.973 882.094,419.973 883.5,419.5 Z"/></g>
<g><path style="opacity:1" fill="#8d8d8d" d="M 100.5,425.5 C 101.906,425.973 102.573,426.973 102.5,428.5C 101.094,428.027 100.427,427.027 100.5,425.5 Z"/></g>
<g><path style="opacity:1" fill="#8a8a8a" d="M 878.5,425.5 C 878.262,427.404 877.262,428.738 875.5,429.5C 875.738,427.596 876.738,426.262 878.5,425.5 Z"/></g>
<g><path style="opacity:1" fill="#aaaaaa" d="M 71.5,459.5 C 73.5,459.5 74.5,460.5 74.5,462.5C 73.1667,461.833 72.1667,460.833 71.5,459.5 Z"/></g>
<g><path style="opacity:1" fill="#464646" d="M 852.5,452.5 C 850.167,456.833 846.833,460.167 842.5,462.5C 845.5,458.833 848.833,455.5 852.5,452.5 Z"/></g>
<g><path style="opacity:1" fill="#3e3e3e" d="M 839.5,465.5 C 839.631,466.239 839.464,466.906 839,467.5C 832.577,474.428 825.744,480.762 818.5,486.5C 825.167,479.167 832.167,472.167 839.5,465.5 Z"/></g>
<g><path style="opacity:1" fill="#a9a9a9" d="M 228.5,553.5 C 238.167,562.5 247.5,571.833 256.5,581.5C 246.921,573.425 237.754,564.758 229,555.5C 228.536,554.906 228.369,554.239 228.5,553.5 Z"/></g>
<g><path style="opacity:1" fill="#838383" d="M 760.5,544.5 C 741.5,564.167 722.167,583.5 702.5,602.5C 702.167,602.5 701.833,602.5 701.5,602.5C 720.551,582.449 740.217,563.115 760.5,544.5 Z"/></g>
<g><path style="opacity:1" fill="#acacac" d="M 230.5,619.5 C 231.239,619.369 231.906,619.536 232.5,620C 242.091,629.087 251.091,638.587 259.5,648.5C 249.5,639.167 239.833,629.5 230.5,619.5 Z"/></g>
<g><path style="opacity:1" fill="#a0a0a0" d="M 259.5,648.5 C 261.833,648.833 263.167,650.167 263.5,652.5C 261.833,651.5 260.5,650.167 259.5,648.5 Z"/></g>
<g><path style="opacity:1" fill="#9f9f9f" d="M 263.5,652.5 C 265.5,652.5 266.5,653.5 266.5,655.5C 265.167,654.833 264.167,653.833 263.5,652.5 Z"/></g>
<g><path style="opacity:1" fill="#4c4c4c" d="M 701.5,602.5 C 701.833,602.5 702.167,602.5 702.5,602.5C 668.784,637.217 634.451,671.217 599.5,704.5C 633.167,670.167 667.167,636.167 701.5,602.5 Z"/></g>
<g><path style="opacity:1" fill="#a9a9a9" d="M 439.5,763.5 C 449.167,772.5 458.5,781.833 467.5,791.5C 457.921,783.425 448.754,774.758 440,765.5C 439.536,764.906 439.369,764.239 439.5,763.5 Z"/></g>
<g><path style="opacity:1" fill="#898989" d="M 541.5,762.5 C 524.796,780.205 507.462,797.205 489.5,813.5C 488.287,813.253 487.62,812.586 487.5,811.5C 488.423,812.303 489.423,812.47 490.5,812C 507.085,794.912 524.085,778.412 541.5,762.5 Z"/></g>
<g><path style="opacity:1" fill="#adadad" d="M 434.5,824.5 C 435.239,824.369 435.906,824.536 436.5,825C 445.426,833.421 453.759,842.254 461.5,851.5C 452.167,842.833 443.167,833.833 434.5,824.5 Z"/></g>
<g><path style="opacity:1" fill="#a0a0a0" d="M 461.5,851.5 C 465.167,853.167 467.833,855.833 469.5,859.5C 466.5,857.167 463.833,854.5 461.5,851.5 Z"/></g>
<g><path style="opacity:1" fill="#9f9f9f" d="M 469.5,859.5 C 471.5,859.5 472.5,860.5 472.5,862.5C 471.167,861.833 470.167,860.833 469.5,859.5 Z"/></g>
<g><path style="opacity:1" fill="#8e8e8e" d="M 486.5,876.5 C 488.117,877.038 489.784,877.371 491.5,877.5C 491.167,878.167 490.833,878.833 490.5,879.5C 489.833,879.5 489.167,879.5 488.5,879.5C 487.833,878.5 487.167,877.5 486.5,876.5 Z"/></g>
</svg>
