<?xml version="1.0" encoding="UTF-8"?>
<svg xmlns="http://www.w3.org/2000/svg" xmlns:xlink="http://www.w3.org/1999/xlink" width="16px" height="16px" viewBox="0 0 16 16" version="1.1">
<g id="surface1">
<path style=" stroke:none;fill-rule:nonzero;fill:rgb(0%,0%,0%);fill-opacity:1;" d="M 5.375 0.359375 C 2.761719 0.714844 0.707031 2.785156 0.359375 5.402344 C 0.300781 5.835938 0.300781 6.5 0.359375 6.949219 C 0.578125 8.625 1.515625 10.125 2.9375 11.074219 C 3.523438 11.464844 4.324219 11.792969 5.066406 11.945312 C 5.378906 12.007812 5.511719 12.015625 6.171875 12.015625 C 7.148438 12.015625 7.566406 11.941406 8.375 11.617188 L 8.703125 11.484375 L 10.613281 13.390625 C 12.65625 15.429688 12.691406 15.460938 13.140625 15.601562 C 13.320312 15.660156 13.429688 15.671875 13.765625 15.667969 C 14.125 15.667969 14.195312 15.660156 14.402344 15.585938 C 15.53125 15.175781 16.035156 13.90625 15.492188 12.828125 C 15.441406 12.726562 15.355469 12.585938 15.304688 12.515625 C 15.25 12.445312 14.378906 11.558594 13.367188 10.542969 L 11.523438 8.695312 L 11.667969 8.339844 C 11.945312 7.644531 12.066406 7 12.066406 6.207031 C 12.066406 5.09375 11.773438 4.050781 11.210938 3.140625 C 10.257812 1.601562 8.707031 0.585938 6.960938 0.359375 C 6.523438 0.304688 5.789062 0.304688 5.375 0.359375 Z M 6.660156 1.003906 C 8.648438 1.203125 10.289062 2.453125 11.03125 4.332031 C 11.445312 5.375 11.480469 6.683594 11.125 7.796875 C 10.640625 9.300781 9.464844 10.511719 7.96875 11.054688 C 7.34375 11.28125 6.882812 11.359375 6.15625 11.359375 C 5.6875 11.355469 5.511719 11.34375 5.226562 11.289062 C 4.101562 11.0625 3.09375 10.496094 2.339844 9.671875 C 1.082031 8.289062 0.65625 6.339844 1.230469 4.582031 C 1.8125 2.808594 3.304688 1.46875 5.117188 1.089844 C 5.679688 0.972656 6.128906 0.945312 6.660156 1.003906 Z M 14.875 13.160156 C 15.125 13.699219 15.046875 14.226562 14.648438 14.621094 C 14.347656 14.925781 13.914062 15.070312 13.539062 15.003906 C 13.101562 14.925781 13.148438 14.964844 11.164062 12.992188 C 10.164062 11.992188 9.351562 11.164062 9.363281 11.152344 C 9.367188 11.140625 9.488281 11.050781 9.625 10.957031 C 10.144531 10.589844 10.617188 10.113281 10.992188 9.582031 L 11.164062 9.335938 L 12.972656 11.144531 C 14.636719 12.8125 14.785156 12.96875 14.875 13.160156 Z M 14.875 13.160156 "/>
<path style=" stroke:none;fill-rule:nonzero;fill:rgb(0%,0%,0%);fill-opacity:1;" d="M 3.140625 3.449219 C 2.585938 4.03125 2.226562 4.832031 2.125 5.714844 C 2.054688 6.320312 2.121094 6.5 2.425781 6.5 C 2.6875 6.5 2.78125 6.367188 2.78125 5.980469 C 2.78125 5.277344 3.128906 4.460938 3.695312 3.820312 C 3.820312 3.679688 3.84375 3.632812 3.84375 3.527344 C 3.84375 3.367188 3.804688 3.292969 3.6875 3.234375 C 3.492188 3.132812 3.414062 3.164062 3.140625 3.449219 Z M 3.140625 3.449219 "/>
</g>
</svg>
