<?xml version="1.0" encoding="utf-8"?>
<svg xmlns="http://www.w3.org/2000/svg" viewBox="0 0 50 50" width="512" height="512">
  <path d="M25 2C12.347656 2 2 11.597656 2 23.5C2 30.007813 5.132813 35.785156 10 39.71875L10 48.65625L11.46875 47.875L18.6875 44.125C20.703125 44.664063 22.800781 45 25 45C37.652344 45 48 35.402344 48 23.5C48 11.597656 37.652344 2 25 2 Z M 25 4C36.644531 4 46 12.757813 46 23.5C46 34.242188 36.644531 43 25 43C22.835938 43 20.742188 42.6875 18.78125 42.125L18.40625 42.03125L18.0625 42.21875L12 45.375L12 38.8125L11.625 38.53125C6.960938 34.941406 4 29.539063 4 23.5C4 12.757813 13.355469 4 25 4 Z M 22.71875 17.71875L10.6875 30.46875L21.5 24.40625L27.28125 30.59375L39.15625 17.71875L28.625 23.625Z" fill="#5B5B5B" />
</svg>