<svg version="1.0" xmlns="http://www.w3.org/2000/svg"
 width="48.000000pt" height="48.000000pt" viewBox="0 0 48.000000 48.000000"
 preserveAspectRatio="xMidYMid meet">
<g transform="translate(0.000000,48.000000) scale(0.100000,-0.100000)"
fill="#000000" stroke="none">
<path d="M135 461 c-136 -61 -150 -243 -26 -323 41 -26 53 -29 113 -26 l66 3
51 -48 c57 -53 81 -58 116 -22 40 39 30 75 -37 135 -37 33 -38 37 -28 70 25
85 -24 177 -112 215 -49 20 -94 19 -143 -4z m155 -43 c122 -84 66 -273 -80
-273 -110 0 -182 116 -132 215 38 77 142 105 212 58z m113 -274 c36 -35 47
-67 26 -79 -18 -12 -53 5 -82 40 -27 33 -27 35 -10 54 10 10 20 20 23 20 3 0
22 -15 43 -35z"/>
<path d="M107 293 c-25 -25 39 -113 82 -113 30 0 26 28 -4 40 -14 5 -35 26
-46 45 -23 38 -23 38 -32 28z"/>
</g>
</svg>
