<svg width="147.175659" height="118.078857" viewBox="0 0 147.176 118.079" fill="none" xmlns="http://www.w3.org/2000/svg" xmlns:xlink="http://www.w3.org/1999/xlink">
	<desc>
			Created with Pixso.
	</desc>
	<defs>
		<filter id="filter_34_1_dd" x="0.000000" y="0.000000" width="147.175659" height="118.078857" filterUnits="userSpaceOnUse" color-interpolation-filters="sRGB">
			<feFlood flood-opacity="0" result="BackgroundImageFix"/>
			<feColorMatrix in="SourceAlpha" type="matrix" values="0 0 0 0 0 0 0 0 0 0 0 0 0 0 0 0 0 0 127 0" result="hardAlpha"/>
			<feOffset dx="0" dy="2"/>
			<feGaussianBlur stdDeviation="1.33333"/>
			<feComposite in2="hardAlpha" operator="out" k2="-1" k3="1"/>
			<feColorMatrix type="matrix" values="0 0 0 0 0 0 0 0 0 0 0 0 0 0 0 0 0 0 0.25 0"/>
			<feBlend mode="normal" in2="BackgroundImageFix" result="effect_dropShadow_1"/>
			<feBlend mode="normal" in="SourceGraphic" in2="effect_dropShadow_1" result="shape"/>
		</filter>
		<linearGradient x1="73.587814" y1="2.000000" x2="73.587814" y2="112.078865" id="paint_linear_34_1_0" gradientUnits="userSpaceOnUse">
			<stop stop-color="#7ADBAE"/>
			<stop offset="1.000000" stop-color="#1A7F72"/>
		</linearGradient>
	</defs>
	<g filter="url(#filter_34_1_dd)">
		<path id="Vector" d="M119.52 68.47C121.49 54.35 119.04 40.87 116.36 31.41C116.2 30.93 116.12 30.54 115.97 30.07C114.47 31.8 112.81 33.3 111.08 34.72C110.45 35.19 109.82 35.74 109.19 36.22C108.4 36.77 107.69 37.32 106.9 37.87C103.35 40.32 99.64 42.53 96.17 45.05C92.63 36.93 87.97 29.28 83.56 21.55C80.09 15.56 76.78 9.49 74.1 3.18C73.94 2.78 73.78 2.39 73.62 2C70.86 8.78 67.31 15.24 63.61 21.55C59.19 29.28 54.54 36.93 50.99 45.05C47.52 42.53 43.82 40.32 40.27 37.87C39.48 37.32 38.69 36.77 37.98 36.22C35.54 34.4 33.17 32.35 31.12 30.07C28.28 39.53 25.52 53.64 27.57 68.39C16.69 67.29 9.2 65.16 4 62.71C6.05 73.12 12.12 91.81 29.15 103.01C29.15 103.01 29.23 103.01 29.23 103.09C30.49 103.87 31.83 104.66 33.17 105.45C33.72 105.77 34.27 106 34.83 106.32C40.66 109.24 47.6 111.29 55.8 112.07C48.07 105.53 42.71 98.35 39.08 90.94C36.56 85.82 34.91 80.61 33.88 75.41C37.98 75.88 41.69 76.75 45.16 78.01C45.55 80.45 46.1 82.9 46.97 85.34C49.73 93.31 55.33 100.25 62.5 104.74C65.11 106.4 67.94 107.66 70.86 108.6C71.41 102.69 69.92 95.51 65.89 88.81C64.87 87.16 63.69 85.5 62.35 83.92C60.77 77.3 61.4 70.12 64.32 63.89C66.6 59.08 70.55 52.62 73.15 48.05C73.31 47.81 73.46 47.49 73.62 47.26C73.78 47.49 73.94 47.81 74.02 48.05C76.7 52.7 80.64 59.08 82.85 63.89C85.77 70.12 86.4 77.3 84.82 83.92C78.12 91.73 75.67 101.11 76.3 108.45C76.3 108.45 76.3 108.45 76.3 108.53C76.3 108.6 76.3 108.6 76.3 108.6C79.22 107.66 82.06 106.4 84.66 104.74C85.77 104.03 86.79 103.32 87.82 102.53C93.49 98.12 97.83 92.12 100.2 85.34C101.06 82.98 101.62 80.53 102.01 78.01C105.48 76.75 109.19 75.88 113.29 75.41C110.76 88.02 104.45 100.96 91.36 112C99.56 111.21 106.5 109.16 112.34 106.24C112.89 106 113.44 105.69 114 105.37C133 95.2 140.17 76.12 142.78 64.6C142.93 63.97 143.09 63.34 143.17 62.71C137.81 65.16 130.32 67.29 119.52 68.47ZM35.54 92.12C39.16 98.43 44.21 104.43 50.99 109.95C45.94 108.84 41.45 107.19 37.59 105.06C22.84 97.17 15.98 83.45 12.75 73.12C17.24 74.15 22.37 74.86 28.12 74.93C28.28 74.93 28.52 74.93 28.68 74.93C30.1 80.77 32.22 86.53 35.54 92.12ZM48.15 51.91C46.58 56.48 45.39 61.21 44.92 66.02C44.84 67.13 44.76 68.15 44.68 69.26C44.68 70.12 44.6 70.99 44.6 71.94C41.13 70.68 37.19 69.65 32.86 69.1C32.7 67.44 32.54 65.79 32.54 64.21C32.22 55.69 33.33 47.73 34.83 41.11C36.48 42.13 38.14 43.16 39.87 44.02C43.03 45.68 46.26 47.26 49.26 49.07C48.86 49.94 48.55 50.88 48.15 51.91ZM65.5 93.78C67.94 97.72 69.21 101.82 69.29 105.77C69.29 105.92 69.29 106.08 69.29 106.24C68.1 105.61 66.92 104.82 65.82 104.03C59.03 99.14 53.99 91.97 51.62 84C51.31 82.9 51.07 81.79 50.83 80.69C54.3 82.5 57.3 84.63 59.82 87C62.11 89.05 64 91.41 65.5 93.78ZM59.98 65.94C59.67 67.05 59.43 68.23 59.27 69.34C59.27 69.49 59.19 69.57 59.19 69.73C58.64 73.51 58.64 77.38 59.51 81.01C59.27 80.85 59.11 80.61 58.88 80.45C56.43 78.17 53.51 76.12 50.12 74.38C50.12 73.59 50.05 72.81 50.05 71.94C50.05 70.99 50.05 69.97 50.12 69.02C50.12 68.86 50.12 68.63 50.12 68.47C50.36 64.68 51.07 60.9 52.02 57.19C52.49 55.46 52.96 53.72 53.51 52.07C54.3 52.7 55.17 53.41 55.88 54.12C58.09 56.25 59.9 58.69 61.24 61.37C60.93 62.87 60.45 64.37 59.98 65.94ZM78.75 46.47C77.01 42.92 75.36 39.29 74.1 35.51C73.86 34.88 73.7 34.32 73.54 33.69C72.2 38.11 70.31 42.29 68.26 46.39C66.37 50.25 64.4 54.12 62.74 58.06C61.16 54.59 58.64 51.44 55.8 48.91C55.56 48.68 55.33 48.44 55.09 48.28C56.12 45.52 57.22 42.84 58.4 40.16C59.59 37.4 60.85 34.72 62.11 31.96C65.26 25.26 69.76 17.21 73.54 8.62C76.15 14.61 79.14 20.37 81.82 25.57C82.93 27.86 84.03 29.99 84.98 32.04C86.24 34.72 87.5 37.48 88.68 40.24C89.87 42.92 90.97 45.6 92 48.36C91.76 48.6 91.52 48.83 91.29 48.99C88.45 51.59 85.92 54.67 84.35 58.14C82.69 54.2 80.64 50.33 78.75 46.47ZM85.61 61.29C86.95 58.61 88.76 56.17 90.97 54.04C91.76 53.33 92.55 52.62 93.34 51.99C93.89 53.72 94.44 55.38 94.83 57.11C95.86 60.98 96.57 64.92 96.81 68.94C96.88 70.75 96.96 72.49 96.88 74.3C96.88 74.3 96.88 74.3 96.81 74.3C93.41 76.04 90.58 78.09 88.05 80.37C87.82 80.53 87.66 80.77 87.42 80.93C88.6 76.04 88.21 70.83 86.95 65.94C86.63 64.37 86.16 62.87 85.61 61.29ZM77.72 105.77C77.88 96.78 84.58 86.68 96.17 80.61C95.94 81.72 95.7 82.82 95.39 83.92C93.65 90 90.26 95.59 85.84 100.01C84.43 101.43 82.85 102.77 81.27 103.95C80.17 104.74 78.98 105.45 77.8 106.16C77.72 106 77.72 105.84 77.72 105.77ZM102.4 71.94C102.48 65.16 101.06 58.3 98.86 51.91C98.54 50.96 98.15 49.94 97.75 48.99C100.83 47.18 104.06 45.6 107.14 43.94C108.87 43.08 110.53 42.05 112.18 41.03C112.42 41.97 112.58 42.92 112.81 43.87C114 49.86 114.78 56.8 114.47 64.13C114.39 65.71 114.31 67.36 114.15 69.02C109.82 69.65 105.87 70.68 102.4 71.94ZM109.42 105.14C105.56 107.19 101.06 108.92 96.02 110.02C108.87 99.62 115.41 87.31 118.33 75.09C118.49 75.09 118.73 75.09 118.88 75.09C124.72 75.01 129.84 74.3 134.26 73.28C131.11 83.53 124.17 97.25 109.42 105.14Z" fill="url(#paint_linear_34_1_0)" fill-opacity="1.000000" fill-rule="nonzero"/>
	</g>
</svg>
