<svg version="1.0" xmlns="http://www.w3.org/2000/svg"
 width="512.000000pt" height="512.000000pt" viewBox="0 0 512.000000 512.000000"
 preserveAspectRatio="xMidYMid meet">

<g transform="translate(0.000000,512.000000) scale(0.100000,-0.100000)"
fill="inherit" stroke="none">
<path d="M215 5101 c-47 -22 -89 -64 -104 -104 -33 -87 9 -200 90 -242 14 -8
176 -42 360 -75 184 -34 336 -64 338 -66 3 -2 132 -649 288 -1437 155 -787
290 -1451 299 -1474 20 -56 74 -100 138 -113 35 -7 495 -9 1426 -8 l1375 3 42
23 c82 43 72 9 323 1097 255 1101 250 1072 194 1143 -17 20 -50 47 -74 60
l-44 22 -1717 0 -1716 0 -88 448 c-48 246 -97 466 -107 489 -23 49 -68 87
-124 102 -61 17 -798 151 -831 151 -15 0 -46 -9 -68 -19z m4365 -1573 c0 -7
-81 -359 -179 -783 l-178 -770 -1201 -3 -1201 -2 -10 52 c-6 29 -74 373 -151
763 -77 391 -142 720 -145 733 l-5 22 1535 0 c1221 0 1535 -3 1535 -12z"/>
<path d="M1782 1270 c-362 -95 -567 -478 -445 -832 157 -456 736 -585 1073
-239 110 114 169 249 177 412 24 436 -383 769 -805 659z m293 -402 c84 -54
124 -126 125 -224 1 -222 -270 -338 -429 -184 -54 53 -73 92 -79 167 -9 110
44 203 143 250 69 33 181 29 240 -9z"/>
<path d="M3706 1274 c-125 -30 -259 -115 -346 -220 -49 -58 -113 -187 -131
-264 -7 -30 -13 -98 -13 -150 1 -175 63 -322 194 -451 199 -198 483 -244 736
-118 243 120 382 377 353 647 -17 156 -70 263 -189 382 -95 95 -184 147 -300
174 -80 19 -225 19 -304 0z m259 -393 c119 -53 179 -198 136 -325 -19 -54 -77
-115 -136 -142 -136 -64 -301 10 -350 156 -41 123 24 261 147 315 47 20 154
18 203 -4z"/>
</g>
</svg>
