<?xml version="1.0" standalone="no"?>
<!DOCTYPE svg PUBLIC "-//W3C//DTD SVG 20010904//EN"
 "http://www.w3.org/TR/2001/REC-SVG-20010904/DTD/svg10.dtd">
<svg version="1.0" xmlns="http://www.w3.org/2000/svg"
 width="2400.000000pt" height="3085.000000pt" viewBox="0 0 2400.000000 3085.000000"
 preserveAspectRatio="xMidYMid meet">

<g transform="translate(0.000000,3085.000000) scale(0.100000,-0.100000)"
fill="#000000" stroke="none">
<path d="M11740 30840 c-384 -15 -756 -41 -1145 -81 -1713 -174 -3389 -727
-4925 -1622 -1294 -754 -2445 -1742 -3349 -2875 -1322 -1658 -2104 -3599
-2276 -5647 -54 -648 -54 -1505 0 -2175 127 -1561 561 -2797 1301 -3703 127
-156 396 -431 543 -557 626 -534 1349 -891 2276 -1124 169 -43 181 -45 193
-28 7 9 66 123 131 252 425 850 514 1504 296 2180 -90 276 -218 530 -518 1025
-457 752 -621 1134 -706 1640 -213 1266 -111 2576 293 3790 499 1496 1433
2835 2731 3915 1014 844 2218 1485 3485 1855 2312 675 4637 406 6493 -752 603
-376 1238 -914 1631 -1383 775 -924 1289 -2314 1455 -3935 71 -687 80 -1484
26 -2205 -169 -2238 -895 -4375 -1980 -5825 -65 -88 -175 -227 -244 -310 -148
-178 -549 -582 -711 -716 -702 -581 -1416 -900 -2235 -995 -183 -22 -641 -25
-815 -6 -869 95 -1513 352 -1930 771 -333 334 -517 748 -587 1312 -21 175 -23
613 -4 819 53 567 178 1173 410 1985 96 338 183 621 425 1387 370 1170 499
1611 620 2123 252 1064 297 1845 141 2449 -43 170 -81 271 -159 431 -253 515
-705 874 -1371 1088 -458 147 -877 188 -1296 127 -405 -60 -813 -230 -1169
-489 -1001 -726 -1718 -2193 -1884 -3851 -103 -1027 26 -2029 366 -2844 47
-112 165 -355 225 -460 l27 -48 -27 -137 c-178 -866 -430 -1895 -862 -3511
-85 -316 -206 -771 -270 -1010 -616 -2305 -943 -3789 -1154 -5240 -264 -1812
-327 -3510 -190 -5185 36 -448 126 -1245 142 -1261 11 -12 309 224 552 435
142 125 483 463 616 612 1143 1280 1977 2974 2658 5399 267 951 537 2130 812
3547 46 238 87 433 92 433 26 0 524 -328 1017 -670 662 -459 989 -659 1385
-847 688 -326 1441 -472 2430 -473 1878 0 3615 611 5084 1789 343 274 809 717
1093 1036 535 603 993 1252 1407 1995 124 222 376 729 485 975 938 2117 1354
4560 1191 6985 -105 1551 -402 2739 -975 3905 -637 1293 -1609 2441 -2830
3342 -1819 1341 -4153 2148 -6750 2333 -443 32 -1253 46 -1670 30z"/>
</g>
</svg>
