<svg version="1.0" xmlns="http://www.w3.org/2000/svg"
 width="2400.000000pt" height="4622.000000pt" viewBox="0 0 2400.000000 4622.000000"
 preserveAspectRatio="xMidYMid meet">
<g transform="translate(0.000000,4622.000000) scale(0.100000,-0.100000)"
fill="inherit" stroke="none">
<path d="M17050 46200 c-948 -43 -1789 -161 -2605 -366 -2815 -706 -4939
-2376 -6159 -4844 -706 -1427 -1096 -3071 -1176 -4965 -6 -150 -10 -1450 -10
-3482 l0 -3243 -3550 0 -3550 0 0 -4105 0 -4105 3548 -2 3547 -3 3 -10537 2
-10538 4240 0 4240 0 0 10540 0 10540 3535 0 3535 0 4 23 c3 12 240 1842 526
4067 287 2225 524 4062 527 4083 l6 37 -4067 0 -4067 0 4 2933 c4 3149 1 2992
52 3392 109 849 365 1466 801 1924 507 533 1291 852 2349 955 368 36 461 38
2843 43 l2372 5 0 3668 0 3668 -42 6 c-185 27 -857 91 -1368 130 -1041 80
-1986 128 -3265 166 -454 14 -2043 21 -2275 10z"/>
</g>
</svg>
