<?xml version="1.0" encoding="utf-8"?>
<svg xmlns="http://www.w3.org/2000/svg" viewBox="0 0 50 50" width="500" height="500">
  <path d="M9 4C6.2504839 4 4 6.2504839 4 9L4 41C4 43.749516 6.2504839 46 9 46L25.832031 46 A 1.0001 1.0001 0 0 0 26.158203 46L31.832031 46 A 1.0001 1.0001 0 0 0 32.158203 46L41 46C43.749516 46 46 43.749516 46 41L46 9C46 6.2504839 43.749516 4 41 4L9 4 z M 9 6L41 6C42.668484 6 44 7.3315161 44 9L44 41C44 42.668484 42.668484 44 41 44L33 44L33 30L36.820312 30L38.220703 23L33 23L33 21C33 20.442508 33.05305 20.398929 33.240234 20.277344C33.427419 20.155758 34.005822 20 35 20L38 20L38 14.369141L37.429688 14.097656C37.429688 14.097656 35.132647 13 32 13C29.75 13 27.901588 13.896453 26.71875 15.375C25.535912 16.853547 25 18.833333 25 21L25 23L22 23L22 30L25 30L25 44L9 44C7.3315161 44 6 42.668484 6 41L6 9C6 7.3315161 7.3315161 6 9 6 z M 32 15C34.079062 15 35.38736 15.458455 36 15.701172L36 18L35 18C33.849178 18 32.926956 18.0952 32.150391 18.599609C31.373826 19.104024 31 20.061492 31 21L31 25L35.779297 25L35.179688 28L31 28L31 44L27 44L27 28L24 28L24 25L27 25L27 21C27 19.166667 27.464088 17.646453 28.28125 16.625C29.098412 15.603547 30.25 15 32 15 z" fill="#5B5B5B" />
</svg>