<svg xmlns="http://www.w3.org/2000/svg" xmlns:xlink="http://www.w3.org/1999/xlink" width="683px" height="683px" viewBox="0 0 683 683" version="1.1">
<g>
<path style=" stroke:none; fill: inherit;" d="M 30.949219 24.011719 C 24.546875 28.015625 21.34375 34.015625 21.34375 42.6875 C 21.34375 51.359375 24.546875 57.359375 30.949219 61.363281 C 34.949219 63.765625 37.75 64.03125 60.964844 64.03125 L 86.574219 64.03125 L 87.375 69.632812 C 87.777344 72.835938 96.179688 152.472656 106.050781 246.519531 C 115.921875 340.699219 124.726562 420.339844 125.527344 423.273438 C 128.0625 432.609375 133.398438 441.683594 141.269531 449.953125 C 149.941406 459.15625 157.011719 463.558594 168.214844 467.027344 C 175.953125 469.429688 183.691406 469.5625 354.304688 469.5625 C 531.058594 469.5625 532.394531 469.5625 540.664062 466.761719 C 545.199219 465.292969 551.734375 462.226562 555.335938 459.957031 C 564.675781 454.089844 575.480469 441.28125 579.484375 431.8125 C 581.75 426.476562 592.6875 378.183594 609.765625 298.144531 C 639.378906 159.277344 638.445312 166.082031 630.839844 150.875 C 626.574219 142.203125 620.835938 136.464844 611.898438 131.796875 L 606.296875 128.730469 L 371.914062 128.328125 C 143.535156 128.0625 137.398438 127.929688 137.398438 125.527344 C 137.398438 124.195312 135.265625 103.382812 132.730469 79.371094 C 127.664062 32.015625 127.261719 30.015625 118.726562 24.410156 C 114.457031 21.34375 113.65625 21.34375 74.835938 21.34375 C 37.75 21.34375 35.082031 21.476562 30.949219 24.011719 Z M 565.875 291.742188 C 537.863281 422.472656 539.0625 418.472656 529.191406 423.941406 C 525.191406 426.074219 514.25 426.207031 354.171875 426.207031 C 197.828125 426.207031 183.023438 426.074219 179.421875 423.941406 C 173.285156 420.605469 169.683594 416.070312 168.082031 409.53125 C 166.882812 404.730469 142.734375 178.488281 142.734375 172.351562 C 142.734375 171.148438 188.492188 170.75 367.246094 170.75 L 591.753906 170.75 Z M 565.875 291.742188 "/>
<path style=" stroke:none;fill-rule:nonzero;fill:rgb(0%,0%,0%);fill-opacity:1;" d="M 193.160156 514.785156 C 173.816406 521.054688 157.277344 537.996094 151.539062 557.472656 C 148.738281 566.945312 148.738281 585.617188 151.539062 595.089844 C 157.277344 614.832031 173.953125 631.640625 193.5625 637.777344 C 204.5 641.246094 222.375 641.246094 233.3125 637.777344 C 252.921875 631.640625 269.597656 614.832031 275.335938 595.089844 C 278.136719 585.617188 278.136719 566.945312 275.335938 557.472656 C 269.597656 537.730469 252.921875 520.921875 233.3125 514.785156 C 222.507812 511.449219 203.699219 511.449219 193.160156 514.785156 Z M 223.84375 558.9375 C 241.183594 569.476562 233.714844 596.289062 213.4375 596.289062 C 202.097656 596.289062 193.429688 587.621094 193.429688 576.28125 C 193.429688 564.941406 202.097656 556.273438 213.4375 556.273438 C 217.039062 556.273438 221.175781 557.339844 223.84375 558.9375 Z M 223.84375 558.9375 "/>
<path style=" stroke:none;fill-rule:nonzero;fill:rgb(0%,0%,0%);fill-opacity:1;" d="M 449.285156 514.785156 C 439.414062 517.984375 430.078125 523.988281 422.605469 531.992188 C 410.46875 544.933594 405.53125 557.871094 405.53125 576.28125 C 405.53125 594.691406 410.46875 607.628906 422.605469 620.570312 C 435.277344 634.042969 450.085938 640.3125 469.5625 640.3125 C 489.039062 640.3125 503.847656 634.042969 516.519531 620.570312 C 528.65625 607.628906 533.59375 594.691406 533.59375 576.28125 C 533.59375 557.871094 528.65625 544.933594 516.519531 531.992188 C 508.914062 523.855469 499.578125 517.984375 489.4375 514.785156 C 478.632812 511.449219 459.824219 511.449219 449.285156 514.785156 Z M 479.96875 558.9375 C 497.308594 569.476562 489.839844 596.289062 469.5625 596.289062 C 458.222656 596.289062 449.554688 587.621094 449.554688 576.28125 C 449.554688 564.941406 458.222656 556.273438 469.5625 556.273438 C 473.164062 556.273438 477.300781 557.339844 479.96875 558.9375 Z M 479.96875 558.9375 "/>
</g>
</svg>
