<?xml version="1.0" encoding="utf-8"?>
<svg xmlns="http://www.w3.org/2000/svg" viewBox="0 0 50 50" width="100" height="100">
  <path d="M18.609375 3.960938C17.683594 3.933594 17.035156 4.4375 16.359375 5.859375C15.96875 6.816406 15.875 7.867188 15.875 9.015625C16.164063 10.257813 16.453125 11.5 16.839844 12.742188C17.402344 14.460938 18.625 18.03125 19.558594 20.769531C19.609375 20.792969 19.660156 20.8125 19.738281 20.847656C20.109375 21.078125 20.257813 21.203125 20.421875 21.347656C20.613281 21.515625 20.828125 21.734375 21.046875 21.972656C21.242188 21.539063 21.539063 21.128906 21.964844 20.769531C23.121094 20.003906 24.476563 20.484375 25.734375 20.484375C25.734375 20.484375 26.339844 20.542969 27.085938 20.613281C26.019531 17.378906 24.117188 11.394531 22.890625 8.96875C22.214844 7.628906 21.539063 6.386719 20.671875 5.242188C20.285156 4.667969 19.800781 4.191406 19.027344 4C18.882813 3.976563 18.742188 3.960938 18.609375 3.960938 Z M 36.730469 5.09375C36.132813 5.144531 35.476563 5.496094 34.800781 6.117188C34.609375 6.308594 34.316406 6.5 34.21875 6.785156C33.15625 8.027344 32.382813 9.558594 31.707031 10.992188C30.546875 13.191406 28.855469 17.945313 28.082031 20.335938C28.046875 20.464844 27.996094 20.578125 27.953125 20.703125C28.601563 20.765625 29.246094 20.832031 29.597656 20.867188C30.675781 20.984375 33.417969 21.332031 35.316406 21.605469C36.097656 19.375 37.394531 15.710938 38.011719 13.890625C38.492188 12.265625 38.976563 10.640625 39.171875 9.015625C39.265625 7.867188 39.070313 6.816406 38.296875 5.859375C37.863281 5.289063 37.328125 5.042969 36.730469 5.09375 Z M 17.628906 21.753906C17.523438 21.75 17.414063 21.757813 17.296875 21.78125C16.269531 21.972656 15.402344 22.585938 14.714844 23.351563C14.667969 23.402344 14.632813 23.457031 14.589844 23.507813C14.34375 23.902344 14.199219 24.308594 14.222656 24.667969L14.222656 24.761719C14.222656 25.5 14.515625 25.8125 14.707031 26.292969C15.382813 27.625 16.738281 29.347656 18.21875 30.980469C18.289063 31.054688 18.359375 31.128906 18.425781 31.203125C18.835938 31.648438 19.253906 32.09375 19.667969 32.53125C20.375 33.226563 21.183594 34.382813 22.324219 33.886719C23.039063 33.570313 23.746094 32.769531 24 32.03125C24.054688 31.886719 24.082031 31.742188 24.082031 31.597656C24.082031 30 20.609375 24.5625 19.351563 22.9375C18.898438 22.351563 18.375 21.773438 17.628906 21.753906 Z M 25.636719 22.015625C24.960938 22.015625 24.378906 22.015625 23.703125 22.203125C23.21875 22.394531 22.832031 22.683594 22.832031 23.253906C22.792969 23.726563 22.859375 24.15625 22.988281 24.558594C23.183594 24.875 23.375 25.210938 23.5625 25.558594C23.71875 25.722656 23.882813 25.886719 24.089844 26.03125C24.765625 26.507813 25.636719 26.792969 26.503906 26.984375C28.441406 27.367188 30.46875 27.367188 32.5 27.367188C32.980469 27.367188 33.371094 27.367188 33.855469 27.464844C34.335938 27.558594 34.433594 27.941406 34.53125 28.417969C34.625 28.800781 34.335938 28.992188 34.046875 29.089844C33.46875 29.375 32.980469 29.566406 32.402344 29.753906C30.082031 30.617188 28.34375 32.144531 27.085938 34.25C26.214844 35.777344 25.925781 37.402344 26.605469 39.125C26.796875 39.503906 26.894531 39.886719 26.988281 40.363281C27.085938 40.75 27.183594 41.226563 27.085938 41.703125C26.121094 41.511719 25.539063 41.035156 25.058594 40.269531C24.671875 39.503906 24.476563 38.644531 24.378906 37.785156C24.285156 37.308594 24.28125 36.828125 24.28125 36.351563C24.347656 35.757813 24.4375 35.269531 24.546875 34.847656C24.269531 35.136719 23.953125 35.414063 23.558594 35.644531C23.066406 35.96875 22.324219 36.003906 21.695313 35.949219C21.746094 36.058594 21.796875 36.167969 21.839844 36.273438C21.839844 36.464844 21.9375 36.558594 21.9375 36.65625C22.226563 37.804688 21.742188 38.855469 20.777344 39.523438C20.003906 40.097656 19.039063 40.09375 18.167969 39.90625C16.621094 39.523438 15.210938 38.496094 14.246094 37.253906C13.761719 36.585938 13.277344 35.820313 13.183594 35.058594C12.890625 34.292969 12.890625 33.910156 13.375 33.433594C13.46875 33.621094 13.664063 33.71875 13.761719 33.90625C14.242188 34.480469 14.628906 35.058594 15.113281 35.628906C15.691406 36.300781 16.523438 37.039063 17.296875 37.324219C17.972656 37.609375 18.554688 37.609375 19.230469 37.324219C19.808594 37.039063 19.90625 36.65625 19.8125 36.082031C19.714844 35.890625 19.617188 35.699219 19.519531 35.511719C18.84375 34.171875 17.972656 32.929688 16.910156 31.875C16.332031 31.304688 13.75 28.375 12.136719 29.15625C11.015625 29.871094 10.285156 30.972656 10.074219 32.433594C9.882813 34.058594 10.074219 35.492188 10.558594 37.019531C11.527344 40.078125 14.8125 43.421875 18.097656 44.761719C20.609375 45.8125 23.222656 46.195313 25.925781 45.90625C27.863281 45.8125 29.792969 45.242188 31.53125 44.378906C35.011719 42.660156 37.332031 39.886719 38.78125 36.351563C39.460938 34.632813 39.847656 32.71875 39.941406 30.808594C39.957031 30.59375 39.964844 30.378906 39.972656 30.167969C39.972656 29.5625 39.972656 28.527344 39.917969 27.59375C39.878906 27.234375 39.820313 26.867188 39.75 26.503906C39.679688 26.199219 39.59375 25.894531 39.496094 25.59375C39.199219 25.015625 38.769531 24.519531 38.148438 24.214844C37.664063 24.023438 37.28125 23.832031 36.796875 23.640625C33.800781 22.585938 28.730469 22.300781 25.636719 22.015625 Z M 25.078125 28.609375C25.445313 29.191406 25.816406 29.78125 25.929688 30.570313C25.988281 30.972656 25.992188 31.660156 25.824219 32.425781C25.917969 32.304688 26.015625 32.179688 26.121094 32.046875C26.890625 30.902344 27.957031 30.136719 29.113281 29.277344C27.6875 29.1875 26.34375 29.007813 25.078125 28.609375Z" fill="#131311" />
</svg>