<?xml version="1.0" encoding="UTF-8"?>
<svg xmlns="http://www.w3.org/2000/svg" xmlns:xlink="http://www.w3.org/1999/xlink" viewBox="0 0 240 240" width="240px" height="240px">
<g id="surface68427274">
<path style=" stroke:none;fill-rule:nonzero;fill:rgb(6.666667%,6.666667%,6.666667%);fill-opacity:1;" d="M 23.355469 48.4375 L 23.613281 48.4375 C 37.566406 48.4375 46.25 38.4375 46.25 25.9375 C 45.988281 13.164062 37.566406 3.4375 23.878906 3.4375 C 10.195312 3.4375 1.25 13.164062 1.25 25.9375 C 1.25 38.4375 9.929688 48.4375 23.355469 48.4375 Z M 1.25 63.4375 L 46.25 63.4375 L 46.25 193.4375 L 1.25 193.4375 Z M 201.25 110.9375 C 201.25 84.703125 179.984375 63.4375 153.75 63.4375 C 138.484375 63.4375 124.941406 70.667969 116.25 81.859375 L 116.25 63.4375 L 71.25 63.4375 L 71.25 193.4375 L 116.25 193.4375 L 116.25 118.4375 C 116.25 107.390625 125.203125 98.4375 136.25 98.4375 C 147.292969 98.4375 156.25 107.390625 156.25 118.4375 L 156.25 193.4375 L 201.25 193.4375 C 201.25 193.4375 201.25 118.210938 201.25 110.9375 Z M 201.25 110.9375 "/>
</g>
</svg>
