<?xml version="1.0" encoding="UTF-8"?>
<svg xmlns="http://www.w3.org/2000/svg" xmlns:xlink="http://www.w3.org/1999/xlink" viewBox="0 0 64 64" width="64px" height="64px">
<g id="surface68487759">
<path style=" stroke:none;fill-rule:nonzero;fill:rgb(0%,0%,0%);fill-opacity:1;" d="M 57.183594 5.9375 C 55.085938 6.871094 52.828125 7.488281 50.445312 7.78125 C 52.867188 6.34375 54.730469 4.054688 55.601562 1.34375 C 53.339844 2.671875 50.828125 3.648438 48.160156 4.160156 C 46.027344 1.902344 42.984375 0.5 39.617188 0.5 C 33.144531 0.5 27.898438 5.699219 27.898438 12.109375 C 27.898438 13.019531 28.003906 13.902344 28.207031 14.761719 C 18.46875 14.269531 9.835938 9.644531 4.058594 2.617188 C 3.042969 4.335938 2.472656 6.34375 2.472656 8.464844 C 2.472656 12.496094 4.535156 16.046875 7.683594 18.136719 C 5.761719 18.078125 3.953125 17.542969 2.371094 16.6875 C 2.371094 16.722656 2.371094 16.773438 2.371094 16.824219 C 2.371094 22.457031 6.410156 27.144531 11.765625 28.214844 C 10.785156 28.480469 9.753906 28.628906 8.6875 28.628906 C 7.929688 28.628906 7.191406 28.542969 6.476562 28.417969 C 7.96875 33.019531 12.296875 36.386719 17.421875 36.484375 C 13.410156 39.59375 8.359375 41.453125 2.867188 41.453125 C 1.917969 41.453125 0.992188 41.402344 0.0742188 41.289062 C 5.261719 44.574219 11.421875 46.5 18.035156 46.5 C 39.585938 46.5 51.375 28.804688 51.375 13.453125 C 51.375 12.949219 51.359375 12.449219 51.335938 11.953125 C 53.636719 10.332031 55.617188 8.28125 57.183594 5.9375 "/>
</g>
</svg>
