<?xml version="1.0" encoding="UTF-8"?>
<svg xmlns="http://www.w3.org/2000/svg" xmlns:xlink="http://www.w3.org/1999/xlink" viewBox="0 0 256 256" width="256px" height="256px">
<g id="surface68479378">
<path style=" stroke:none;fill-rule:nonzero;fill:rgb(0%,0%,0%);fill-opacity:1;" d="M 247.734375 61.757812 C 239.335938 65.476562 230.308594 67.957031 220.785156 69.128906 C 230.46875 63.382812 237.917969 54.214844 241.414062 43.382812 C 232.351562 48.691406 222.316406 52.59375 211.636719 54.648438 C 203.109375 45.609375 190.945312 40 177.46875 40 C 151.578125 40 130.597656 60.800781 130.597656 86.445312 C 130.597656 90.074219 131.023438 93.609375 131.824219 97.042969 C 92.878906 95.085938 58.335938 76.574219 35.230469 48.476562 C 31.167969 55.339844 28.882812 63.382812 28.882812 71.867188 C 28.882812 87.988281 37.140625 102.183594 49.730469 110.546875 C 42.046875 110.308594 34.8125 108.175781 28.480469 104.746094 C 28.480469 104.886719 28.480469 105.09375 28.480469 105.289062 C 28.480469 127.824219 44.640625 146.582031 66.0625 150.855469 C 62.144531 151.925781 58.007812 152.523438 53.746094 152.523438 C 50.71875 152.523438 47.769531 152.179688 44.914062 151.667969 C 50.878906 170.078125 68.179688 183.539062 88.683594 183.9375 C 72.640625 196.371094 52.441406 203.820312 30.472656 203.820312 C 26.675781 203.820312 22.96875 203.605469 19.300781 203.160156 C 40.050781 216.300781 64.695312 224.003906 91.144531 224.003906 C 177.34375 224.003906 224.496094 153.21875 224.496094 91.8125 C 224.496094 89.800781 224.433594 87.796875 224.335938 85.816406 C 233.542969 79.320312 241.46875 71.121094 247.734375 61.757812 "/>
</g>
</svg>
