<?xml version="1.0" encoding="UTF-8"?>
<svg xmlns="http://www.w3.org/2000/svg" xmlns:xlink="http://www.w3.org/1999/xlink" viewBox="0 0 100 100" width="100px" height="100px">
<g id="surface68429502">
<path style=" stroke:none;fill-rule:nonzero;fill:rgb(0%,0%,0%);fill-opacity:1;" d="M 96.769531 24.125 C 93.492188 25.578125 89.964844 26.546875 86.242188 27.003906 C 90.027344 24.757812 92.9375 21.175781 94.300781 16.945312 C 90.761719 19.019531 86.84375 20.542969 82.671875 21.347656 C 79.339844 17.816406 74.585938 15.625 69.324219 15.625 C 59.210938 15.625 51.015625 23.75 51.015625 33.769531 C 51.015625 35.183594 51.179688 36.566406 51.492188 37.90625 C 36.28125 37.144531 22.789062 29.910156 13.761719 18.9375 C 12.175781 21.617188 11.28125 24.757812 11.28125 28.074219 C 11.28125 34.371094 14.507812 39.914062 19.425781 43.183594 C 16.421875 43.089844 13.597656 42.253906 11.125 40.917969 C 11.125 40.972656 11.125 41.050781 11.125 41.128906 C 11.125 49.929688 17.4375 57.257812 25.804688 58.929688 C 24.277344 59.347656 22.660156 59.578125 20.996094 59.578125 C 19.8125 59.578125 18.660156 59.445312 17.542969 59.246094 C 19.875 66.4375 26.632812 71.695312 34.640625 71.851562 C 28.375 76.707031 20.484375 79.617188 11.902344 79.617188 C 10.421875 79.617188 8.972656 79.53125 7.539062 79.359375 C 15.644531 84.492188 25.269531 87.5 35.605469 87.5 C 69.273438 87.5 87.695312 59.851562 87.695312 35.863281 C 87.695312 35.078125 87.667969 34.296875 87.632812 33.523438 C 91.226562 30.984375 94.324219 27.78125 96.769531 24.125 "/>
</g>
</svg>
