<svg class="logo" xmlns="http://www.w3.org/2000/svg" width="70" height="30" viewBox="0 0 700 300" fill="none"><path d="M275.449 150c.144 19.444-14.731 26.389-34.95 26.389S205.55 169.444 205.405 150c-.144-19.444 14.875-26.389 35.094-26.389s34.805 6.945 34.95 26.389z" fill="#000"/><path fill-rule="evenodd" clip-rule="evenodd" d="M0 0h300l100 151.5L300 300H0V0zm107.381 200C80.374 200 59 183.333 59 150c0-30.556 19.93-50 55.602-50 30.328 0 45.636 13.194 50.835 34.722h-23.973c-4.766-8.75-10.254-12.5-26.862-12.5-21.519 0-30.762 6.945-30.762 27.778s9.243 27.917 30.762 27.917c13.68 0 21.208-2.902 24.854-12.639h-30.631V145h58.345v55h-20.219v-23.406C139.875 192.96 126.434 200 107.381 200zm73.473-50c0 30.556 22.096 50 59.645 50C278.048 200 300 180.556 300 150s-21.952-50-59.501-50c-37.549 0-59.645 19.444-59.645 50zM700 0H400v300h300V0zM513.601 200V100H489v100h24.601zM625 124.286V100h-95.509v24.286h35.454V200h24.601v-75.714H625z" fill="#000"/></svg>